<?xml version="1.0" encoding="utf-8"?>
<!-- Generator: Adobe Illustrator 24.1.1, SVG Export Plug-In . SVG Version: 6.00 Build 0)  -->
<svg version="1.1" id="Layer_1" xmlns="http://www.w3.org/2000/svg" xmlns:xlink="http://www.w3.org/1999/xlink" x="0px" y="0px"
	 width="396.3px" height="362.8px" viewBox="0 0 396.3 362.8" style="enable-background:new 0 0 396.3 362.8;" xml:space="preserve"
	>
<style type="text/css">
	.st0{fill:#22EAE0;}
</style>
<path class="st0" d="M361.9,117.9L59.7,92.1l-39.9,12.6c-2.8,0.2-4.9,2.8-4.9,6.1v162.3c0,3.6,2.5,6.8,5.7,7l306.2,26.5
	c0.7,0.1,1.5,0,2.1-0.3l0,0l0,0c0,0,0.1,0,0.1,0l32.5-13.3c3.5-1.2,5.8-4.4,5.8-8.1l2.9-157.9C370.2,122.3,366.6,118.3,361.9,117.9z
	 M321.3,293L26.1,267.5l0.1-149.2l298.8,25.5L321.3,293z"/>
<path class="st0" d="M277.6,208.4l0.5-26.2l-22.9-2l-0.5,26.2c-0.1,3.6-2.7,6.3-5.8,6.1c3.2,0.3,5.7,3.4,5.6,7l-0.5,26.2l22.8,2
	l0.5-26.2c0.1-3.6,2.7-6.3,5.8-6.1C280.1,215.2,277.6,212.1,277.6,208.4z"/>
<path class="st0" d="M220.4,203.6l0.5-26.2l-22.9-2l-0.5,26.2c-0.1,3.6-2.7,6.3-5.8,6.1c3.2,0.3,5.7,3.4,5.6,7l-0.5,26.2l22.8,2
	l0.5-26.2c0.1-3.6,2.7-6.3,5.8-6.1C222.8,210.4,220.3,207.3,220.4,203.6z"/>
<path class="st0" d="M88.4,192.6l0.5-26.2l-22.9-2l-0.5,26.2c-0.1,3.6-2.7,6.3-5.8,6.1c3.2,0.3,5.7,3.4,5.6,7l-0.5,26.2l22.8,2
	l0.5-26.2c0.1-3.6,2.7-6.3,5.8-6.1C90.8,199.4,88.3,196.2,88.4,192.6z"/>
<path class="st0" d="M37.8,132.3l-0.2,123L310.2,279l3.1-123L37.8,132.3z M99.8,193.6c-0.1,3.6-2.7,6.3-5.8,6.1
	c3.2,0.3,5.7,3.4,5.6,7L99,232.9c-0.1,7.2-5.4,12.7-11.6,12.1l-22.8-2c-6.3-0.5-11.3-6.8-11.2-14.1l0.4-26.2
	c0.1-3.6,2.7-6.3,5.8-6.1c-3.2-0.3-5.7-3.4-5.6-7l0.4-26.2c0.1-7.2,5.4-12.7,11.7-12.1l22.9,2c6.3,0.5,11.3,6.8,11.2,14.1
	L99.8,193.6z M151.7,236.1c-0.1,6.9-5.1,12.1-11.1,11.6l-27.2-2.4c-3-0.3-5.4-3.3-5.4-6.7s2.5-6.1,5.5-5.8l27.3,2.4l0.3-18.8
	c0.1-3.5,2.5-6.1,5.6-5.8s5.4,3.3,5.4,6.7L151.7,236.1z M113.9,201.5c0-3.5,2.5-6.1,5.6-5.8l21.9,1.9c3,0.3,5.4,3.3,5.4,6.7
	c-0.1,3.5-2.5,6.1-5.6,5.8l-21.9-1.9C116.3,207.9,113.9,204.9,113.9,201.5z M152.4,192.2c-0.1,3.5-2.5,6.1-5.6,5.8s-5.4-3.3-5.4-6.7
	l0.3-18.8l-27.4-2.4c-3-0.3-5.4-3.3-5.4-6.7c0-3.5,2.5-6.1,5.6-5.8l27.4,2.4c6.1,0.5,10.9,6.6,10.8,13.5L152.4,192.2z M176.1,224.8
	c0,3.6-2.6,6.3-5.8,6.1c-3.1-0.3-5.7-3.4-5.6-7l0.1-6.5c0-3.6,2.6-6.3,5.8-6.1c3.2,0.3,5.7,3.4,5.6,7L176.1,224.8z M176.4,192.1
	c0,3.6-2.6,6.3-5.8,6.1c-3.2-0.3-5.7-3.4-5.6-7l0.1-6.5c0-3.6,2.6-6.3,5.8-6.1c3.2,0.3,5.7,3.4,5.7,7L176.4,192.1z M231.8,204.6
	c-0.1,3.6-2.7,6.3-5.8,6.1c3.2,0.3,5.7,3.4,5.6,7l-0.5,26.2c-0.1,7.2-5.4,12.7-11.6,12.1l-22.8-2c-6.3-0.5-11.3-6.8-11.2-14.1
	l0.4-26.2c0.1-3.6,2.7-6.3,5.8-6.1c-3.2-0.3-5.7-3.4-5.6-7l0.4-26.2c0.1-7.2,5.4-12.7,11.7-12.1l22.9,2c6.3,0.5,11.3,6.8,11.2,14.1
	L231.8,204.6z M289.1,209.4c-0.1,3.6-2.7,6.3-5.8,6.1c3.2,0.3,5.7,3.4,5.6,7l-0.5,26.2c-0.1,7.2-5.4,12.7-11.6,12.1l-22.8-2
	c-6.3-0.5-11.3-6.8-11.2-14.1l0.4-26.2c0.1-3.6,2.7-6.3,5.8-6.1c-3.2-0.3-5.7-3.4-5.6-7l0.4-26.2c0.1-7.2,5.4-12.7,11.7-12.1l22.9,2
	c6.3,0.5,11.3,6.8,11.2,14.1L289.1,209.4z"/>
</svg>
