<svg id="Background" xmlns="http://www.w3.org/2000/svg" xmlns:xlink="http://www.w3.org/1999/xlink" viewBox="0 0 1703.23 1398.65"><defs><style>.cls-1{fill:url(#linear-gradient);}.cls-2,.cls-7{fill:url(#linear-gradient-2);}.cls-2{clip-path:url(#clip-path);}.cls-3,.cls-8{fill:url(#linear-gradient-3);}.cls-3{clip-path:url(#clip-path-2);}.cls-4,.cls-9{fill:url(#linear-gradient-4);}.cls-4{clip-path:url(#clip-path-3);}.cls-10,.cls-5{fill:url(#linear-gradient-5);}.cls-5{clip-path:url(#clip-path-4);}.cls-6{fill:url(#linear-gradient-7);}.cls-11{fill:url(#linear-gradient-6);}.cls-12{fill:url(#linear-gradient-14);}.cls-13{fill:#161616;}.cls-13,.cls-14{stroke:#0094e2;stroke-miterlimit:10;stroke-width:6px;}.cls-14{fill:none;}.cls-15{opacity:0.32;}</style><linearGradient id="linear-gradient" x1="917.7" y1="1191.54" x2="1680.68" y2="1191.54" gradientUnits="userSpaceOnUse"><stop offset="0" stop-color="#f8f423"/><stop offset="0.15" stop-color="#f8f025"/><stop offset="0.29" stop-color="#f8e52c"/><stop offset="0.43" stop-color="#f8d236"/><stop offset="0.57" stop-color="#f8b746"/><stop offset="0.7" stop-color="#f89559"/><stop offset="0.84" stop-color="#f76b71"/><stop offset="0.97" stop-color="#f73a8d"/><stop offset="1" stop-color="#f72c95"/></linearGradient><linearGradient id="linear-gradient-2" x1="895.16" y1="1031.54" x2="1703.23" y2="1031.54" xlink:href="#linear-gradient"/><clipPath id="clip-path"><path class="cls-1" d="M917.7,1177.51q5,14.28,11,28.07h741q6-13.78,11-28.07Z"/></clipPath><linearGradient id="linear-gradient-3" x1="940.44" y1="1245.92" x2="1657.94" y2="1245.92" xlink:href="#linear-gradient"/><clipPath id="clip-path-2"><path class="cls-2" d="M895.16,1044.1c0,1.22,0,2.44,0,3.66h808q0-1.83,0-3.66,0-14.52-1-28.79h-806Q895.17,1029.57,895.16,1044.1Z"/></clipPath><linearGradient id="linear-gradient-4" x1="908.02" y1="791.32" x2="1690.36" y2="791.32" xlink:href="#linear-gradient"/><clipPath id="clip-path-3"><path class="cls-3" d="M1639.68,1261.71q9.81-15.33,18.26-31.58H940.44q8.44,16.23,18.26,31.58Z"/></clipPath><linearGradient id="linear-gradient-5" x1="898.65" y1="978.94" x2="1699.73" y2="978.94" xlink:href="#linear-gradient"/><clipPath id="clip-path-4"><path class="cls-4" d="M1690.36,942.57c-45-174-203.09-302.5-391.17-302.5S953.06,768.57,908,942.57Z"/></clipPath><linearGradient id="linear-gradient-6" x1="896.13" y1="1090.3" x2="1702.25" y2="1090.3" xlink:href="#linear-gradient"/><clipPath id="clip-path-5"><path class="cls-5" d="M902.48,967.13q-2.25,11.7-3.83,23.62h801.08q-1.57-11.93-3.83-23.62Z"/></clipPath><linearGradient id="linear-gradient-7" x1="76.14" y1="-76.14" x2="1630.18" y2="1477.9" gradientUnits="userSpaceOnUse"><stop offset="0" stop-color="#a200f2"/><stop offset="1" stop-color="#14007f"/></linearGradient><linearGradient id="linear-gradient-14" x1="904.94" y1="1142.89" x2="1693.44" y2="1142.89" xlink:href="#linear-gradient"/></defs><title>Artboard 1</title><g id="BG"><rect class="cls-6" width="1703.23" height="1398.65"/></g><g id="Sun"><path class="cls-1" d="M917.7,1177.51q5,14.28,11,28.07h741q6-13.78,11-28.07Z"/><path class="cls-7" d="M895.16,1044.1c0,1.22,0,2.44,0,3.66h808q0-1.83,0-3.66,0-14.52-1-28.79h-806Q895.17,1029.57,895.16,1044.1Z"/><path class="cls-8" d="M1639.68,1261.71q9.81-15.33,18.26-31.58H940.44q8.44,16.23,18.26,31.58Z"/><path class="cls-9" d="M1690.36,942.57c-45-174-203.09-302.5-391.17-302.5S953.06,768.57,908,942.57Z"/><path class="cls-10" d="M902.48,967.13q-2.25,11.7-3.83,23.62h801.08q-1.57-11.93-3.83-23.62Z"/><path class="cls-11" d="M896.13,1072.32q1.26,18.21,4.1,36h797.92q2.83-17.73,4.1-36Z"/><path class="cls-12" d="M904.94,1132.84q2.28,10.15,5,20.11h778.4q2.77-10,5-20.11Z"/></g><g id="Mountains"><polygon class="cls-13" points="337.23 1395.31 421.12 1300.15 543.78 1087.76 698.25 1304.4 835.38 1159.12 933.59 1271.05 962.66 1242.38 1164.85 882.16 1234.59 1199.9 1375.76 1269.57 1433.62 1188.01 1522.71 1026.59 1662.73 1305.25 1703.02 1353.75 1703.23 1395.31 337.23 1395.31"/><line class="cls-14" x1="543.78" y1="1087.76" x2="533.91" y2="1395.31"/><line class="cls-14" x1="698.25" y1="1304.4" x2="827.85" y2="1394.46"/><line class="cls-14" x1="421.12" y1="1300.15" x2="668.26" y2="1395.31"/><line class="cls-14" x1="337.23" y1="1395.31" x2="698.25" y2="1304.4"/><line class="cls-14" x1="933.59" y1="1271.05" x2="827.85" y2="1394.46"/><line class="cls-14" x1="698.25" y1="1304.4" x2="668.26" y2="1395.31"/><line class="cls-14" x1="835.38" y1="1159.12" x2="827.85" y2="1394.46"/><line class="cls-14" x1="829.64" y1="1338.42" x2="698.25" y2="1304.4"/><line class="cls-14" x1="933.59" y1="1271.05" x2="829.64" y2="1338.42"/><line class="cls-14" x1="962.66" y1="1242.38" x2="948.2" y2="1394.46"/><polyline class="cls-14" points="879.92 1394.46 1119.01 1208.26 1234.01 1199.05"/><line class="cls-14" x1="1092.84" y1="1394.46" x2="1164.85" y2="882.16"/><line class="cls-14" x1="1242.11" y1="1394.46" x2="1234.01" y2="1199.05"/><line class="cls-14" x1="1143.8" y1="1395.31" x2="1236.62" y2="1261.94"/><line class="cls-14" x1="953.66" y1="1337.04" x2="1099.48" y2="1347.17"/><line class="cls-14" x1="1236.62" y1="1261.94" x2="1023.41" y2="1394.46"/><line class="cls-14" x1="1119.01" y1="1208.26" x2="1236.62" y2="1261.94"/><line class="cls-14" x1="1376.34" y1="1268.72" x2="1236.62" y2="1261.94"/><line class="cls-14" x1="1522.71" y1="1026.59" x2="1530.24" y2="1394.46"/><line class="cls-14" x1="1663.31" y1="1304.4" x2="1333.56" y2="1395.31"/><line class="cls-14" x1="1474.69" y1="1394.46" x2="1529.14" y2="1341.04"/><line class="cls-14" x1="1628.59" y1="1394.46" x2="1529.14" y2="1341.04"/><line class="cls-14" x1="1522.71" y1="1026.59" x2="1370.55" y2="1394.46"/><line class="cls-14" x1="1376.34" y1="1268.72" x2="1370.55" y2="1394.46"/><line class="cls-14" x1="953.66" y1="1337.04" x2="1164.85" y2="882.16"/><line class="cls-14" x1="1663.31" y1="1304.4" x2="1670.25" y2="1394.46"/><line class="cls-14" x1="1376.34" y1="1268.72" x2="1286.08" y2="1394.46"/></g><g id="overlay" class="cls-15"><rect class="cls-6" width="1703.23" height="1398.65"/></g></svg>