<svg xmlns="http://www.w3.org/2000/svg" viewBox="0 0 396.26 362.81"><defs><style>.cls-1{fill:#fcf499;}</style></defs><title>bart</title><g id="Bart"><g id="bartHead"><path id="head" class="cls-1" d="M93.72,149.07a15.1,15.1,0,0,1-1.84-8.14c.13-4.14.89-5.78,2.26-7.94a14,14,0,0,1,8.54-5.62c.23-1.61,3.45-33.68,3.84-40s2.86-45.2,2.86-52.79.16-16,.19-17.46.92-2.4,1.91-2.43,2,.72,3.51,2.4,8.73,13.39,9.91,13.42,5-8.43,5.68-10.08,3.22-7,3.75-8,.68-1.57,1.93-1.57,2.83,2.1,4.4,4.16,7.91,12.87,10.18,12.81,7.73-16.63,8.17-17.7,1.18-2.36,2.63-2.29c2,.09,3,1.41,3.94,2.85s8.5,17,11.19,17.07,9.88-16.58,10.93-18,1.74-2.3,3.68-2.3,3.06,2.57,4.07,5c3.28,7.78,2.85,15.61,7,15.79,3.05.13,10.54-15.13,11.75-17s2.36-1.55,3.22-.17,8.7,18.81,9.22,20.22,2.23,1.25,3-.13,9.58-14.28,10.47-15.2c1.41-1.44,3.39-2,4.93.53,2.33,3.77,5.51,20.19,8.27,20.42,3.05.25,11.29-13.36,12.21-15s3-3.44,4.56-.36,3.42,10.83,3.88,13,1.18,8,2.92,8.44,3.67-2.17,5.64-4.6,7.82-8.43,8.7-9.22,3.71-2.3,4.6,1S298,41.93,298.3,44.25c.42,3.19.62,6.21,1.84,6.5s7.26-4.93,8.79-6a41.9,41.9,0,0,1,6.63-3.94c2-.79,3.11-.77,4-.07.69.53,1.35,1,1.09,3.12,0,0-13.92,47.27-17.6,63.29s-10.24,54.37-11.82,68.55-4.53,40.77-3.54,47.66c5,.86,10.82,5.22,13.19,8.77s2.66,13.39,2.17,17.72c-.79,5.91-6.3,9.26-9.95,11.23s-10.76,2.3-10.76,2.3-.07,24.68.82,32.69c1.08,9,2.95,20.06,5.71,25A29.83,29.83,0,0,1,282,331,85.6,85.6,0,0,1,265,342c-4.43,2-14.58,5.91-24,6.21s-21.22-.43-26.69-1.68-12.08-3-15.92-4.33c.1-4,0-10.14-1-13.49s-2-6.4-4.82-8.47-5.74-1.64-7.78-1.87c-3.81-.43-7.52-2.92-9.89-5.71-2.93-3.46-2.75-5.35-2.79-9.42-3.77,0-17.46.06-23.47-.23s-19.27-.5-25.7-1.78a148.87,148.87,0,0,1-23.64-7.38c-4.92-2.27-10.53-6.28-12.41-9-2.06-2.95-2.42-5.35-2.26-9.58.11-2.85,2.76-6.07,3.94-10.9s3.25-11.23,4-15.86A110.38,110.38,0,0,0,94,236.69c.1-2.56,2.7-3.71,2.7-3.71s-2-.87-3.45-4.57a13.65,13.65,0,0,1,.16-10.83,13.93,13.93,0,0,1,4.43-5.41l-.32-.14c2.41-2.48,4-3.14,7.07-4.15,5-1.62,14.35,0,19.2.35,8.75.58,18.67,1.23,26.2.14a8.84,8.84,0,0,0,3.34-1.41,47.32,47.32,0,0,0,42,25.3c26.11,0,47.27-20.9,47.27-46.68s-21.16-46.69-47.27-46.69a47.43,47.43,0,0,0-36.49,17,44.58,44.58,0,0,0-35.4-17C110.26,138.89,98.74,142.54,93.72,149.07Z"/></g></g></svg>