<?xml version="1.0" encoding="utf-8"?>
<!-- Generator: Adobe Illustrator 24.0.2, SVG Export Plug-In . SVG Version: 6.00 Build 0)  -->
<svg version="1.1" id="Layer_1" xmlns="http://www.w3.org/2000/svg" xmlns:xlink="http://www.w3.org/1999/xlink" x="0px" y="0px"
	 viewBox="0 0 396.3 362.8" style="enable-background:new 0 0 396.3 362.8;" xml:space="preserve">
<style type="text/css">
	.st0{fill:url(#head_1_);}
</style>
<title>bart</title>
<g id="Bart">
	<g id="bartHead">
		
			<linearGradient id="head_1_" gradientUnits="userSpaceOnUse" x1="66.1047" y1="115.0975" x2="346.6657" y2="277.0796" gradientTransform="matrix(1 0 0 -1 0 364)">
			<stop  offset="0" style="stop-color:#F8F423"/>
			<stop  offset="0.15" style="stop-color:#F8F025"/>
			<stop  offset="0.2799" style="stop-color:#F8E52C"/>
			<stop  offset="0.4199" style="stop-color:#F8D236"/>
			<stop  offset="0.5197" style="stop-color:#F8B746"/>
			<stop  offset="0.6648" style="stop-color:#F89559"/>
			<stop  offset="0.8048" style="stop-color:#F76B71"/>
			<stop  offset="0.9196" style="stop-color:#F72C95"/>
			<stop  offset="0.97" style="stop-color:#F73A8D"/>
		</linearGradient>
		<path id="head" class="st0" d="M93.7,149.1c-1.4-2.5-2-5.3-1.8-8.1c0.1-4.1,0.9-5.8,2.3-7.9c2-2.9,5.1-4.9,8.5-5.6
			c0.2-1.6,3.4-33.7,3.8-40s2.9-45.2,2.9-52.8s0.2-16,0.2-17.5s0.9-2.4,1.9-2.4s2,0.7,3.5,2.4s8.7,13.4,9.9,13.4s5-8.4,5.7-10.1
			s3.2-7,3.8-8s0.7-1.6,1.9-1.6s2.8,2.1,4.4,4.2s7.9,12.9,10.2,12.8s7.7-16.6,8.2-17.7s1.2-2.4,2.6-2.3c2,0.1,3,1.4,3.9,2.8
			s8.5,17,11.2,17.1s9.9-16.6,10.9-18s1.7-2.3,3.7-2.3s3.1,2.6,4.1,5c3.3,7.8,2.9,15.6,7,15.8c3.1,0.1,10.5-15.1,11.8-17
			s2.4-1.6,3.2-0.2s8.7,18.8,9.2,20.2s2.2,1.3,3-0.1s9.6-14.3,10.5-15.2c1.4-1.4,3.4-2,4.9,0.5c2.3,3.8,5.5,20.2,8.3,20.4
			c3.1,0.3,11.3-13.4,12.2-15s3-3.4,4.6-0.4s3.4,10.8,3.9,13s1.2,8,2.9,8.4s3.7-2.2,5.6-4.6s7.8-8.4,8.7-9.2s3.7-2.3,4.6,1
			s2.2,11.8,2.5,14.1c0.4,3.2,0.6,6.2,1.8,6.5s7.3-4.9,8.8-6c2.1-1.5,4.3-2.8,6.6-3.9c2-0.8,3.1-0.8,4-0.1c0.7,0.5,1.4,1,1.1,3.1
			c0,0-13.9,47.3-17.6,63.3s-10.2,54.4-11.8,68.6s-4.5,40.8-3.5,47.7c5,0.9,10.8,5.2,13.2,8.8s2.7,13.4,2.2,17.7
			c-0.8,5.9-6.3,9.3-10,11.2s-10.8,2.3-10.8,2.3s-0.1,24.7,0.8,32.7c1.1,9,3,20.1,5.7,25c-1.6,3.7-3.9,7.1-6.9,9.9
			c-5.2,4.3-10.9,8-17,11c-4.4,2-14.6,5.9-24,6.2s-21.2-0.4-26.7-1.7s-12.1-3-15.9-4.3c0.1-4,0-10.1-1-13.5s-2-6.4-4.8-8.5
			s-5.7-1.6-7.8-1.9c-3.8-0.4-7.5-2.9-9.9-5.7c-2.9-3.5-2.8-5.4-2.8-9.4c-3.8,0-17.5,0.1-23.5-0.2s-19.3-0.5-25.7-1.8
			c-8.1-1.8-16-4.3-23.6-7.4c-4.9-2.3-10.5-6.3-12.4-9c-2.1-3-2.4-5.4-2.3-9.6c0.1-2.9,2.8-6.1,3.9-10.9s3.3-11.2,4-15.9
			c0.7-3.9,1.2-7.9,1.4-11.8c0.1-2.6,2.7-3.7,2.7-3.7s-2-0.9-3.4-4.6c-1.4-3.5-1.4-7.4,0.2-10.8c1-2.2,2.5-4,4.4-5.4l-0.3-0.1
			c2.4-2.5,4-3.1,7.1-4.1c5-1.6,14.3,0,19.2,0.4c8.8,0.6,18.7,1.2,26.2,0.1c1.2-0.2,2.3-0.7,3.3-1.4c8.2,15.6,24.4,25.3,42,25.3
			c26.1,0,47.3-20.9,47.3-46.7s-21.2-46.7-47.3-46.7c-14.1,0-27.5,6.2-36.5,17c-8.5-10.8-21.6-17.1-35.4-17
			C110.3,138.9,98.7,142.5,93.7,149.1z"/>
	</g>
</g>
</svg>
