<?xml version="1.0" encoding="utf-8"?>
<!-- Generator: Adobe Illustrator 24.0.2, SVG Export Plug-In . SVG Version: 6.00 Build 0)  -->
<svg version="1.1" id="Layer_1" xmlns="http://www.w3.org/2000/svg" xmlns:xlink="http://www.w3.org/1999/xlink" x="0px" y="0px"
	 viewBox="0 0 396.3 362.8" style="enable-background:new 0 0 396.3 362.8;" xml:space="preserve">
<style type="text/css">
	.st0{fill:url(#SVGID_1_);}
	.st1{opacity:0.43;fill:none;stroke:url(#depth_1_);stroke-width:2.08;stroke-miterlimit:10;}
</style>
<title>cassette</title>
<g id="cassette">
	<linearGradient id="SVGID_1_" gradientUnits="userSpaceOnUse" x1="55.7633" y1="313.2766" x2="335.6679" y2="33.3721">
		<stop  offset="0" style="stop-color:#F8F423"/>
		<stop  offset="0.15" style="stop-color:#F8F025"/>
		<stop  offset="0.29" style="stop-color:#F8E52C"/>
		<stop  offset="0.43" style="stop-color:#F8D236"/>
		<stop  offset="0.57" style="stop-color:#F8B746"/>
		<stop  offset="0.7" style="stop-color:#F89559"/>
		<stop  offset="0.84" style="stop-color:#F76B71"/>
		<stop  offset="0.97" style="stop-color:#F73A8D"/>
		<stop  offset="1" style="stop-color:#F72C95"/>
	</linearGradient>
	<path class="st0" d="M371.9,208.4c-0.1-2.1-1.5-2.4-1.5-2.4s0.2-129.3,0.2-132.4s-0.4-5.4-2.8-8S363,63,363,63h-8.9L52.8,62.7
		c0,0-16-0.1-20.9-0.1s-6.4,0.9-8.6,3.1s-2.1,5.7-2.1,5.7s-0.1,132.6-0.1,135.5c-1.2-0.1-1.9,2.2-1.9,2.2s0,51.3,0.1,53.8
		s1.7,2.7,1.7,2.7s0.1,5.8,0.2,8.2c0,1.5,0.2,2.9,0.5,4.4c0,0,1.4,2,3.1,4.1c0.8,1.1,2,1.9,3.4,2.3c0,0,44.2,0.1,45.7-0.1
		c0.3,1,2.2,1.1,2.2,1.1l241.1-0.6c0.7,0,1.2-0.4,1.5-0.9c0,0,40.1,0.2,43.1,0.2s4.3-1.1,4.3-1.1l4.8-5.7c0,0-0.1-11.3-0.1-12.9
		c1.4,0,1.1-2.4,1.1-2.4S372,210.5,371.9,208.4z M111.6,279.9c-4.2,0-7.7-3.4-7.7-7.7s3.4-7.7,7.7-7.7s7.7,3.4,7.7,7.7l0,0
		C119.2,276.4,115.8,279.9,111.6,279.9z M121.8,183c-10.8,0-19.6-8.8-19.6-19.6c0-10.8,8.8-19.6,19.6-19.6s19.6,8.8,19.6,19.6
		c0,0,0,0,0,0C141.3,174.2,132.6,183,121.8,183z M154.1,268.7c0,2.8-2.2,5-5,5c0,0,0,0-0.1,0h-4.3c-2.8,0-5-2.2-5-4.9c0,0,0,0,0-0.1
		v-3.1c0-2.8,2.2-5,4.9-5c0,0,0.1,0,0.1,0h4.3c2.8,0,5,2.2,5.1,4.9c0,0,0,0.1,0,0.1V268.7z M232.9,167.8h-74.8v-24.3h74.8
		L232.9,167.8z M252.2,268.7c0,2.8-2.2,5-5,5c0,0,0,0-0.1,0h-4.3c-2.8,0-5-2.2-5-4.9c0,0,0,0,0-0.1v-3.1c0-2.8,2.2-5,4.9-5
		c0,0,0.1,0,0.1,0h4.3c2.8,0,5,2.2,5.1,4.9c0,0,0,0.1,0,0.1V268.7z M280,279.9c-4.2,0-7.7-3.4-7.7-7.7c0-4.2,3.4-7.7,7.7-7.7
		c4.2,0,7.7,3.4,7.7,7.7l0,0C287.7,276.4,284.2,279.9,280,279.9z M269.2,183.2c-10.8,0-19.6-8.8-19.6-19.6
		c0-10.8,8.8-19.6,19.6-19.6c10.8,0,19.6,8.8,19.6,19.6C288.8,174.4,280,183.2,269.2,183.2C269.2,183.2,269.2,183.2,269.2,183.2z"/>
	
		<linearGradient id="depth_1_" gradientUnits="userSpaceOnUse" x1="158.1386" y1="29.564" x2="240.0803" y2="171.4911" gradientTransform="matrix(1 0 0 -1 0 364)">
		<stop  offset="0" style="stop-color:#FEC157"/>
		<stop  offset="0.3442" style="stop-color:#F9A661"/>
		<stop  offset="0.6106" style="stop-color:#F0645F"/>
		<stop  offset="1" style="stop-color:#DD1E47"/>
	</linearGradient>
	<path id="depth" class="st1" d="M77.3,263.1l7.7-29c0.5-2.4,2.6-4.1,5.1-4.1l212.2,0.2c2.4,0,4.5,1.7,5.1,4l12.4,45
		c0.7,2.8-1.1,5.6-3.9,6.3c-0.4,0.1-0.8,0.1-1.2,0.1H77.5c-2.9,0-5.2-2.4-5.2-5.2c0-0.4,0-0.8,0.1-1.2L77.3,263.1z"/>
</g>
</svg>
