<svg xmlns="http://www.w3.org/2000/svg" xmlns:xlink="http://www.w3.org/1999/xlink" viewBox="0 0 396.26 362.81"><defs><style>.cassettecls-1{fill:#70c38b;}.cassettecls-2{fill:none;stroke-miterlimit:10;stroke-width:2.08px;stroke:url(#linear-gradient);}</style><linearGradient id="linear-gradient" x1="196.07" y1="286.76" x2="196.07" y2="228.98" gradientUnits="userSpaceOnUse"><stop offset="0" stop-color="#70c38b"/><stop offset="0.03" stop-color="#78c691" stop-opacity="0.94"/><stop offset="0.29" stop-color="#b1dec0" stop-opacity="0.54"/><stop offset="0.51" stop-color="#dbf0e2" stop-opacity="0.25"/><stop offset="0.66" stop-color="#f5fbf7" stop-opacity="0.07"/><stop offset="0.75" stop-color="#fff" stop-opacity="0"/><stop offset="1" stop-color="#fff" stop-opacity="0"/></linearGradient></defs><title>cassette</title><g id="cassette"><path class="cassettecls-1" d="M371.9,208.4c-.06-2.07-1.48-2.42-1.48-2.42s.23-129.32.23-132.45-.35-5.38-2.83-8S363,63,363,63h-8.92L52.83,62.72s-15.95-.06-20.92-.06-6.44.94-8.56,3.07-2.13,5.73-2.13,5.73-.12,132.63-.12,135.46c-1.18-.06-1.89,2.19-1.89,2.19s0,51.34.06,53.76S21,265.58,21,265.58s.12,5.79.18,8.16a24.21,24.21,0,0,0,.53,4.37s1.36,2,3.07,4.08a6.09,6.09,0,0,0,3.37,2.3s44.19.06,45.67-.06c.35,1,2.18,1.06,2.18,1.06l241.15-.59a1.71,1.71,0,0,0,1.54-.94s40.11.23,43.06.17S366,283,366,283l4.78-5.67s-.06-11.28-.06-12.94c1.36,0,1.13-2.36,1.13-2.36S372,210.47,371.9,208.4ZM111.55,279.88a7.68,7.68,0,1,1,7.68-7.68A7.68,7.68,0,0,1,111.55,279.88ZM121.77,183a19.59,19.59,0,1,1,19.58-19.59A19.59,19.59,0,0,1,121.77,183Zm32.34,85.69a5,5,0,0,1-5.05,5h-4.25a5,5,0,0,1-5.05-5v-3.11a5,5,0,0,1,5.05-5.05h4.25a5,5,0,0,1,5.05,5.05Zm78.78-100.85H158.1V143.59h74.79Zm19.29,100.85a5,5,0,0,1-5.05,5h-4.26a5,5,0,0,1-5.05-5v-3.11a5,5,0,0,1,5.05-5.05h4.26a5,5,0,0,1,5.05,5.05ZM280,279.88a7.68,7.68,0,1,1,7.68-7.68A7.68,7.68,0,0,1,280,279.88ZM269.22,183.2a19.58,19.58,0,1,1,19.59-19.58A19.58,19.58,0,0,1,269.22,183.2Z"/><path id="depth" class="cassettecls-2" d="M77.28,263.13l7.7-29A5.2,5.2,0,0,1,90.07,230l212.2.22a5.23,5.23,0,0,1,5.07,4l12.39,45a5.22,5.22,0,0,1-5.09,6.44H77.46a5.22,5.22,0,0,1-5.07-6.39Z"/></g></svg>