<?xml version="1.0" encoding="utf-8"?>
<!-- Generator: Adobe Illustrator 24.0.2, SVG Export Plug-In . SVG Version: 6.00 Build 0)  -->
<svg version="1.1" id="drums" xmlns="http://www.w3.org/2000/svg" xmlns:xlink="http://www.w3.org/1999/xlink" x="0px" y="0px"
	 viewBox="0 0 396.3 362.8" style="enable-background:new 0 0 396.3 362.8;" xml:space="preserve">
<style type="text/css">
	.st0{fill:url(#rPink2_1_);}
	.st1{fill:url(#bottom_1_);}
	.st2{fill:#FFFFFF;stroke:url(#top_1_);stroke-width:2.62;stroke-miterlimit:10;}
	.st3{fill:url(#rPink_1_);}
	.st4{fill:#FFFFFF;}
	.st5{fill:url(#rPink2-2_1_);}
	.st6{fill:url(#rPink-2_1_);}
</style>
<title>drum</title>
<g id="drums_1_">
	<linearGradient id="rPink2_1_" gradientUnits="userSpaceOnUse" x1="330.8591" y1="307.4654" x2="350.7914" y2="295.9575">
		<stop  offset="0" style="stop-color:#B2D235"/>
		<stop  offset="0.15" style="stop-color:#B2D235"/>
		<stop  offset="0.3001" style="stop-color:#B2D235"/>
		<stop  offset="0.43" style="stop-color:#75C26D"/>
		<stop  offset="0.57" style="stop-color:#66BF6D"/>
		<stop  offset="0.7" style="stop-color:#5CB3AD"/>
		<stop  offset="0.84" style="stop-color:#5CB3AD"/>
		<stop  offset="0.9398" style="stop-color:#00AEEF"/>
		<stop  offset="1" style="stop-color:#0083CA"/>
	</linearGradient>
	<path id="rPink2" class="st0" d="M324.4,281.4l17.2,44.6c2.3,1.9,5.4,2.3,8.1,1.1c3.7-1.8,4.8-3.6,5.3-6.6L337.6,273"/>
	<linearGradient id="bottom_1_" gradientUnits="userSpaceOnUse" x1="79.2337" y1="286.7263" x2="367.009" y2="120.5792">
		<stop  offset="0" style="stop-color:#B2D235"/>
		<stop  offset="0.15" style="stop-color:#B2D235"/>
		<stop  offset="0.3001" style="stop-color:#B2D235"/>
		<stop  offset="0.43" style="stop-color:#75C26D"/>
		<stop  offset="0.57" style="stop-color:#66BF6D"/>
		<stop  offset="0.7" style="stop-color:#5CB3AD"/>
		<stop  offset="0.84" style="stop-color:#5CB3AD"/>
		<stop  offset="0.9398" style="stop-color:#00AEEF"/>
		<stop  offset="1" style="stop-color:#0083CA"/>
	</linearGradient>
	<path id="bottom" class="st1" d="M252.4,327.4c-14.4,2.7-28.9,4.4-43.5,5.1c-56.4,2.2-129.4-23.7-147-80c-0.1-0.2-0.1-0.5-0.2-0.8
		L40.1,159l331.3-30.9l-3.9,76.1C364.4,271,306.8,317.9,252.4,327.4z"/>
	<linearGradient id="top_1_" gradientUnits="userSpaceOnUse" x1="32.8" y1="129.005" x2="372.58" y2="129.005">
		<stop  offset="0" style="stop-color:#B2D235"/>
		<stop  offset="0.15" style="stop-color:#B2D235"/>
		<stop  offset="0.3001" style="stop-color:#B2D235"/>
		<stop  offset="0.43" style="stop-color:#75C26D"/>
		<stop  offset="0.57" style="stop-color:#66BF6D"/>
		<stop  offset="0.7" style="stop-color:#5CB3AD"/>
		<stop  offset="0.84" style="stop-color:#5CB3AD"/>
		<stop  offset="0.9398" style="stop-color:#00AEEF"/>
		<stop  offset="1" style="stop-color:#0083CA"/>
	</linearGradient>
	<path id="top" class="st2" d="M371.3,119.4c0,69.4-89.6,128.9-173.2,128.9S34.1,203.4,34.1,134S120.1,9.7,203.8,9.7
		S371.3,50,371.3,119.4z"/>
	<linearGradient id="rPink_1_" gradientUnits="userSpaceOnUse" x1="259.0768" y1="148.2778" x2="292.3678" y2="129.0573">
		<stop  offset="0" style="stop-color:#B2D235"/>
		<stop  offset="0.15" style="stop-color:#B2D235"/>
		<stop  offset="0.3001" style="stop-color:#B2D235"/>
		<stop  offset="0.43" style="stop-color:#75C26D"/>
		<stop  offset="0.57" style="stop-color:#66BF6D"/>
		<stop  offset="0.7" style="stop-color:#5CB3AD"/>
		<stop  offset="0.84" style="stop-color:#5CB3AD"/>
		<stop  offset="0.9398" style="stop-color:#00AEEF"/>
		<stop  offset="1" style="stop-color:#0083CA"/>
	</linearGradient>
	<path id="rPink" class="st3" d="M300.2,219.5c-1-2.2-46.6-128.3-47.2-130.3s-4.3-17.6-4.3-20.2c-1.2-0.8-2.1-2-2.6-3.4
		c-0.6-1.8-0.5-3.7,0.4-5.4c0.8-1,2.1-1.5,3.4-1.1c1.2,0.4,2.3,1.2,3.1,2.2c0.9,1,1.4,2.3,1.6,3.6c0.1,0.8,0.1,1.7,0,2.6
		c0.1,0.5,9.9,16.7,10.6,18.7s46.7,122.3,47.7,125.4C312.4,212.8,301.3,220,300.2,219.5z"/>
	<path id="rWhite" class="st4" d="M312.6,210.7c1.4,2.4,26.3,66.1,26.3,66.1s-9.4,10.9-11.5,12.2c-2.1-4.8-26.6-67.9-27.4-70.3
		C301.8,217.7,310.9,212,312.6,210.7z"/>
	<g id="Lstick">
		<linearGradient id="rPink2-2_1_" gradientUnits="userSpaceOnUse" x1="82.7826" y1="334.3462" x2="120.6424" y2="312.4878">
			<stop  offset="0" style="stop-color:#B2D235"/>
			<stop  offset="0.15" style="stop-color:#B2D235"/>
			<stop  offset="0.3001" style="stop-color:#B2D235"/>
			<stop  offset="0.43" style="stop-color:#75C26D"/>
			<stop  offset="0.57" style="stop-color:#66BF6D"/>
			<stop  offset="0.7" style="stop-color:#5CB3AD"/>
			<stop  offset="0.84" style="stop-color:#5CB3AD"/>
			<stop  offset="0.9398" style="stop-color:#00AEEF"/>
			<stop  offset="1" style="stop-color:#0083CA"/>
		</linearGradient>
		<path id="rPink2-2" class="st5" d="M115.1,302.9l-11.5,46.5c-2,2.1-5.1,2.9-7.9,2.1c-3.9-1.3-5.2-3-6.1-5.9l11.4-49.3"/>
		<linearGradient id="rPink-2_1_" gradientUnits="userSpaceOnUse" x1="91.7298" y1="187.5129" x2="195.7172" y2="127.4758">
			<stop  offset="0" style="stop-color:#B2D235"/>
			<stop  offset="0.15" style="stop-color:#B2D235"/>
			<stop  offset="0.3001" style="stop-color:#B2D235"/>
			<stop  offset="0.43" style="stop-color:#75C26D"/>
			<stop  offset="0.57" style="stop-color:#66BF6D"/>
			<stop  offset="0.7" style="stop-color:#5CB3AD"/>
			<stop  offset="0.84" style="stop-color:#5CB3AD"/>
			<stop  offset="0.9398" style="stop-color:#00AEEF"/>
			<stop  offset="1" style="stop-color:#0083CA"/>
		</linearGradient>
		<path id="rPink-2" class="st6" d="M131.4,238.7c0.7-2.3,30.3-133.1,30.6-135.1s2-18,1.7-20.6c1.1-1,1.8-2.3,2.1-3.7
			c0.4-1.8,0-3.7-1.1-5.3c-0.9-0.9-2.3-1.2-3.5-0.8c-1.2,0.6-2.1,1.5-2.8,2.6c-0.7,1.1-1.1,2.5-1.1,3.8c0.1,0.8,0.2,1.7,0.3,2.5
			c0,0.5-7.8,17.8-8.2,19.9s-31.1,127.1-31.8,130.4C118.5,233.5,130.4,239.3,131.4,238.7z"/>
		<path id="rWhite-2" class="st4" d="M117.7,232.4c-0.8,2.8-18,69.6-18,69.6s11.4,7.5,13.6,8.5c1.5-5.1,18.1-70.8,18.5-73.3
			C129.8,236.6,119.5,233.4,117.7,232.4z"/>
	</g>
</g>
</svg>
