<svg xmlns="http://www.w3.org/2000/svg" id="drums" viewBox="0 0 396.26 362.81"><defs><style>.drumscls-1{fill:#e378af;}.cls-2,.cls-3{fill:#fff;}.cls-2{stroke:#e378af;stroke-miterlimit:10;stroke-width:2.62px;}</style></defs><title>drum</title><g id="drums"><path id="rPink2" class="cls-1" d="M324.39,281.35,341.56,326a7.85,7.85,0,0,0,8.11,1.09c3.73-1.76,4.76-3.59,5.34-6.6l-17.45-47.45"/><path id="bottom" class="cls-1" d="M252.36,327.37a306.71,306.71,0,0,1-43.53,5.09c-56.45,2.18-129.45-23.72-147-80a6.46,6.46,0,0,1-.18-.76L40.06,159l331.32-30.85-3.89,76.07C364.37,271.05,306.75,317.93,252.36,327.37Z"/><path id="top" class="cls-2" d="M371.27,119.42c0,69.42-89.62,128.85-173.23,128.85S34.11,203.43,34.11,134,120.13,9.74,203.75,9.74,371.27,50,371.27,119.42Z"/><path id="rPink" class="cls-1" d="M300.22,219.54c-1-2.17-46.61-128.3-47.19-130.3S248.77,71.62,248.77,69a6.81,6.81,0,0,1-2.57-3.39,6.9,6.9,0,0,1,.42-5.4A3.22,3.22,0,0,1,250,59.06a6.63,6.63,0,0,1,3.11,2.2,7.35,7.35,0,0,1,1.6,3.63,20.12,20.12,0,0,1,0,2.55c.08.5,9.9,16.73,10.63,18.74S312,208.46,313.08,211.6C312.41,212.75,301.33,220,300.22,219.54Z"/><path id="rWhite" class="cls-3" d="M312.58,210.74c1.42,2.45,26.26,66.1,26.26,66.1s-9.43,10.9-11.52,12.23c-2.08-4.84-26.64-67.94-27.35-70.32C301.81,217.74,310.87,212,312.58,210.74Z"/><g id="Lstick"><path id="rPink2-2" data-name="rPink2" class="cls-1" d="M115.13,302.94l-11.49,46.47a7.83,7.83,0,0,1-7.9,2.09c-3.92-1.29-5.17-3-6.13-5.89L101,296.36"/><path id="rPink-2" data-name="rPink" class="cls-1" d="M131.43,238.69c.72-2.28,30.3-133.09,30.63-135.15s2-18,1.72-20.59a6.82,6.82,0,0,0,2.13-3.67A7,7,0,0,0,164.82,74a3.25,3.25,0,0,0-3.49-.75,6.79,6.79,0,0,0-2.82,2.57,7.39,7.39,0,0,0-1.13,3.81,19.28,19.28,0,0,0,.34,2.52c0,.51-7.75,17.84-8.22,19.92s-31.11,127.13-31.82,130.39C118.48,233.47,130.38,239.27,131.43,238.69Z"/><path id="rWhite-2" data-name="rWhite" class="cls-3" d="M117.68,232.41c-.82,2.83-18,69.63-18,69.63s11.36,7.48,13.6,8.54c1.47-5.06,18.09-70.81,18.5-73.26C129.84,236.56,119.54,233.45,117.68,232.41Z"/></g></g></svg>