<?xml version="1.0" encoding="utf-8"?>
<!-- Generator: Adobe Illustrator 24.0.2, SVG Export Plug-In . SVG Version: 6.00 Build 0)  -->
<svg version="1.1" id="Layer_1" xmlns="http://www.w3.org/2000/svg" xmlns:xlink="http://www.w3.org/1999/xlink" x="0px" y="0px"
	 viewBox="0 0 281 269" style="enable-background:new 0 0 281 269;" xml:space="preserve">
<style type="text/css">
	.st0{fill:url(#SVGID_1_);}
</style>
<g id="graphic-4">
	<linearGradient id="SVGID_1_" gradientUnits="userSpaceOnUse" x1="52.4" y1="134.45" x2="228.5015" y2="134.45">
		<stop  offset="0" style="stop-color:#0FF4E3"/>
		<stop  offset="0.5435" style="stop-color:#CBF90B"/>
		<stop  offset="0.5731" style="stop-color:#D0E61E"/>
		<stop  offset="0.6681" style="stop-color:#DDAD57"/>
		<stop  offset="0.7496" style="stop-color:#E78380"/>
		<stop  offset="0.8134" style="stop-color:#ED699A"/>
		<stop  offset="0.8518" style="stop-color:#EF60A3"/>
		<stop  offset="0.8863" style="stop-color:#DD5799"/>
		<stop  offset="0.9338" style="stop-color:#CB4E90"/>
		<stop  offset="0.9673" style="stop-color:#C44B8C"/>
	</linearGradient>
	<path class="st0" d="M217.2,10H63.8c-6.3,0-11.4,5.1-11.4,11.4v226.1c0,6.3,5.1,11.4,11.4,11.4h113.9c28.1,0,50.8-22.8,50.8-50.9
		V21.4C228.6,15.1,223.5,10,217.2,10z M75,46.3c0-5.5,4.5-10.1,10-10.1l0,0h110.8c5.6,0,10.1,4.5,10.1,10l0,0v62
		c0,5.6-4.5,10.1-10.1,10.1H85.1c-5.6,0-10.1-4.5-10.1-10.1V46.3z M128.4,195.2c0,2.6-2.1,4.8-4.8,4.8h-6.4c-2.6,0-4.8,2.1-4.8,4.8
		v6.4c0,2.6-2.1,4.8-4.8,4.8l0,0H91.5c-2.6,0-4.8-2.1-4.8-4.8l0,0v-6.3c0-2.6-2.1-4.8-4.8-4.8l0,0h-6.3c-2.6,0-4.8-2.2-4.8-4.8
		v-16.1c0-2.6,2.1-4.8,4.8-4.8l0,0H82c2.6,0,4.8-2.1,4.8-4.8l0,0v-6.3c0-2.6,2.1-4.8,4.8-4.8l0,0h16.1c2.6,0,4.8,2.1,4.8,4.8l0,0
		v6.3c0,2.6,2.2,4.7,4.8,4.7h6.3c2.6,0,4.8,2.1,4.8,4.8L128.4,195.2z M168.7,220.9c-6.9,0-12.5-5.6-12.5-12.5s5.6-12.5,12.5-12.5
		s12.5,5.6,12.5,12.5l0,0C181.2,215.3,175.6,220.9,168.7,220.9L168.7,220.9L168.7,220.9z M193.5,179.7c-6.9,0-12.5-5.6-12.5-12.5
		s5.6-12.5,12.5-12.5s12.5,5.6,12.5,12.5l0,0C205.9,174.1,200.4,179.7,193.5,179.7C193.4,179.7,193.4,179.7,193.5,179.7L193.5,179.7
		z"/>
</g>
</svg>
