<svg xmlns="http://www.w3.org/2000/svg" viewBox="0 0 396.26 362.81"><defs><style>.cls-1{fill:#e478af;}.cls-2,.cls-3{fill:#fff;}.cls-3{stroke:#e378af;stroke-miterlimit:10;stroke-width:2px;}</style></defs><title>guitar</title><g id="Guitar"><path id="guitar-2" data-name="guitar" class="cls-1" d="M315.39,63.31,215.87,200.19s-3,3.62-3.28,6.53c-.29,2.7-.24,6.36,2.26,8.52s6.75,5.69,8.68,5.5L250.15,218,272,216.39s3.31-.23,4.68.52,3.28,4,2.11,6.05a20.66,20.66,0,0,1-4.84,5.1c-1.3,1-29.37,19.78-29.37,19.78L208,271.91s-5.48,3.47-6.84,4.74a20.86,20.86,0,0,0-3.69,4.21,37.17,37.17,0,0,0-2.68,5.65c-.48,1.27-7.69,25.2-7.69,25.2l-9.63,30.66a9.52,9.52,0,0,1-1.41,2.86,5.18,5.18,0,0,1-3.29,2c-1.67.42-17.06-2.37-17.06-2.37s-35.39-8.57-38.29-9.33c-3.94-1-42.64-14-51.16-17.56S35.38,305,31.08,303s-13.58-6.24-17.42-9.42-1.85-5.56-1.21-6.26,6-2.89,7.89-3.79,24.09-10.13,26.09-11S84.27,256.67,88,255.31s30-12.66,32-13.64,11.63-4.5,13.74-6a28.38,28.38,0,0,0,7.22-7.91c1-2.08,8.94-16.35,8.94-16.35l8.78-15.6s2.29-4,4.26-5.09a7.44,7.44,0,0,1,6-.45c2.49.71,6.84,2.6,8.63,3s9.09.91,11.34.36a13.47,13.47,0,0,0,6.85-4.53c1.31-1.59,106.37-137.4,106.37-137.4a9.42,9.42,0,0,0,1.63-4.41,16.84,16.84,0,0,0-.59-5.6c-.38-1.56-2-6.06-2-6.06l35.68-10.56S355,19.39,357.25,19a35,35,0,0,1,6.8-.69,14,14,0,0,1,6.51,1.81A18.28,18.28,0,0,1,375.69,24a3.52,3.52,0,0,1,.2,4.1,5.74,5.74,0,0,1-3.47,2.64c-1.8.6-6.55,1.65-9.39,2.66a114.93,114.93,0,0,0-11.1,4.46c-1.88.93-12.17,6.08-15.35,8.35-3,2.13-11.24,7.67-12.88,9.08A66.83,66.83,0,0,0,315.39,63.31Z"/><g id="bridge_guards"><path id="pick_guard" class="cls-2" d="M174.81,219.18l20.92,15.46A2.49,2.49,0,0,0,197,235c.83,0,1.26-.35,1.94-1.27s6.95-14.63,6.95-14.63,5.21,4.13,7.94,4.71a63.41,63.41,0,0,0,10.7,1.1c1.61-.12,11.59-1.16,11.59-1.16l19.6-2.28,17-2.1s2.25-.08,3,.65a2.63,2.63,0,0,1,.78,3.23,12.82,12.82,0,0,1-2.67,2.46c-.92.64-98.52,64.07-98.52,64.07l-9.66-7.2,14.57-28.33-20.07-15.12Z"/><rect id="pickUp1" class="cls-3" x="144.11" y="241.79" width="37.14" height="19.72" rx="2.62" transform="translate(180.15 -47.5) rotate(36.22)"/><rect id="pickUp2" class="cls-3" x="169.05" y="208.39" width="37.14" height="18.46" rx="2.62" transform="translate(164.86 -68.81) rotate(36.22)"/><rect id="bridge" class="cls-2" x="123.05" y="273.24" width="41.29" height="8.17" rx="4.08" transform="translate(191.65 -31.32) rotate(36.22)"/></g></g></svg>