<?xml version="1.0" encoding="utf-8"?>
<!-- Generator: Adobe Illustrator 24.1.1, SVG Export Plug-In . SVG Version: 6.00 Build 0)  -->
<svg version="1.1" id="Layer_1" xmlns="http://www.w3.org/2000/svg" xmlns:xlink="http://www.w3.org/1999/xlink" x="0px" y="0px"
	 width="281px" height="269px" viewBox="0 0 281 269" style="enable-background:new 0 0 281 269;" xml:space="preserve">
<style type="text/css">
	.st0{fill:#22EAE0;}
</style>
<g id="graphic-7">
	<path class="st0" d="M262.4,134.2c0.1-5.4-0.2-10.8-1-16.1c-1.9-11.6-5.8-22.9-11.5-33.2c-6.9-12.1-16.2-22.8-27.2-31.4
		c-5.2-4.1-10.6-7.8-16.3-11.2c-2.4-1.5-2.3-1.4,0-3c1.5-0.9,3.1-1.7,4.7-2.2c7.7-3,15.6-5.1,23.9-3.9c6.9,1,12.6,5,14.2,12.7
		c1,5.6,0.7,11.4-0.8,16.9c-0.8,2.4-0.3,5.1,1.3,7.1c0.5,0.7,1,1.4,1.5,2.1c0.5,0.7,1.4,2,2.8,1.8c1.4-0.1,1.8-1.5,2.1-2.6
		c2.6-9.2,4.5-18.4,3.3-28.1c-1.7-12.8-8.6-21.2-20.5-25.7c-10.6-3.9-21.5-3.9-32.6-2.7c-15.1,1.9-29.9,6.2-43.7,12.7
		c-1.6,0.8-3.5,1.2-5.3,1.2c-4.2-0.1-8.4,0.1-12.6,0.6c-11.5,1.1-22.7,3.7-33.5,7.8C83.7,47.6,61.6,68.7,49.9,95.8
		c-2.1,4.9-3.9,9.9-5.3,15c-0.3,1-0.6,2.2,0.6,2.8c1.2,0.6,2-0.4,2.5-1.2c5.6-7.5,11.9-14.5,18.8-20.8c5.2-4.7,10.7-8.9,16.5-12.7
		c4.5-2.7,9.2-5.2,14-7.4c-3.1,2.4-6.1,5-8.9,7.8c-7.7,7.4-15,15.3-21.8,23.6c-10.4,12.7-19.5,26.5-27.3,41
		c-5.4,9.8-9.9,20.1-13.7,30.6c-2.9,7.5-4.9,15.4-6.1,23.3c-0.4,3.4-0.3,6.8-0.8,10.1v12.9c0.3,1.9,0.5,3.9,0.4,5.9
		c0.4,7.5,3.7,14.5,9.1,19.6c7.4,7.2,16.9,9.1,26.9,8.8c8-0.4,16-1.8,23.6-4.3c4-1.2,8-2.6,11.9-4.3c2.4-1.1,2.6-2.6,0.4-4.2
		c-1.3-0.9-2.7-1.7-4.1-2.5c-1.6-1-3.7-1.3-5.5-0.6c-5.4,1.7-11.1,2.9-16.7,3.6c-5.5,0.9-11.1,0.5-16.4-1.3
		c-4.3-1.5-7.6-4.9-8.9-9.3c-1.1-3.7-1.3-7.7-0.6-11.5c1.7-10.2,6.2-19.7,12.9-27.4c1.5-1.8,2.3-1.6,3.4,0.4
		c5.9,10.6,13.4,20.2,22.3,28.5c21.6,20.6,51,30.9,80.7,28.3c9.4-0.6,18.8-2.1,27.9-4.4c20-5.2,38.1-16,52.2-31.2
		c9.6-10.6,17.2-22.9,22.2-36.4c1.3-3.4,0.5-4.6-3.1-4.6c-19.1,0-38.3,0-57.4,0c-2.1-0.1-4.1,1-5,2.9c-1.9,3.5-4.3,6.7-7.2,9.5
		c-12.9,12.4-28.5,15.6-45.2,11.3c-19.2-5.1-29.8-19-33.8-38c-1-4.8-0.8-4.9,4.2-4.9h143.7h3.8c1.1,0.1,2.1-0.5,2.5-1.5v-14.4
		C262.3,137.2,262.3,135.7,262.4,134.2z M196.3,121.8c-14.5,0-28.9,0-43.4,0c-14.5,0-28.9,0-43.4,0c-1.8,0-2.3-0.4-2-2.2
		c1.7-12.5,8.6-23.8,19-31c20.8-14.8,49.6-10,64.4,10.7c0.6,0.8,1.2,1.7,1.7,2.6c3.2,5.3,5.2,11.3,6,17.4
		C198.9,121.3,198.2,121.8,196.3,121.8z"/>
</g>
</svg>
