<?xml version="1.0" encoding="utf-8"?>
<!-- Generator: Adobe Illustrator 24.1.1, SVG Export Plug-In . SVG Version: 6.00 Build 0)  -->
<svg version="1.1" id="Layer_1" xmlns="http://www.w3.org/2000/svg" xmlns:xlink="http://www.w3.org/1999/xlink" x="0px" y="0px"
	 width="281px" height="269px" viewBox="0 0 281 269" style="enable-background:new 0 0 281 269;" xml:space="preserve">
<style type="text/css">
	.st0{fill:#22EAE0;}
</style>
<g id="graphic-8">
	<path class="st0" d="M251.3,107.2c-7.6-7.8-13.8-12.3-20.4-13.1c-6.6-0.7-21.9,2.6-41.1,1.9c-10.5-0.4-23.8-2.1-44-0.9
		c0-7.7,0.4-15.3,1.2-22.9c7.9,0,23.8,0,33.1-1.5c12.6-2,9.4-4.3,8-6.8c-1.4-2.5-20-14.4-27.3-8.2c-3.7,3-8.1,5-12.7,5.8
		c1.7-15.4,3.6-30.8,4.2-35.7c1.2-10.4-14-9.5-21.2-11.9c-7.2-2.4-27.7-8.3-11.7,2.4c13.5,8.9,10.8,62.8,9.6,80.4
		c-7.2,0.9-15.2,2.1-24,3.9c4.1-7.6,13.3-26,9.6-29.7c-4.6-4.7-25.3-9.3-32.2-7.7s7.7,4.7,10.5,9.1c2.4,3.7-2.7,25-4.4,31.9
		c-3.2,0.8-6.5,1.6-9.9,2.4c-49.8,13-34.4,9.7-49.4,5.6s-0.7,10.2,6.7,19.2s10.9,2.6,19.7-1.4c20.7-9.4,42.4-16.2,64.7-20.4
		c1.6,0.5,3.1,1.4,4.2,2.7c3.2,4.6,7.1,11.1,5.9,40s-1.2,23.9-3.3,23.7s-19.1-2.9-21.7-4.4c-2.6-1.5-0.2,6.9,16.6,18.3
		c2.7,2.1,5.8,3.6,9.1,4.3c-10.9,13.1-31.1,36.1-47.8,47.4c-18.7,12.7-29,11.8-24.2,13.5c13.3,5,26.7,9.1,53.7-13.7
		s80.3-83.7,75.3-93s-16.7-18.3-18.5-17.8c-1.9,0.5,3.2,15-9.8,31c-9,11.1-12.5,18.3-11.7,11.4c0.8-6.9,5.9-44.2,2.1-48.6
		c-3.7-4.4-8.9-8.2-17.5-11c-6.1-2-7.1-3.3-6.2-4.9c6.3-1,12.9-1.8,19.6-2.3c47.3-3.6,82.9,10.5,105.2,12.3
		C262.3,119.3,259,115,251.3,107.2z"/>
	<path class="st0" d="M188.7,123c-9.4-2.5-24.1-5.6-16.7,0c10.5,8.1,30.3,29.2,35.8,35.6c5.5,6.4,15.9,8.7,12.1-7.5
		C216.2,135,198.1,125.5,188.7,123z"/>
	<path class="st0" d="M80.9,161.7c4.1-18.9,2.5-30.3,2.5-30.3c-0.5-4.6-4.1,3.3-5.7,7.8c-1.6,4.5-12.8,16.2-15.7,17.3
		c-2.8,1.1,1.7,25.7,4.8,28.3S76.8,180.6,80.9,161.7z"/>
</g>
</svg>
