<svg xmlns="http://www.w3.org/2000/svg" viewBox="0 0 396.26 362.81"><defs><style>.cls-1{fill:#63c7cb;}.cls-2{fill:#fff;}.cls-3{fill:#414042;}</style></defs><title>keytard</title><g id="keytar"><path id="body" class="cls-1" d="M35.44,283.88,318.91,41.61l-1.31-1.54s-.38-.53,0-.89l3.31-2.84s.51-.25.74,0L323.11,38l5.7-4.94-1.37-1.6a.48.48,0,0,1,.08-.7L330.74,28a.56.56,0,0,1,.81,0l1.33,1.52L360,6.42a1.44,1.44,0,0,1,1.86.47c.91,1.07,0,4.54,0,5.42S361.6,20,361.6,20l-.21,6.43a2.52,2.52,0,0,1-.55,1.8c-.71,1-19.08,25.45-19.08,25.45a19,19,0,0,0-4.1.86c-1.59.63-5.08,1.92-6.3,2.64A51.78,51.78,0,0,0,325,61.35c-1.74,1.48-7.1,7.32-7.1,7.32l-41.08,44.51a18.57,18.57,0,0,0-1.54,5.07,34.86,34.86,0,0,0,.19,9.27c.3,1.59,1,4.94,2,6.55.81,1.26,11.81,7.47,17.06,9.48s20,7.55,22.65,8.47,23.68,6.84,25.68,7.11,1.59,1.61-.12,3.08S280.66,210.7,276,214.37s-25.13,19.4-30.18,23.16-33.05,24.3-36.77,27.15-31.32,22.6-35.79,25.87-37.47,26.21-42.88,30.17-48.2,33.92-50.92,34.95c-2.72.24-7.65-2.32-9-3.07-1.16-.66-23.25-13.51-27.9-16.29S22.52,324,20.5,322.45s-8.62-5.62-9.79-6.74-.87-1.53-.43-2.21,20.27-24.72,20.27-24.72A25.93,25.93,0,0,1,33,286C34,285,35.44,283.88,35.44,283.88Z"/><path id="keyboard" class="cls-2" d="M79.52,249.68l5.4-4.6s.6-.33,1.32.51c0,0-.89-.88-.29-1.39l5.47-4.69a1.11,1.11,0,0,1,1.32.26s-.52-1,0-1.4l5.4-4.59s.45-.58,1.38.49c0,0-.78-1-.14-1.56l5.34-4.58a.78.78,0,0,1,1.12.06A1,1,0,0,1,106,227c.54-.47,5.39-4.59,5.39-4.59a.87.87,0,0,1,1.27.24,1.12,1.12,0,0,1,.11-1.44l5.27-4.5s.61-.47,1.39.45c0,0-.65-1.07-.09-1.56s5.33-4.54,5.33-4.54.57-.56,1.32.31c0,0-.49-1,.08-1.51s5.16-4.44,5.16-4.44a1.16,1.16,0,0,1,1.4.31s-.57-1,.08-1.58l5.48-4.65s.51-.34,1.17.42c0,0-.72-.85,0-1.43s5.38-4.57,5.38-4.57a.87.87,0,0,1,1.11.21,1,1,0,0,1,.17-1.33l5.3-4.54a.7.7,0,0,1,1.07.12,1,1,0,0,1,.16-1.18c.56-.49,5.56-4.73,5.56-4.73a.87.87,0,0,1,1,.26,1.08,1.08,0,0,1,.33-1.39c.79-.66,5.05-4.3,5.05-4.3a1,1,0,0,1,1.36.07,1.21,1.21,0,0,1,.21-1.42l5.34-4.52a.93.93,0,0,1,1.16.24,1.23,1.23,0,0,1,.3-1.52l5.22-4.45a.89.89,0,0,1,1.21.16s-.47-.8.07-1.27,5.21-4.45,5.21-4.45.75-.49,1.23.07c0,.05-.34-.82.16-1.26s5.42-4.62,5.42-4.62.55-.51,1,0a1.19,1.19,0,0,1,.43-1.2l5.18-4.43s.56-.49.9-.13a1.58,1.58,0,0,1,.55-1.14c.59-.49,5.32-4.55,5.32-4.55a.8.8,0,0,1,1,.16.83.83,0,0,1,.12-1.09c.56-.47,5.41-4.64,5.41-4.64s.54-.47.9-.07a1.32,1.32,0,0,1,.59-1.19l5.3-4.55s.68-.37,1.05.07a1,1,0,0,1,.21-1.16l5.43-4.62s.55-.4.85-.07c0,0-.26-.45.44-1s5.25-4.48,5.25-4.48.39-.42,1,.23l13.61,16,17.55,20.55L71.76,320.3,40.51,285.82l-.95-1.07a.76.76,0,0,1,0-.93l5.26-4.48a.77.77,0,0,1,1.06.14,1.37,1.37,0,0,1,.35-1.34l5.3-4.55s.61-.43,1.25.33c0,0-.65-.86-.1-1.33L58.16,268a.69.69,0,0,1,1.06.11,1.14,1.14,0,0,1,.3-1.29L65,262.19a1,1,0,0,1,1.16.32,1,1,0,0,1,0-1.37l5.53-4.73s.42-.39,1.27.59c0,0-.78-1,0-1.7s5.15-4.42,5.15-4.42a1,1,0,0,1,1.17.2,1.11,1.11,0,0,1,.23-1.4"/><g id="keys_L-R" data-name="keys L-R"><rect id="key" class="cls-3" x="71.83" y="283.19" width="5.19" height="34.08" rx="0.78" transform="translate(-177.26 120.41) rotate(-40.53)"/><rect id="key-2" data-name="key" class="cls-3" x="79.46" y="276.67" width="5.19" height="34.08" rx="0.78" transform="translate(-171.19 123.8) rotate(-40.53)"/><rect id="key-3" data-name="key" class="cls-3" x="87.09" y="270.14" width="5.19" height="34.08" rx="0.78" transform="translate(-165.12 127.19) rotate(-40.53)"/><rect id="key-4" data-name="key" class="cls-3" x="98.6" y="260.3" width="5.19" height="34.08" rx="0.78" transform="translate(-155.96 132.31) rotate(-40.53)"/><rect id="key-5" data-name="key" class="cls-3" x="106.54" y="253.51" width="5.19" height="34.08" rx="0.78" transform="translate(-149.63 135.85) rotate(-40.53)"/><rect id="key-6" data-name="key" class="cls-3" x="118.18" y="243.56" width="5.19" height="34.08" rx="0.78" transform="translate(-140.37 141.02) rotate(-40.53)"/><rect id="key-7" data-name="key" class="cls-3" x="125.81" y="237.03" width="5.19" height="34.08" rx="0.78" transform="translate(-134.3 144.42) rotate(-40.53)"/><rect id="key-8" data-name="key" class="cls-3" x="133.51" y="230.45" width="5.19" height="34.08" rx="0.78" transform="translate(-128.18 147.84) rotate(-40.53)"/><rect id="key-9" data-name="key" class="cls-3" x="145.17" y="220.37" width="5.19" height="34.08" rx="0.78" transform="translate(-118.83 153) rotate(-40.53)"/><rect id="key-10" data-name="key" class="cls-3" x="152.99" y="213.68" width="5.19" height="34.08" rx="0.78" transform="translate(-112.61 156.47) rotate(-40.53)"/><rect id="key-11" data-name="key" class="cls-3" x="164.75" y="203.63" width="5.19" height="34.08" rx="0.78" transform="translate(-103.25 161.71) rotate(-40.53)"/><rect id="key-12" data-name="key" class="cls-3" x="172.26" y="197.21" width="5.19" height="34.08" rx="0.78" transform="translate(-97.28 165.04) rotate(-40.53)"/><rect id="key-13" data-name="key" class="cls-3" x="180.08" y="190.52" width="5.19" height="34.08" rx="0.78" transform="translate(-91.06 168.52) rotate(-40.53)"/><rect id="key-14" data-name="key" class="cls-3" x="191.86" y="180.94" width="5.19" height="34.08" rx="0.78" transform="translate(-82 173.88) rotate(-40.53)"/><rect id="key-15" data-name="key" class="cls-3" x="199.75" y="174.2" width="5.19" height="34.08" rx="0.78" transform="translate(-75.73 177.39) rotate(-40.53)"/><rect id="key-16" data-name="key" class="cls-3" x="211.51" y="164.14" width="5.19" height="34.08" rx="0.78" transform="translate(-66.37 182.62) rotate(-40.53)"/><rect id="key-17" data-name="key" class="cls-3" x="219.01" y="157.72" width="5.19" height="34.08" rx="0.78" transform="translate(-60.4 185.95) rotate(-40.53)"/><rect id="key-18" data-name="key" class="cls-3" x="226.58" y="151.25" width="5.19" height="34.08" rx="0.78" transform="translate(-54.38 189.32) rotate(-40.53)"/><rect id="key-19" data-name="key" class="cls-3" x="238.28" y="141.25" width="5.19" height="34.08" rx="0.78" transform="translate(-45.07 194.52) rotate(-40.53)"/><rect id="key-20" data-name="key" class="cls-3" x="246.29" y="134.4" width="5.19" height="34.08" rx="0.78" transform="translate(-38.69 198.09) rotate(-40.53)"/><polygon class="cls-1" points="71.74 320.4 76.95 326.58 269.81 162.4 263.75 156 71.74 320.4"/></g></g></svg>