<?xml version="1.0" encoding="utf-8"?>
<!-- Generator: Adobe Illustrator 24.0.2, SVG Export Plug-In . SVG Version: 6.00 Build 0)  -->
<svg version="1.1" id="Layer_1" xmlns="http://www.w3.org/2000/svg" xmlns:xlink="http://www.w3.org/1999/xlink" x="0px" y="0px"
	 viewBox="0 0 396.3 362.8" style="enable-background:new 0 0 396.3 362.8;" xml:space="preserve">
<style type="text/css">
	.st0{fill:url(#body_1_);}
	.st1{fill:#FFFFFF;}
	.st2{fill:#414042;}
	.st3{fill:url(#SVGID_1_);}
</style>
<title>keytard</title>
<g id="keytar">
	<linearGradient id="body_1_" gradientUnits="userSpaceOnUse" x1="9.8903" y1="180.971" x2="362.2644" y2="180.971">
		<stop  offset="0" style="stop-color:#00AAAD"/>
		<stop  offset="0.2096" style="stop-color:#41B1C2"/>
		<stop  offset="0.4078" style="stop-color:#AB4A9C"/>
		<stop  offset="0.6088" style="stop-color:#AB4A9C"/>
		<stop  offset="0.7042" style="stop-color:#CC559F"/>
		<stop  offset="0.7964" style="stop-color:#E65DA2"/>
		<stop  offset="0.8518" style="stop-color:#EF60A3"/>
		<stop  offset="0.9673" style="stop-color:#EF60A3"/>
	</linearGradient>
	<path id="body" class="st0" d="M35.4,283.9L318.9,41.6l-1.3-1.5c0,0-0.4-0.5,0-0.9l3.3-2.8c0,0,0.5-0.3,0.7,0l1.5,1.7l5.7-4.9
		l-1.4-1.6c-0.2-0.2-0.2-0.5,0.1-0.7c0,0,0,0,0,0l3.2-2.8c0.2-0.2,0.6-0.2,0.8,0c0,0,0,0,0,0l1.3,1.5L360,6.4
		c0.6-0.3,1.4-0.1,1.9,0.5c0.9,1.1,0,4.5,0,5.4s-0.3,7.7-0.3,7.7l-0.2,6.4c0.1,0.6-0.1,1.3-0.5,1.8c-0.7,1-19.1,25.5-19.1,25.5
		c-1.4,0.1-2.8,0.4-4.1,0.9c-1.6,0.6-5.1,1.9-6.3,2.6c-2.2,1.2-4.3,2.6-6.4,4.2c-1.7,1.5-7.1,7.3-7.1,7.3l-41.1,44.5
		c-0.8,1.6-1.3,3.3-1.5,5.1c-0.3,3.1-0.3,6.2,0.2,9.3c0.3,1.6,1,4.9,2,6.6c0.8,1.3,11.8,7.5,17.1,9.5s20,7.6,22.6,8.5
		s23.7,6.8,25.7,7.1s1.6,1.6-0.1,3.1s-62.1,48.5-66.7,52.2s-25.1,19.4-30.2,23.2s-33.1,24.3-36.8,27.1s-31.3,22.6-35.8,25.9
		s-37.5,26.2-42.9,30.2s-48.2,33.9-50.9,35c-2.7,0.2-7.7-2.3-9-3.1c-1.2-0.7-23.3-13.5-27.9-16.3s-20-12.3-22.1-13.9
		s-8.6-5.6-9.8-6.7s-0.9-1.5-0.4-2.2s20.3-24.7,20.3-24.7c0.7-1,1.6-1.9,2.5-2.8C34,285,35.4,283.9,35.4,283.9z"/>
	<path id="keyboard" class="st1" d="M79.5,249.7l5.4-4.6c0,0,0.6-0.3,1.3,0.5c0,0-0.9-0.9-0.3-1.4l5.5-4.7c0.4-0.2,1-0.1,1.3,0.3
		c0,0-0.5-1,0-1.4l5.4-4.6c0,0,0.4-0.6,1.4,0.5c0,0-0.8-1-0.1-1.6l5.3-4.6c0.3-0.3,0.8-0.3,1.1,0c0,0,0,0,0,0
		c-0.2-0.4-0.2-0.9,0.2-1.2c0.5-0.5,5.4-4.6,5.4-4.6c0.4-0.3,0.9-0.2,1.2,0.2c0,0,0,0,0.1,0.1c-0.3-0.4-0.3-1.1,0.1-1.4l5.3-4.5
		c0,0,0.6-0.5,1.4,0.4c0,0-0.7-1.1-0.1-1.6s5.3-4.5,5.3-4.5s0.6-0.6,1.3,0.3c0,0-0.5-1,0.1-1.5s5.2-4.4,5.2-4.4
		c0.5-0.2,1.1-0.1,1.4,0.3c0,0-0.6-1,0.1-1.6l5.5-4.6c0,0,0.5-0.3,1.2,0.4c0,0-0.7-0.9,0-1.4s5.4-4.6,5.4-4.6
		c0.4-0.2,0.8-0.1,1.1,0.2c-0.3-0.4-0.2-1,0.2-1.3l5.3-4.5c0.3-0.3,0.7-0.3,1,0c0,0,0.1,0.1,0.1,0.1c-0.2-0.4-0.1-0.9,0.2-1.2
		c0.6-0.5,5.6-4.7,5.6-4.7c0.4-0.1,0.8,0,1,0.3c-0.3-0.5-0.1-1.1,0.3-1.4c0.8-0.7,5.1-4.3,5.1-4.3c0.4-0.3,1-0.3,1.4,0.1
		c-0.2-0.5-0.2-1,0.2-1.4l5.3-4.5c0.4-0.2,0.9-0.1,1.2,0.2c-0.3-0.5-0.1-1.1,0.3-1.5l5.2-4.4c0.4-0.3,0.9-0.2,1.2,0.2
		c0,0-0.5-0.8,0.1-1.3s5.2-4.4,5.2-4.4s0.8-0.5,1.2,0.1c0,0.1-0.3-0.8,0.2-1.3s5.4-4.6,5.4-4.6s0.6-0.5,1,0
		c-0.1-0.4,0.1-0.9,0.4-1.2l5.2-4.4c0,0,0.6-0.5,0.9-0.1c0-0.4,0.2-0.9,0.6-1.1c0.6-0.5,5.3-4.6,5.3-4.6c0.3-0.2,0.7-0.1,1,0.2
		c-0.2-0.3-0.2-0.8,0.1-1.1c0.6-0.5,5.4-4.6,5.4-4.6s0.5-0.5,0.9-0.1c0-0.5,0.2-0.9,0.6-1.2l5.3-4.6c0,0,0.7-0.4,1.1,0.1
		c-0.2-0.4-0.1-0.9,0.2-1.2l5.4-4.6c0,0,0.6-0.4,0.9-0.1c0,0-0.3-0.4,0.4-1s5.3-4.5,5.3-4.5s0.4-0.4,1,0.2l13.6,16l17.6,20.6
		L71.8,320.3l-31.3-34.5l-1-1.1c-0.2-0.3-0.2-0.7,0-0.9l5.3-4.5c0.3-0.2,0.8-0.2,1.1,0.1c-0.1-0.5,0-1,0.3-1.3l5.3-4.5
		c0,0,0.6-0.4,1.3,0.3c0,0-0.7-0.9-0.1-1.3l5.5-4.6c0.3-0.3,0.7-0.3,1,0c0,0,0.1,0.1,0.1,0.1c-0.2-0.4-0.1-1,0.3-1.3l5.5-4.6
		c0.4-0.2,0.9,0,1.2,0.3c-0.4-0.4-0.4-1,0-1.4l5.5-4.7c0,0,0.4-0.4,1.3,0.6c0,0-0.8-1,0-1.7s5.2-4.4,5.2-4.4
		c0.4-0.2,0.9-0.1,1.2,0.2C79,250.6,79.1,250,79.5,249.7"/>
	<g id="keys_L-R">
		<path id="key" class="st2" d="M62,288.5l2.8-2.4c0.3-0.3,0.8-0.2,1.1,0.1L87,310.9c0.3,0.3,0.2,0.8-0.1,1.1l-2.8,2.4
			c-0.3,0.3-0.8,0.2-1.1-0.1l-21.1-24.7C61.6,289.2,61.6,288.7,62,288.5z"/>
		<path id="key-2" class="st2" d="M69.6,281.9l2.8-2.4c0.3-0.3,0.8-0.2,1.1,0.1l21.1,24.7c0.3,0.3,0.2,0.8-0.1,1.1l-2.8,2.4
			c-0.3,0.3-0.8,0.2-1.1-0.1L69.5,283C69.2,282.7,69.3,282.2,69.6,281.9z"/>
		<path id="key-3" class="st2" d="M77.2,275.4l2.8-2.4c0.3-0.3,0.8-0.2,1.1,0.1l21.1,24.7c0.3,0.3,0.2,0.8-0.1,1.1l-2.8,2.4
			c-0.3,0.3-0.8,0.2-1.1-0.1l-21.1-24.7C76.9,276.2,76.9,275.7,77.2,275.4z"/>
		<path id="key-4" class="st2" d="M88.7,265.6l2.8-2.4c0.3-0.3,0.8-0.2,1.1,0.1l21.1,24.7c0.3,0.3,0.2,0.8-0.1,1.1l-2.8,2.4
			c-0.3,0.3-0.8,0.2-1.1-0.1l-21.1-24.7C88.4,266.3,88.4,265.9,88.7,265.6z"/>
		<path id="key-5" class="st2" d="M96.7,258.8l2.8-2.4c0.3-0.3,0.8-0.2,1.1,0.1l21.1,24.7c0.3,0.3,0.2,0.8-0.1,1.1l-2.8,2.4
			c-0.3,0.3-0.8,0.2-1.1-0.1l-21.1-24.7C96.3,259.6,96.4,259.1,96.7,258.8z"/>
		<path id="key-6" class="st2" d="M108.3,248.8l2.8-2.4c0.3-0.3,0.8-0.2,1.1,0.1l21.1,24.7c0.3,0.3,0.2,0.8-0.1,1.1l-2.8,2.4
			c-0.3,0.3-0.8,0.2-1.1-0.1l-21.1-24.7C108,249.6,108,249.1,108.3,248.8z"/>
		<path id="key-7" class="st2" d="M115.9,242.3l2.8-2.4c0.3-0.3,0.8-0.2,1.1,0.1l21.1,24.7c0.3,0.3,0.2,0.8-0.1,1.1l-2.8,2.4
			c-0.3,0.3-0.8,0.2-1.1-0.1l-21.1-24.7C115.6,243.1,115.6,242.6,115.9,242.3z"/>
		<path id="key-8" class="st2" d="M123.6,235.7l2.8-2.4c0.3-0.3,0.8-0.2,1.1,0.1l21.1,24.7c0.3,0.3,0.2,0.8-0.1,1.1l-2.8,2.4
			c-0.3,0.3-0.8,0.2-1.1-0.1l-21.1-24.7C123.3,236.5,123.3,236,123.6,235.7z"/>
		<path id="key-9" class="st2" d="M135.3,225.7l2.8-2.4c0.3-0.3,0.8-0.2,1.1,0.1l21.1,24.7c0.3,0.3,0.2,0.8-0.1,1.1l-2.8,2.4
			c-0.3,0.3-0.8,0.2-1.1-0.1l-21.1-24.7C134.9,226.4,135,225.9,135.3,225.7z"/>
		<path id="key-10" class="st2" d="M143.1,219l2.8-2.4c0.3-0.3,0.8-0.2,1.1,0.1l21.1,24.7c0.3,0.3,0.2,0.8-0.1,1.1l-2.8,2.4
			c-0.3,0.3-0.8,0.2-1.1-0.1L143,220.1C142.8,219.7,142.8,219.2,143.1,219z"/>
		<path id="key-11" class="st2" d="M154.9,208.9l2.8-2.4c0.3-0.3,0.8-0.2,1.1,0.1l21.1,24.7c0.3,0.3,0.2,0.8-0.1,1.1l-2.8,2.4
			c-0.3,0.3-0.8,0.2-1.1-0.1L154.8,210C154.5,209.7,154.6,209.2,154.9,208.9z"/>
		<path id="key-12" class="st2" d="M162.4,202.5l2.8-2.4c0.3-0.3,0.8-0.2,1.1,0.1l21.1,24.7c0.3,0.3,0.2,0.8-0.1,1.1l-2.8,2.4
			c-0.3,0.3-0.8,0.2-1.1-0.1l-21.1-24.7C162,203.3,162.1,202.8,162.4,202.5z"/>
		<path id="key-13" class="st2" d="M170.2,195.8l2.8-2.4c0.3-0.3,0.8-0.2,1.1,0.1l21.1,24.7c0.3,0.3,0.2,0.8-0.1,1.1l-2.8,2.4
			c-0.3,0.3-0.8,0.2-1.1-0.1l-21.1-24.7C169.8,196.6,169.9,196.1,170.2,195.8z"/>
		<path id="key-14" class="st2" d="M182,186.2l2.8-2.4c0.3-0.3,0.8-0.2,1.1,0.1l21.1,24.7c0.3,0.3,0.2,0.8-0.1,1.1l-2.8,2.4
			c-0.3,0.3-0.8,0.2-1.1-0.1l-21.1-24.7C181.6,187,181.7,186.5,182,186.2z"/>
		<path id="key-15" class="st2" d="M189.9,179.5l2.8-2.4c0.3-0.3,0.8-0.2,1.1,0.1l21.1,24.7c0.3,0.3,0.2,0.8-0.1,1.1l-2.8,2.4
			c-0.3,0.3-0.8,0.2-1.1-0.1l-21.1-24.7C189.5,180.3,189.6,179.8,189.9,179.5z"/>
		<path id="key-16" class="st2" d="M201.7,169.4l2.8-2.4c0.3-0.3,0.8-0.2,1.1,0.1l21.1,24.7c0.3,0.3,0.2,0.8-0.1,1.1l-2.8,2.4
			c-0.3,0.3-0.8,0.2-1.1-0.1l-21.1-24.7C201.3,170.2,201.3,169.7,201.7,169.4z"/>
		<path id="key-17" class="st2" d="M209.1,163l2.8-2.4c0.3-0.3,0.8-0.2,1.1,0.1l21.1,24.7c0.3,0.3,0.2,0.8-0.1,1.1l-2.8,2.4
			c-0.3,0.3-0.8,0.2-1.1-0.1l-21.1-24.7C208.8,163.8,208.8,163.3,209.1,163z"/>
		<path id="key-18" class="st2" d="M216.7,156.5l2.8-2.4c0.3-0.3,0.8-0.2,1.1,0.1l21.1,24.7c0.3,0.3,0.2,0.8-0.1,1.1l-2.8,2.4
			c-0.3,0.3-0.8,0.2-1.1-0.1l-21.1-24.7C216.4,157.3,216.4,156.8,216.7,156.5z"/>
		<path id="key-19" class="st2" d="M228.4,146.5l2.8-2.4c0.3-0.3,0.8-0.2,1.1,0.1l21.1,24.7c0.3,0.3,0.2,0.8-0.1,1.1l-2.8,2.4
			c-0.3,0.3-0.8,0.2-1.1-0.1l-21.1-24.7C228.1,147.3,228.1,146.8,228.4,146.5z"/>
		<path id="key-20" class="st2" d="M236.4,139.7l2.8-2.4c0.3-0.3,0.8-0.2,1.1,0.1l21.1,24.7c0.3,0.3,0.2,0.8-0.1,1.1l-2.8,2.4
			c-0.3,0.3-0.8,0.2-1.1-0.1l-21.1-24.7C236.1,140.5,236.1,140,236.4,139.7z"/>
		<linearGradient id="SVGID_1_" gradientUnits="userSpaceOnUse" x1="71.74" y1="241.29" x2="269.81" y2="241.29">
			<stop  offset="0" style="stop-color:#00AAAD"/>
			<stop  offset="0.3928" style="stop-color:#AB4A9C"/>
			<stop  offset="0.8249" style="stop-color:#AB4A9C"/>
			<stop  offset="0.8809" style="stop-color:#CC559F"/>
			<stop  offset="0.9349" style="stop-color:#E65DA2"/>
			<stop  offset="0.9673" style="stop-color:#EF60A3"/>
		</linearGradient>
		<polygon class="st3" points="71.7,320.4 76.9,326.6 269.8,162.4 263.8,156 		"/>
	</g>
</g>
</svg>
