<svg xmlns="http://www.w3.org/2000/svg" viewBox="0 0 396.26 362.81"><defs><style>.cls-1{fill:#70c38b;}</style></defs><title>mic</title><g id="mic"><g id="mouthpiece"><path class="cls-1" d="M250.17,161.75c-8.44,3.13-23,8.23-34.11,10.65-17.27,3.76-24.52,4.72-32.93,6.31-8,1.51-21.41,2.14-25.17,2.62l-3.5.32A1.71,1.71,0,0,1,153,181c-.55-.6-.87-1-1.18-3.52-.5-4.09,1.55-4.47,4.48-4.79,2.4-.27,22.38-2.35,27.46-3.32,3.81-.73,14.85-2.65,24-4.41a225.16,225.16,0,0,0,23.93-6.61c6.24-2,12.44-4.08,17.15-5.62-.23-1.4-.48-2.89-.75-4.46-8.26,2.53-23.13,6.94-34.52,9.42-17.27,3.75-24.52,4.71-32.93,6.3-8,1.51-21.09,2.73-24.84,3.21l-3.51.31a1.46,1.46,0,0,1-1.45-.39c-.55-.6-.92-1.29-1.23-3.76-.5-4.09,1.58-4,4.48-4.8,1.6-.48,23.37-3,27.14-3.9s14.86-2.65,24-4.41c7.48-1.44,17.35-4.23,23.18-5.76,4.85-1.26,12.52-4.11,18.1-5.54q-.3-1.76-.63-3.57c-8.16,1.88-24.08,5.54-36,8.13-17.27,3.76-24.52,4.72-32.92,6.3-8,1.51-21.09,3.32-24.85,3.8l-3.51.31a1.47,1.47,0,0,1-1.45-.39c-.55-.6-.92-1.29-1.22-3.76-.51-4.09,1.57-4,4.47-4.8,1.6-.48,23.37-3.64,27.14-4.49s18.06-3.93,23.17-4.73,17-3.91,22.95-4.92c4.13-.71,14.21-3.38,20.58-4.46q-.47-2.66-1-5.35c-8,1.81-24.46,5.45-36.68,7.65-17.38,3.13-24.5,4.33-32.92,6.3-8,1.86-20.85,3.93-24.61,4.41l-3.51.31a1.45,1.45,0,0,1-1.44-.39c-.55-.6-.93-1.29-1.23-3.76-.51-4.09,1.57-4,4.48-4.79,1.6-.48,23.12-4.26,26.9-5.11s18-3.93,23.17-4.73,17.24-3.3,23.18-4.31c4.24-.73,14.7-3.51,21-4.53-.28-1.52-.56-3-.83-4.55-7.76,1.07-25,3.51-37.6,5.79-17.39,3.13-24.5,4.32-32.92,6.3-8,1.86-21.66,4.58-24.86,5.43l-2.56.69a1.47,1.47,0,0,1-1.45-.4,7.58,7.58,0,0,1-1.53-4.28c-.51-4.09,1.57-4,4.47-4.8,1.6-.48,22.74-5.12,26.52-6s18-3.93,23.16-4.73,17.58-3.1,23.28-3.74c4.45-.5,15.67-2.4,21.9-2.93-.3-1.65-.6-3.28-.9-4.9-7.85.83-24.58,2.69-37,4.78-16.74,2.81-25.3,4.57-32.92,6.3-8,1.81-21.66,4.58-24.86,5.43l-2.56.69a1.47,1.47,0,0,1-1.45-.4,7.58,7.58,0,0,1-1.53-4.28c-.51-4.09,1.57-4,4.47-4.8,1.6-.48,22.74-5.12,26.52-6S187,91.81,192.09,91s17.57-3.1,23.27-3.74c4.37-.49,15.08-1.58,21.32-1.88q-.5-2.73-1-5.28c-5.28.16-23,.84-37.13,3.08-16.84,2.67-25.42,4.29-33.3,6.42s-21,5.65-24.2,6.5l-2.56.69a1.44,1.44,0,0,1-1.45-.4,7.58,7.58,0,0,1-1.53-4.28c-.51-4.09,1.57-4,4.48-4.8,1.59-.48,22.07-6.18,25.84-7s18.44-4.05,23.56-4.85,15.05-2.08,20.76-2.72c5.16-.58,19-1,24-.88-.42-2.27-.81-4.32-1.15-6.12-5.06.15-23,.82-37.3,3.08-16.84,2.67-25.42,4.29-33.31,6.42s-21,5.65-24.2,6.5l-2.56.69a1.45,1.45,0,0,1-1.45-.4c-.55-.6-1.22-1.82-1.53-4.28-.51-4.09,1.57-4,4.48-4.8,1.6-.48,22.07-6.18,25.84-7s18.44-4.05,23.56-4.85,15.06-2.08,20.76-2.72c5.21-.59,19.21-1,24.1-.88-.76-3.34-.76-5.49-2.49-10.37s-5.6-11.83-12-15.61c-5.18-3.06-17.86-4.74-21.11-5s-16.62-.69-21-.27-13.22,1.21-21.06,3.25a109.18,109.18,0,0,0-17,6.61,112.17,112.17,0,0,0-17,11c-4.45,3.62-9,11.36-10.44,15.25s-3.57,11.93-3.41,17.74,17.48,94.65,18,97.48a47.52,47.52,0,0,0,3.52,10.6c1.68,3.52,6.63,11.35,12.87,16.15s10.19,5.8,10.19,5.8l5.44,12s5.13,9,3.9,12.6.06,7.81,3.14,14.66a13.06,13.06,0,0,0,9.86,7.67l9.92,78,32.13-.16s-8.9-89.1-8.63-89.26,3.25-2.4,4.05-3.79a16,16,0,0,0,1.54-6.93C212,231.75,209,210.8,209,210.8a50.55,50.55,0,0,0,9.33-2.66c5.49-2.08,16.2-8.42,19.34-10.34S247.58,190,249,185.7s2.24-11.6,1.58-20.89C250.49,164.16,250.36,163.11,250.17,161.75Z"/></g></g></svg>