<?xml version="1.0" encoding="utf-8"?>
<!-- Generator: Adobe Illustrator 24.0.2, SVG Export Plug-In . SVG Version: 6.00 Build 0)  -->
<svg version="1.1" id="Layer_1" xmlns="http://www.w3.org/2000/svg" xmlns:xlink="http://www.w3.org/1999/xlink" x="0px" y="0px"
	 viewBox="0 0 396.3 362.8" style="enable-background:new 0 0 396.3 362.8;" xml:space="preserve">
<style type="text/css">
	.st0{fill:url(#SVGID_1_);}
</style>
<title>mic</title>
<g id="mic">
	<g id="mouthpiece">
		<linearGradient id="SVGID_1_" gradientUnits="userSpaceOnUse" x1="116.2062" y1="219.8548" x2="276.0047" y2="127.5951">
			<stop  offset="0" style="stop-color:#B2D235"/>
			<stop  offset="0.15" style="stop-color:#B2D235"/>
			<stop  offset="0.3001" style="stop-color:#B2D235"/>
			<stop  offset="0.43" style="stop-color:#75C26D"/>
			<stop  offset="0.57" style="stop-color:#66BF6D"/>
			<stop  offset="0.7" style="stop-color:#5CB3AD"/>
			<stop  offset="0.84" style="stop-color:#5CB3AD"/>
			<stop  offset="0.9398" style="stop-color:#00AEEF"/>
			<stop  offset="1" style="stop-color:#0083CA"/>
		</linearGradient>
		<path class="st0" d="M250.2,161.8c-8.4,3.1-23,8.2-34.1,10.6c-17.3,3.8-24.5,4.7-32.9,6.3c-8,1.5-21.4,2.1-25.2,2.6l-3.5,0.3
			c-0.6,0-1.1-0.2-1.5-0.6c-0.6-0.6-0.9-1-1.2-3.5c-0.5-4.1,1.6-4.5,4.5-4.8c2.4-0.3,22.4-2.4,27.5-3.3c3.8-0.7,14.9-2.6,24-4.4
			c8.1-1.8,16.1-4,23.9-6.6c6.2-2,12.4-4.1,17.1-5.6c-0.2-1.4-0.5-2.9-0.8-4.5c-8.3,2.5-23.1,6.9-34.5,9.4
			c-17.3,3.8-24.5,4.7-32.9,6.3c-8,1.5-21.1,2.7-24.8,3.2l-3.5,0.3c-0.5,0.1-1.1,0-1.4-0.4c-0.6-0.6-0.9-1.3-1.2-3.8
			c-0.5-4.1,1.6-4,4.5-4.8c1.6-0.5,23.4-3,27.1-3.9s14.9-2.6,24-4.4c7.5-1.4,17.4-4.2,23.2-5.8c4.9-1.3,12.5-4.1,18.1-5.5
			c-0.2-1.2-0.4-2.4-0.6-3.6c-8.2,1.9-24.1,5.5-36,8.1c-17.3,3.8-24.5,4.7-32.9,6.3c-8,1.5-21.1,3.3-24.9,3.8l-3.5,0.3
			c-0.5,0.1-1.1,0-1.4-0.4c-0.6-0.6-0.9-1.3-1.2-3.8c-0.5-4.1,1.6-4,4.5-4.8c1.6-0.5,23.4-3.6,27.1-4.5s18.1-3.9,23.2-4.7
			s17-3.9,22.9-4.9c4.1-0.7,14.2-3.4,20.6-4.5c-0.3-1.8-0.6-3.6-1-5.3c-8,1.8-24.5,5.4-36.7,7.6c-17.4,3.1-24.5,4.3-32.9,6.3
			c-8,1.9-20.9,3.9-24.6,4.4l-3.5,0.3c-0.5,0.1-1.1,0-1.4-0.4c-0.6-0.6-0.9-1.3-1.2-3.8c-0.5-4.1,1.6-4,4.5-4.8
			c1.6-0.5,23.1-4.3,26.9-5.1s18-3.9,23.2-4.7s17.2-3.3,23.2-4.3c4.2-0.7,14.7-3.5,21-4.5c-0.3-1.5-0.6-3-0.8-4.6
			c-7.8,1.1-25,3.5-37.6,5.8c-17.4,3.1-24.5,4.3-32.9,6.3c-8,1.9-21.7,4.6-24.9,5.4l-2.6,0.7c-0.5,0.1-1.1,0-1.4-0.4
			c-0.9-1.2-1.5-2.7-1.5-4.3c-0.5-4.1,1.6-4,4.5-4.8c1.6-0.5,22.7-5.1,26.5-6s18-3.9,23.2-4.7s17.6-3.1,23.3-3.7
			c4.4-0.5,15.7-2.4,21.9-2.9c-0.3-1.7-0.6-3.3-0.9-4.9c-7.9,0.8-24.6,2.7-37,4.8c-16.7,2.8-25.3,4.6-32.9,6.3
			c-8,1.8-21.7,4.6-24.9,5.4l-2.6,0.7c-0.5,0.1-1.1,0-1.4-0.4c-0.9-1.2-1.5-2.7-1.5-4.3c-0.5-4.1,1.6-4,4.5-4.8
			c1.6-0.5,22.7-5.1,26.5-6s18.1-3.9,23.2-4.7s17.6-3.1,23.3-3.7c4.4-0.5,15.1-1.6,21.3-1.9c-0.3-1.8-0.7-3.6-1-5.3
			c-5.3,0.2-23,0.8-37.1,3.1c-16.8,2.7-25.4,4.3-33.3,6.4s-21,5.7-24.2,6.5l-2.6,0.7c-0.5,0.1-1.1,0-1.4-0.4
			c-0.9-1.2-1.5-2.7-1.5-4.3c-0.5-4.1,1.6-4,4.5-4.8c1.6-0.5,22.1-6.2,25.8-7s18.4-4.1,23.6-4.8s15.1-2.1,20.8-2.7
			c5.2-0.6,19-1,24-0.9c-0.4-2.3-0.8-4.3-1.1-6.1c-5.1,0.2-23,0.8-37.3,3.1c-16.8,2.7-25.4,4.3-33.3,6.4s-21,5.7-24.2,6.5l-2.6,0.7
			c-0.5,0.1-1.1,0-1.4-0.4c-0.6-0.6-1.2-1.8-1.5-4.3c-0.5-4.1,1.6-4,4.5-4.8c1.6-0.5,22.1-6.2,25.8-7s18.4-4,23.6-4.8
			s15.1-2.1,20.8-2.7c5.2-0.6,19.2-1,24.1-0.9c-0.8-3.3-0.8-5.5-2.5-10.4s-5.6-11.8-12-15.6c-5.2-3.1-17.9-4.7-21.1-5
			s-16.6-0.7-21-0.3s-13.2,1.2-21.1,3.3c-5.8,1.7-11.5,3.9-17,6.6c-6,3.1-11.7,6.8-17,11c-4.4,3.6-9,11.4-10.4,15.3
			s-3.6,11.9-3.4,17.7s17.5,94.6,18,97.5c0.8,3.7,1.9,7.2,3.5,10.6c1.7,3.5,6.6,11.4,12.9,16.1s10.2,5.8,10.2,5.8l5.4,12
			c0,0,5.1,9,3.9,12.6s0.1,7.8,3.1,14.7c1.8,4.1,5.5,7,9.9,7.7l9.9,78l32.1-0.2c0,0-8.9-89.1-8.6-89.3s3.3-2.4,4.1-3.8
			c1-2.2,1.6-4.5,1.5-6.9c0.2-3.2-2.8-24.1-2.8-24.1c3.2-0.6,6.3-1.5,9.3-2.7c5.5-2.1,16.2-8.4,19.3-10.3s9.9-7.8,11.3-12.1
			s2.2-11.6,1.6-20.9C250.5,164.2,250.4,163.1,250.2,161.8z"/>
	</g>
</g>
</svg>
