<?xml version="1.0" encoding="utf-8"?>
<!-- Generator: Adobe Illustrator 24.1.1, SVG Export Plug-In . SVG Version: 6.00 Build 0)  -->
<svg version="1.1" id="Layer_1" xmlns="http://www.w3.org/2000/svg" xmlns:xlink="http://www.w3.org/1999/xlink" x="0px" y="0px"
	 width="281px" height="269px" viewBox="0 0 281 269" style="enable-background:new 0 0 281 269;" xml:space="preserve">
<style type="text/css">
	.st0{fill:#22EAE0;}
</style>
<g id="graphic-12">
	<path class="st0" d="M200.8,260c-6.8,0-16.8-1.4-19.7-10.5c-2.3-7.1,1.3-14.3,10.4-20.8c-2.5-4.3-6-9.7-10.7-16.5
		c-12.6,6.5-26.2,10.7-40.2,12.5c-35.6,4.7-65.7-5.5-76.5-26c-7-13-9.3-35.4,19.3-68.2c5.4-6.2,10.5-12.7,15.1-19.4
		c-12-13.4-21.5-23.6-26-28.1C49.6,60.5,63,28.1,73.2,14.1L77.8,8l7.4,1.9c1.6,0.4,39.3,10.5,49.5,43.3c5.1,16.4,2.3,34.9-8.4,55.3
		c6.4,7.3,13.3,15.2,20.1,23.4c20-7.7,44-10,59.4-1.8c13,6.8,18.3,19.7,14.6,35.4c-3.2,13.3-10.6,25.2-20.9,34.1
		c1.8,2.6,3.5,5.1,5.1,7.5c14.3,21.7,18.5,33.7,15,42.8c-2.3,5.9-8,9.9-14.3,10C204.1,259.9,202.5,260,200.8,260z M113.7,128.4
		c-4,5.5-8.5,11.1-13.5,16.9c-15.7,18-21.6,33.2-16.4,42.8c6.2,11.5,28.8,17.5,53.8,14.3c10.3-1.3,20.3-4.2,29.8-8.6
		c-6.6-8.7-14.6-18.9-24.4-30.8l-2.6-3.1c-2.1,1.4-4,3.1-5.7,4.9c-4.8,5.3-3.1,7.8-1.9,9.6c3.4,5.2,2,12.2-3.2,15.6
		c-5.2,3.4-12.2,2-15.6-3.2c-7.9-12-6.4-25.5,4.1-37.1c2.4-2.6,5.1-5,7.9-7C121.8,137.7,117.7,133,113.7,128.4L113.7,128.4z
		 M161.8,150.3l2.3,2.8c8.3,10.2,15.7,19.6,22.2,28.2c6-5.7,10.3-13,12.3-21c1.8-7.7-1.2-9.3-3.2-10.3
		C187.9,146,174.4,146.7,161.8,150.3L161.8,150.3z M87.2,34.5C83,42.9,78.4,57.1,88.3,67c4.1,4.1,11.9,12.3,21.7,23.2
		c4.7-11.5,5.8-21.6,3.2-30.2C108.9,46.2,95.7,38.3,87.2,34.5z"/>
</g>
</svg>
