<?xml version="1.0" encoding="utf-8"?>
<!-- Generator: Adobe Illustrator 24.1.1, SVG Export Plug-In . SVG Version: 6.00 Build 0)  -->
<svg version="1.1" id="Layer_1" xmlns="http://www.w3.org/2000/svg" xmlns:xlink="http://www.w3.org/1999/xlink" x="0px" y="0px"
	 width="281px" height="269px" viewBox="0 0 281 269" style="enable-background:new 0 0 281 269;" xml:space="preserve">
<style type="text/css">
	.st0{fill:#22EAE0;}
</style>
<g id="graphic-9">
	<path class="st0" d="M134.6,81l-87.9,60.3c-1.1-16,9.1-47.8,41.4-66.5c-11.6,0.9-21.9,1.7-32.3,2.4s-20.6,1.7-31,2.5
		c-0.5-1.7,0.8-2.5,1.6-3.5c24.7-34.4,72-43.4,107.6-20.5c3.3,2.1,3.9,0.7,5.3-1.7C160,18.2,204.6,4,242.1,21.4
		c0.4,0.2,0.8,0.5,2.1,1.2l-33.3,16.4l-33.7,16.6c35.1-1.2,60.9,12.8,79.1,43.5L153.6,80.6c13.1,23.6,23.2,48.8,30,75
		c8.1,30.7,12.7,61.8,11.5,93.7c-0.2,4.4-1.4,5.9-5.9,5.7c-9-0.4-18.1-0.2-27.2,0c-3.3,0-4.3-0.3-4-4.2c4.8-57-1.9-112.6-22.2-166.3
		C135.5,83.5,135.1,82.6,134.6,81z"/>
</g>
</svg>
