<?xml version="1.0" encoding="utf-8"?>
<!-- Generator: Adobe Illustrator 24.1.1, SVG Export Plug-In . SVG Version: 6.00 Build 0)  -->
<svg version="1.1" id="Layer_1" xmlns="http://www.w3.org/2000/svg" xmlns:xlink="http://www.w3.org/1999/xlink" x="0px" y="0px"
	 width="281px" height="269px" viewBox="0 0 281 269" style="enable-background:new 0 0 281 269;" xml:space="preserve">
<style type="text/css">
	.st0{fill:#F2F2F2;stroke:#020202;stroke-width:4;stroke-miterlimit:10;}
</style>
<g>
	<path class="st0" d="M198.4,221.2h-11.8c-15.3,0-27.7-12.4-27.7-27.7v-118c0-15.3,12.4-27.7,27.7-27.7h11.8
		c15.3,0,27.7,12.4,27.7,27.7v118C226.1,208.8,213.7,221.2,198.4,221.2z"/>
	<path class="st0" d="M94.4,221.2H82.6c-15.3,0-27.7-12.4-27.7-27.7v-118c0-15.3,12.4-27.7,27.7-27.7h11.8
		c15.3,0,27.7,12.4,27.7,27.7v118C122.1,208.8,109.7,221.2,94.4,221.2z"/>
</g>
</svg>
