<svg id="graphic" xmlns="http://www.w3.org/2000/svg" viewBox="0 0 281 269"><defs><style>.cls-1{fill:#22eae0;}</style></defs><title>phone</title><path class="cls-1" d="M178.24,183.83c-15.19,25.16-30.43,50.28-45.51,75.5-2.52,4.22-6,5.91-11.44,4.85-16.51-3.21-32.58-8.45-48.53-14.31-2.48-.91-3.68-2.89-5.38-4.45-8.88-8.14-17.7-16.33-26.63-24.41-7-6.33-7.06-13.27,0-17.88,5.45-3.55,10.9-7.11,16.38-10.62a16.85,16.85,0,0,0,5.54-5.85q21.6-36.49,43.34-72.91c2.3-3.83,2.8-8.2,3.08-12.53A79.21,79.21,0,0,1,124.6,58.07c2.26-3,3.88-6.56,6-9.71,3.37-5,7-5.85,13.27-3.2C155.53,50.05,167.14,55,178.74,60a30,30,0,0,1,4.43,2.2c7.15,4.54,6.52,4.06,11.43-1.45,16.85-18.87,19.27-23.61,32.75-44.72,1.54-2.42,3.68-3.86,6.87-1.84s3,4.51,1.42,7c-7.8,12.36-5.3,7.84-13.21,20.13-3.28,5.11-6.21,10.35-7.86,16.26-1.8,6.42-5.49,11.82-9.12,17.21-1.68,2.48-1.36,4.27,1.07,6.43,4.37,3.87,8.68,7.82,13,11.75,6.66,6.08,7.11,8.09,3.19,14.74q-18.54,31.38-37.12,62.74C183,174.83,178.06,183.72,178.24,183.83Zm-33.87-42.16c1.41-2,2.45-3.9-1.05-6.07s-4.95-1.06-6.46,1.51-2.1,4.31,1.56,6.42S143.2,144,144.37,141.67Zm-9.91,16.61c1.67-1.73,1.53-3.6-1.64-5.68-3.53-2.3-4.6-.45-6,1.71-1.57,2.36-1.76,4.22,1.38,6.26C131.61,162.8,133,161.13,134.46,158.28Zm-10.82,18.2c2-2.29,2-4.32-1.61-6.61-3.29-2.11-4.18-.55-5.53,1.44-1.77,2.6-2.11,4.62,1.55,6.9C121.28,180.2,122.49,178.89,123.64,176.48ZM120.49,150c1.76-2.09,1.77-4-1.48-6-3.44-2.14-4.22,0-5.51,1.83-1.56,2.26-2,4,1.41,6.07S119.31,152.21,120.49,150Zm9.91-16.57c1.48-2.08,2.78-4-.85-6.17-3-1.81-4.43-1-5.66,1.39-1.1,2.13-2.89,3.86.89,6.09C127.8,136.53,129.38,135.93,130.4,133.44Zm-19.84,33.15c2.45-2.13.93-4-2.08-5.88-3.59-2.25-4,.52-5.33,2.14-1.91,2.42-1.06,4.3,1.79,6.12C108.32,171.13,109.26,169.06,110.56,166.59Zm6.85-41.54c1.56-2,2-3.71-1.18-5.63s-4.33-.4-5.57,1.68-2.06,3.73,1.2,5.69S116.32,127.31,117.41,125.05ZM107.24,142c1.41-1.91,2.51-3.73-1.06-5.89-3.22-1.94-4.24-.49-5.55,1.56-1.49,2.32-1.88,4.09,1.43,6C105.08,145.48,106.18,144.12,107.24,142Zm-9.4,15.9c1.49-1.79,1.68-3.63-1.68-5.64-3.09-1.84-3.94-.29-5.23,1.5-1.8,2.5-1.74,4.53,1.59,6.53S96.47,160,97.84,157.88Z"/></svg>