<?xml version="1.0" encoding="utf-8"?>
<!-- Generator: Adobe Illustrator 24.0.2, SVG Export Plug-In . SVG Version: 6.00 Build 0)  -->
<svg version="1.1" id="graphic" xmlns="http://www.w3.org/2000/svg" xmlns:xlink="http://www.w3.org/1999/xlink" x="0px" y="0px"
	 viewBox="0 0 281 269" style="enable-background:new 0 0 281 269;" xml:space="preserve">
<style type="text/css">
	.st0{fill:url(#SVGID_1_);}
</style>
<title>phone</title>
<linearGradient id="SVGID_1_" gradientUnits="userSpaceOnUse" x1="35.4775" y1="138.8597" x2="236.749" y2="138.8597">
	<stop  offset="0" style="stop-color:#F8F423"/>
	<stop  offset="0.15" style="stop-color:#F8F025"/>
	<stop  offset="0.2448" style="stop-color:#F8E52C"/>
	<stop  offset="0.3446" style="stop-color:#F8D236"/>
	<stop  offset="0.4695" style="stop-color:#F8B746"/>
	<stop  offset="0.6196" style="stop-color:#F89559"/>
	<stop  offset="0.7998" style="stop-color:#F76B71"/>
	<stop  offset="0.892" style="stop-color:#F74288"/>
	<stop  offset="0.9499" style="stop-color:#F73A8D"/>
	<stop  offset="1" style="stop-color:#F72C95"/>
</linearGradient>
<path class="st0" d="M178.2,183.8c-15.2,25.2-30.4,50.3-45.5,75.5c-2.5,4.2-6,5.9-11.4,4.9c-16.5-3.2-32.6-8.4-48.5-14.3
	c-2.5-0.9-3.7-2.9-5.4-4.4c-8.9-8.1-17.7-16.3-26.6-24.4c-7-6.3-7.1-13.3,0-17.9c5.5-3.6,10.9-7.1,16.4-10.6
	c2.3-1.5,4.2-3.5,5.5-5.9c14.4-24.3,28.8-48.6,43.3-72.9c2.3-3.8,2.8-8.2,3.1-12.5c0.8-15.6,6.2-30.6,15.5-43.2c2.3-3,3.9-6.6,6-9.7
	c3.4-5,7-5.8,13.3-3.2C155.5,50,167.1,55,178.7,60c1.5,0.6,3,1.3,4.4,2.2c7.1,4.5,6.5,4.1,11.4-1.5c16.9-18.9,19.3-23.6,32.8-44.7
	c1.5-2.4,3.7-3.9,6.9-1.8s3,4.5,1.4,7c-7.8,12.4-5.3,7.8-13.2,20.1c-3.3,5.1-6.2,10.3-7.9,16.3c-1.8,6.4-5.5,11.8-9.1,17.2
	c-1.7,2.5-1.4,4.3,1.1,6.4c4.4,3.9,8.7,7.8,13,11.8c6.7,6.1,7.1,8.1,3.2,14.7c-12.4,20.9-24.7,41.8-37.1,62.7
	C183,174.8,178.1,183.7,178.2,183.8z M144.4,141.7c1.4-2,2.4-3.9-1.1-6.1s-4.9-1.1-6.5,1.5s-2.1,4.3,1.6,6.4S143.2,144,144.4,141.7
	L144.4,141.7z M134.5,158.3c1.7-1.7,1.5-3.6-1.6-5.7c-3.5-2.3-4.6-0.4-6,1.7c-1.6,2.4-1.8,4.2,1.4,6.3
	C131.6,162.8,133,161.1,134.5,158.3z M123.6,176.5c2-2.3,2-4.3-1.6-6.6c-3.3-2.1-4.2-0.6-5.5,1.4c-1.8,2.6-2.1,4.6,1.6,6.9
	C121.3,180.2,122.5,178.9,123.6,176.5z M120.5,150c1.8-2.1,1.8-4-1.5-6c-3.4-2.1-4.2,0-5.5,1.8c-1.6,2.3-2,4,1.4,6.1
	S119.3,152.2,120.5,150z M130.4,133.4c1.5-2.1,2.8-4-0.9-6.2c-3-1.8-4.4-1-5.7,1.4c-1.1,2.1-2.9,3.9,0.9,6.1
	C127.8,136.5,129.4,135.9,130.4,133.4L130.4,133.4z M110.6,166.6c2.4-2.1,0.9-4-2.1-5.9c-3.6-2.3-4,0.5-5.3,2.1
	c-1.9,2.4-1.1,4.3,1.8,6.1C108.3,171.1,109.3,169.1,110.6,166.6L110.6,166.6z M117.4,125c1.6-2,2-3.7-1.2-5.6s-4.3-0.4-5.6,1.7
	s-2.1,3.7,1.2,5.7S116.3,127.3,117.4,125L117.4,125z M107.2,142c1.4-1.9,2.5-3.7-1.1-5.9c-3.2-1.9-4.2-0.5-5.6,1.6
	c-1.5,2.3-1.9,4.1,1.4,6C105.1,145.5,106.2,144.1,107.2,142z M97.8,157.9c1.5-1.8,1.7-3.6-1.7-5.6c-3.1-1.8-3.9-0.3-5.2,1.5
	c-1.8,2.5-1.7,4.5,1.6,6.5S96.5,160,97.8,157.9L97.8,157.9z"/>
</svg>
