<?xml version="1.0" encoding="utf-8"?>
<!-- Generator: Adobe Illustrator 24.0.2, SVG Export Plug-In . SVG Version: 6.00 Build 0)  -->
<svg version="1.1" id="Layer_1" xmlns="http://www.w3.org/2000/svg" xmlns:xlink="http://www.w3.org/1999/xlink" x="0px" y="0px"
	 viewBox="0 0 281 269" style="enable-background:new 0 0 281 269;" xml:space="preserve">
<style type="text/css">
	.st0{fill:url(#SVGID_1_);}
	.st1{fill:url(#SVGID_2_);}
	.st2{fill:url(#SVGID_3_);}
</style>
<g id="graphic-3">
	<linearGradient id="SVGID_1_" gradientUnits="userSpaceOnUse" x1="150.443" y1="218.6827" x2="257.7815" y2="156.7108">
		<stop  offset="0" style="stop-color:#00AAAD"/>
		<stop  offset="0.2096" style="stop-color:#41B1C2"/>
		<stop  offset="0.4078" style="stop-color:#AB4A9C"/>
		<stop  offset="0.6088" style="stop-color:#AB4A9C"/>
		<stop  offset="0.7042" style="stop-color:#CC559F"/>
		<stop  offset="0.7964" style="stop-color:#E65DA2"/>
		<stop  offset="0.8518" style="stop-color:#EF60A3"/>
		<stop  offset="0.9673" style="stop-color:#EF60A3"/>
	</linearGradient>
	<path class="st0" d="M272.3,190.4c-5.6,10-15.3,14.2-25.4,17.8L162,238.7c0-7.8,0-14.9,0-22c0-3.6,2.9-3.2,4.8-4
		c17.4-6.4,35-12.5,52.4-18.9c4-1.5,7.9-3.3,11.6-5.3c3-1.6,5.6-4,5-7.8s-3.4-6.8-7.1-7.8c-7.7-2.4-15.4-1.2-23.1,0.5
		c-13.5,3-26.2,8.3-39.1,13c-4.1,1.5-5,0.5-4.7-3.5c0.2-2.9,0-5.8,0-8.8c0-10.4,0-10.5,10.2-12.7c27.2-5.8,54-5.3,80.4,4.3
		c8.5,3.1,16.2,7.3,19.7,16.4C273.2,184.7,273.3,187.7,272.3,190.4z"/>
	<linearGradient id="SVGID_2_" gradientUnits="userSpaceOnUse" x1="108.9869" y1="159.8625" x2="21.2122" y2="221.323">
		<stop  offset="0" style="stop-color:#00AAAD"/>
		<stop  offset="0.2096" style="stop-color:#41B1C2"/>
		<stop  offset="0.4078" style="stop-color:#AB4A9C"/>
		<stop  offset="0.6088" style="stop-color:#AB4A9C"/>
		<stop  offset="0.7042" style="stop-color:#CC559F"/>
		<stop  offset="0.7964" style="stop-color:#E65DA2"/>
		<stop  offset="0.8518" style="stop-color:#EF60A3"/>
		<stop  offset="0.9673" style="stop-color:#EF60A3"/>
	</linearGradient>
	<path class="st1" d="M8.2,191.4c4.2-16.1,19.7-21.6,32.6-26c19-6.5,37.8-13.6,57.5-20.8c0,7.7-0.1,14.8,0,21.9
		c0,2.9-2.2,2.8-3.9,3.4c-10.2,3.7-20.4,7.2-30.6,11c-4.7,1.5-8.9,4-12.4,7.4c-4.7,5-4.1,10,1.8,13.6s12.7,3,19.3,1.9
		c8.9-1.5,16.8-5.6,25.8-8.5c0,6,0,11.5,0,16.9c0,1.8-0.3,3.2-2.1,3.7c-19.8,6.2-39.7,11.3-60.7,7.7c-12.1-2.1-17.8-7.1-22-13.3
		C11.4,207.3,6.9,198.4,8.2,191.4z"/>
	<linearGradient id="SVGID_3_" gradientUnits="userSpaceOnUse" x1="71.2188" y1="168.5109" x2="217.0334" y2="84.3248">
		<stop  offset="0" style="stop-color:#00AAAD"/>
		<stop  offset="0.2096" style="stop-color:#41B1C2"/>
		<stop  offset="0.4078" style="stop-color:#AB4A9C"/>
		<stop  offset="0.6088" style="stop-color:#AB4A9C"/>
		<stop  offset="0.7042" style="stop-color:#CC559F"/>
		<stop  offset="0.7964" style="stop-color:#E65DA2"/>
		<stop  offset="0.8518" style="stop-color:#EF60A3"/>
		<stop  offset="0.9673" style="stop-color:#EF60A3"/>
	</linearGradient>
	<path class="st2" d="M156.5,76v157.3c0,8.3-2.5,10.3-10.2,8c-12.1-3.6-24.1-7.5-36.2-10.9c-4.5-1.3-6.2-3.7-6.2-8.3
		c0.1-62.7,0.1-125.4,0-188.2c0-6,2.8-8.3,8.4-6.6c21.3,6.4,42.8,12.4,63.9,19.3c32.6,10.7,45.9,38.8,42.9,69.7
		c-0.3,3.1-0.8,6.2-1.5,9.2c-5,21.6-18.8,30.4-40.5,26c-14.7-3-15.1-3.6-15.1-18.4c0-15.2,0-30.4,0-45.6
		C162,83.2,161.5,79.2,156.5,76z"/>
</g>
</svg>
