<?xml version="1.0" encoding="utf-8"?>
<!-- Generator: Adobe Illustrator 24.1.1, SVG Export Plug-In . SVG Version: 6.00 Build 0)  -->
<svg version="1.1" id="Capa_1" xmlns="http://www.w3.org/2000/svg" xmlns:xlink="http://www.w3.org/1999/xlink" x="0px" y="0px"
	 width="437.5px" height="437.5px" viewBox="0 0 437.5 437.5" style="enable-background:new 0 0 437.5 437.5;" xml:space="preserve"
	>
<style type="text/css">
	.st0{fill:#22EAE0;}
</style>
<g>
	<g>
		<path class="st0" d="M261.7,176.1c28.4,17.9,62.8,14.3,80.7-14.1c17.9-28.4,13.5-135.3,13.5-135.3s-98.4,42.1-116.3,70.5
			S233.3,158.2,261.7,176.1z"/>
		<path class="st0" d="M151.5,192.7c0,0-98.4,42.1-116.3,70.5c-17.9,28.4-6.3,61,22.1,78.9C85.6,360,120.1,356.4,138,328
			C155.9,299.6,151.5,192.7,151.5,192.7z"/>
		<path class="st0" d="M179.5,44.1c0,0-57.2,24.5-67.6,41c-10.4,16.5-3.7,35.4,12.8,45.8c16.5,10.4,36.5,8.3,46.9-8.2
			C182.1,106.2,179.5,44.1,179.5,44.1z"/>
		<path class="st0" d="M211.8,397.7c33.8,21.3,74.8,17.1,96.2-16.8c21.3-33.8,16.1-161.3,16.1-161.3s-117.3,50.2-138.6,84
			C164.2,337.5,178,376.3,211.8,397.7z"/>
		<path class="st0" d="M403.1,275.8c9.9-15.7,7.5-75,7.5-75s-54.5,23.4-64.5,39.1c-9.9,15.7-3.5,33.8,12.2,43.7
			C374.1,293.6,393.2,291.6,403.1,275.8z"/>
	</g>
</g>
</svg>
