<svg xmlns="http://www.w3.org/2000/svg" viewBox="0 0 396.26 362.81"><defs><style>.cls-1{fill:#fbf49b;}</style></defs><title>sax</title><g id="sax"><path id="sax-2" data-name="sax" class="cls-1" d="M169.56,53.53S277.43,293.77,281,300.94c4,8,5.63,10.16,11,8.45,3.09-1,7.85-4.47,5.43-8.75S284,273.69,284,273.69s-9.91-21-12.68-28.06c-3-6.89-7.27-22-8.85-29.1s-3.06-23.5-2.81-32.45c.2-7.31,2.48-12.61,1.27-17.37s-14.15-15.49-16.29-17.77,97,9.54,98.09,10.8-14.61,5.36-18.44,9.59-7.84,12.13-9.58,19.71-3,14.68-2.48,24.07,2.06,18.53,5.49,26.42c3.14,7.21,14.08,28.16,16.5,32s8.24,15,8.31,24.4a44.8,44.8,0,0,1-3.62,18.78c-2.41,5.63-10.75,15.91-17.7,20.65-8.21,5.6-18.36,10.7-30,12.6-8.65,1.41-18.24-.13-24.54-3.62-6.09-3.37-12.27-8.38-17-19.58-2.84-6.69-18.91-52.43-21.59-59.13s-77.88-207.87-80.29-213a26,26,0,0,0-12.67-12.37c-4.83-2.32-12.88-2-18,1S98.45,58.77,88.2,62.84c-6.71,2.66-39.69,8.88-45.43,9.5-5.93.64-15.22,1.71-15.22,1.71l1.75-5.5s7.76-.59,12-2.52c3.93-1.8,5.48-3.25,6.39-6.06.43-.6,24.94-4.69,33.79-8.32a61.24,61.24,0,0,0,21.86-15.82c5.36-6,10.86-11,17.83-13.27s14.22-3.36,21.46-2,13.68,6.71,17.16,12.34S169.56,53.53,169.56,53.53Z"/></g></svg>