<?xml version="1.0" encoding="utf-8"?>
<!-- Generator: Adobe Illustrator 24.0.2, SVG Export Plug-In . SVG Version: 6.00 Build 0)  -->
<svg version="1.1" id="Layer_1" xmlns="http://www.w3.org/2000/svg" xmlns:xlink="http://www.w3.org/1999/xlink" x="0px" y="0px"
	 viewBox="0 0 396.3 362.8" style="enable-background:new 0 0 396.3 362.8;" xml:space="preserve">
<style type="text/css">
	.st0{fill:url(#sax-2_1_);}
</style>
<title>sax</title>
<g id="sax">
	<linearGradient id="sax-2_1_" gradientUnits="userSpaceOnUse" x1="27.55" y1="184.2216" x2="342.7841" y2="184.2216">
		<stop  offset="0" style="stop-color:#0FF4E3"/>
		<stop  offset="0.5435" style="stop-color:#CBF90B"/>
		<stop  offset="0.5731" style="stop-color:#D0E61E"/>
		<stop  offset="0.6681" style="stop-color:#DDAD57"/>
		<stop  offset="0.7496" style="stop-color:#E78380"/>
		<stop  offset="0.8134" style="stop-color:#ED699A"/>
		<stop  offset="0.8518" style="stop-color:#EF60A3"/>
		<stop  offset="0.8863" style="stop-color:#DD5799"/>
		<stop  offset="0.9338" style="stop-color:#CB4E90"/>
		<stop  offset="0.9673" style="stop-color:#C44B8C"/>
	</linearGradient>
	<path id="sax-2" class="st0" d="M169.6,53.5c0,0,107.9,240.2,111.4,247.4c4,8,5.6,10.2,11,8.5c3.1-1,7.9-4.5,5.4-8.8
		s-13.4-27-13.4-27s-9.9-21-12.7-28.1c-3-6.9-7.3-22-8.9-29.1s-3.1-23.5-2.8-32.4c0.2-7.3,2.5-12.6,1.3-17.4s-14.1-15.5-16.3-17.8
		s97,9.5,98.1,10.8s-14.6,5.4-18.4,9.6s-7.8,12.1-9.6,19.7s-3,14.7-2.5,24.1s2.1,18.5,5.5,26.4c3.1,7.2,14.1,28.2,16.5,32
		s8.2,15,8.3,24.4c0.2,6.4-1.1,12.9-3.6,18.8c-2.4,5.6-10.8,15.9-17.7,20.6c-8.2,5.6-18.4,10.7-30,12.6c-8.6,1.4-18.2-0.1-24.5-3.6
		c-6.1-3.4-12.3-8.4-17-19.6c-2.8-6.7-18.9-52.4-21.6-59.1s-77.9-207.9-80.3-213c-2.6-5.5-7.1-9.9-12.7-12.4c-4.8-2.3-12.9-2-18,1
		S98.4,58.8,88.2,62.8c-6.7,2.7-39.7,8.9-45.4,9.5C36.8,73,27.5,74,27.5,74l1.8-5.5c0,0,7.8-0.6,12-2.5c3.9-1.8,5.5-3.3,6.4-6.1
		c0.4-0.6,24.9-4.7,33.8-8.3c8.4-3.6,15.8-9,21.9-15.8c5.4-6,10.9-11,17.8-13.3s14.2-3.4,21.5-2s13.7,6.7,17.2,12.3
		S169.6,53.5,169.6,53.5z"/>
</g>
</svg>
