<?xml version="1.0" encoding="utf-8"?>
<!-- Generator: Adobe Illustrator 24.1.1, SVG Export Plug-In . SVG Version: 6.00 Build 0)  -->
<svg version="1.1" id="Layer_1" xmlns="http://www.w3.org/2000/svg" xmlns:xlink="http://www.w3.org/1999/xlink" x="0px" y="0px"
	 width="281px" height="269px" viewBox="0 0 281 269" style="enable-background:new 0 0 281 269;" xml:space="preserve">
<style type="text/css">
	.st0{fill:#22EAE0;}
</style>
<g id="graphic-2">
	<path class="st0" d="M273.9,129.6c0.5-5.3-6.9-0.7-6.1-6.6c-0.1-1.9-0.3-3.8-0.7-5.7c-3-15.2-10.9-27.5-30.2-28.4
		c-26.1-1.3-52.2-3.7-78.4-3.5c-37.5-1.2-74.9,2.8-112.3,5.6c-8.3,0.6-16.2,2.2-22.2,8.6c-6,6.4-8.4,14-9.6,22.4
		c-0.2,1.2,0.5,2.9-1.7,3.1c-1.9,0.2-4.5-1.3-5.3,1.6c-2.2,15.8,6.2,2,6.9,14c11.1,68.4,87.8,46,109.6-3.4
		c4.4-8.3,6.9-17.2,2.6-26.5c-0.6-1-0.3-2.2,0.6-2.9c0.1-0.1,0.2-0.1,0.4-0.2c4.2-4.5,29.4-6.3,26.6,2.6
		c-5.2,12.2,2.3,24.9,9.1,34.7c16.2,25.2,48.7,45.7,78.8,32.4c26.4-11,21.7-42.9,29.6-40.4C275.4,137.5,273.4,131.9,273.9,129.6z
		 M26.3,132.8c1.5-5.2,19.2-20.5,26-23.5l0.8,0.8L26.3,132.8z M30.8,147.9c7.5-7,15.2-13.8,24.1-19.1
		C47.5,136,39.5,142.4,30.8,147.9z M157.8,103.4c-1.1,1.5-1.8,1.2-3.3,0.5c-9.5-4.4-18.9-4.3-28,1c-2.3,1.4-3.2,1.2-4.7-0.8
		c-5.1-6.8-12.4-11.7-20.6-13.8c24.9-2.3,49.9-2.8,74.8-1.6C168.8,92,162.6,97,157.8,103.4L157.8,103.4z M169,122.1
		c6.6-6.9,14.4-12.6,22.9-17c0.2,0.3,0.4,0.6,0.6,0.9l-22.7,17.2L169,122.1z M174.4,144c6.9-7.1,15-12.9,23.9-17.1
		C190.7,133.2,181.9,137.7,174.4,144z"/>
</g>
</svg>
