<svg xmlns="http://www.w3.org/2000/svg" viewBox="0 0 341.11 362.81"><defs><style>.cls-1{fill:#7c52a1;}</style></defs><title>soundpad</title><g id="soundpad"><path id="soundpad-2" data-name="soundpad" class="cls-1" d="M270.23,39.85H78.92a13.49,13.49,0,0,0-13.49,13.5V308.71A13.49,13.49,0,0,0,78.92,322.2H270.23a13.49,13.49,0,0,0,13.49-13.49V53.35A13.49,13.49,0,0,0,270.23,39.85ZM129,268.57a8.45,8.45,0,0,1-8.46,8.45H103.6a8.45,8.45,0,0,1-8.45-8.45V252.51a8.45,8.45,0,0,1,8.45-8.45h16.91a8.45,8.45,0,0,1,8.46,8.45Zm0-35.19a8.46,8.46,0,0,1-8.46,8.46H103.6a8.45,8.45,0,0,1-8.45-8.46v-16a8.45,8.45,0,0,1,8.45-8.46h16.91a8.46,8.46,0,0,1,8.46,8.46Zm0-35.53a8.46,8.46,0,0,1-8.46,8.46H103.6a8.45,8.45,0,0,1-8.45-8.46v-16a8.45,8.45,0,0,1,8.45-8.46h16.91A8.46,8.46,0,0,1,129,181.8Zm0-35.53a8.46,8.46,0,0,1-8.46,8.46H103.6a8.45,8.45,0,0,1-8.45-8.46v-16a8.45,8.45,0,0,1,8.45-8.46h16.91a8.46,8.46,0,0,1,8.46,8.46ZM129,127a8.46,8.46,0,0,1-8.46,8.46H103.6A8.45,8.45,0,0,1,95.15,127v-16a8.45,8.45,0,0,1,8.45-8.46h16.91a8.46,8.46,0,0,1,8.46,8.46Zm0-35.27a8.46,8.46,0,0,1-8.46,8.46H103.6a8.45,8.45,0,0,1-8.45-8.46v-16a8.45,8.45,0,0,1,8.45-8.46h16.91A8.46,8.46,0,0,1,129,75.64Zm43.21,176.88a8.45,8.45,0,0,1-8.45,8.45H146.82a8.45,8.45,0,0,1-8.46-8.45V252.51a8.45,8.45,0,0,1,8.46-8.45h16.91a8.45,8.45,0,0,1,8.45,8.45Zm0-35.19a8.45,8.45,0,0,1-8.45,8.46H146.82a8.46,8.46,0,0,1-8.46-8.46v-16a8.46,8.46,0,0,1,8.46-8.46h16.91a8.45,8.45,0,0,1,8.45,8.46Zm0-35.53a8.45,8.45,0,0,1-8.45,8.46H146.82a8.46,8.46,0,0,1-8.46-8.46v-16a8.46,8.46,0,0,1,8.46-8.46h16.91a8.45,8.45,0,0,1,8.45,8.46Zm0-35.53a8.45,8.45,0,0,1-8.45,8.46H146.82a8.46,8.46,0,0,1-8.46-8.46v-16a8.46,8.46,0,0,1,8.46-8.46h16.91a8.45,8.45,0,0,1,8.45,8.46Zm0-35.36a8.45,8.45,0,0,1-8.45,8.46H146.82a8.46,8.46,0,0,1-8.46-8.46v-16a8.46,8.46,0,0,1,8.46-8.46h16.91a8.45,8.45,0,0,1,8.45,8.46Zm0-35.27a8.45,8.45,0,0,1-8.45,8.46H146.82a8.46,8.46,0,0,1-8.46-8.46v-16a8.46,8.46,0,0,1,8.46-8.46h16.91a8.45,8.45,0,0,1,8.45,8.46Zm43.39,176.88a8.45,8.45,0,0,1-8.46,8.45H190.2a8.45,8.45,0,0,1-8.45-8.45V252.51a8.45,8.45,0,0,1,8.45-8.45h16.91a8.45,8.45,0,0,1,8.46,8.45Zm0-35.19a8.46,8.46,0,0,1-8.46,8.46H190.2a8.45,8.45,0,0,1-8.45-8.46v-16a8.45,8.45,0,0,1,8.45-8.46h16.91a8.46,8.46,0,0,1,8.46,8.46Zm0-35.53a8.46,8.46,0,0,1-8.46,8.46H190.2a8.45,8.45,0,0,1-8.45-8.46v-16a8.45,8.45,0,0,1,8.45-8.46h16.91a8.46,8.46,0,0,1,8.46,8.46Zm0-35.53a8.46,8.46,0,0,1-8.46,8.46H190.2a8.45,8.45,0,0,1-8.45-8.46v-16a8.45,8.45,0,0,1,8.45-8.46h16.91a8.46,8.46,0,0,1,8.46,8.46Zm0-35.36a8.46,8.46,0,0,1-8.46,8.46H190.2a8.45,8.45,0,0,1-8.45-8.46v-16a8.45,8.45,0,0,1,8.45-8.46h16.91a8.46,8.46,0,0,1,8.46,8.46Zm0-35.27a8.46,8.46,0,0,1-8.46,8.46H190.2a8.45,8.45,0,0,1-8.45-8.46v-16a8.45,8.45,0,0,1,8.45-8.46h16.91a8.46,8.46,0,0,1,8.46,8.46Zm41.51,176.88a8.45,8.45,0,0,1-8.46,8.45H231.71a8.45,8.45,0,0,1-8.45-8.45V252.51a8.45,8.45,0,0,1,8.45-8.45h16.91a8.45,8.45,0,0,1,8.46,8.45Zm0-35.19a8.46,8.46,0,0,1-8.46,8.46H231.71a8.45,8.45,0,0,1-8.45-8.46v-16a8.45,8.45,0,0,1,8.45-8.46h16.91a8.46,8.46,0,0,1,8.46,8.46Zm0-35.53a8.46,8.46,0,0,1-8.46,8.46H231.71a8.45,8.45,0,0,1-8.45-8.46v-16a8.45,8.45,0,0,1,8.45-8.46h16.91a8.46,8.46,0,0,1,8.46,8.46Zm0-35.53a8.46,8.46,0,0,1-8.46,8.46H231.71a8.45,8.45,0,0,1-8.45-8.46v-16a8.45,8.45,0,0,1,8.45-8.46h16.91a8.46,8.46,0,0,1,8.46,8.46Zm0-35.36a8.46,8.46,0,0,1-8.46,8.46H231.71a8.45,8.45,0,0,1-8.45-8.46v-16a8.45,8.45,0,0,1,8.45-8.46h16.91a8.46,8.46,0,0,1,8.46,8.46Zm0-35.27a8.46,8.46,0,0,1-8.46,8.46H231.71a8.45,8.45,0,0,1-8.45-8.46v-16a8.45,8.45,0,0,1,8.45-8.46h16.91a8.46,8.46,0,0,1,8.46,8.46Z"/></g></svg>