<?xml version="1.0" encoding="utf-8"?>
<!-- Generator: Adobe Illustrator 24.0.2, SVG Export Plug-In . SVG Version: 6.00 Build 0)  -->
<svg version="1.1" id="Layer_1" xmlns="http://www.w3.org/2000/svg" xmlns:xlink="http://www.w3.org/1999/xlink" x="0px" y="0px"
	 viewBox="0 0 341.1 362.8" style="enable-background:new 0 0 341.1 362.8;" xml:space="preserve">
<style type="text/css">
	.st0{fill:url(#soundpad-2_1_);}
</style>
<title>soundpad</title>
<g id="soundpad">
	<linearGradient id="soundpad-2_1_" gradientUnits="userSpaceOnUse" x1="35.8599" y1="261.1122" x2="313.2901" y2="100.9378">
		<stop  offset="0" style="stop-color:#00AAAD"/>
		<stop  offset="0.2096" style="stop-color:#41B1C2"/>
		<stop  offset="0.4078" style="stop-color:#AB4A9C"/>
		<stop  offset="0.6088" style="stop-color:#AB4A9C"/>
		<stop  offset="0.7042" style="stop-color:#CC559F"/>
		<stop  offset="0.7964" style="stop-color:#E65DA2"/>
		<stop  offset="0.8518" style="stop-color:#EF60A3"/>
		<stop  offset="0.9673" style="stop-color:#EF60A3"/>
	</linearGradient>
	<path id="soundpad-2" class="st0" d="M270.2,39.8H78.9c-7.5,0-13.5,6-13.5,13.5c0,0,0,0,0,0v255.4c0,7.5,6,13.5,13.5,13.5
		c0,0,0,0,0,0h191.3c7.5,0,13.5-6,13.5-13.5V53.3C283.7,45.9,277.7,39.9,270.2,39.8C270.2,39.8,270.2,39.8,270.2,39.8z M129,268.6
		c0,4.7-3.8,8.5-8.4,8.5c0,0,0,0,0,0h-16.9c-4.7,0-8.4-3.8-8.4-8.5l0,0v-16.1c0-4.7,3.8-8.4,8.4-8.4h16.9c4.7,0,8.5,3.8,8.5,8.4
		c0,0,0,0,0,0L129,268.6z M129,233.4c0,4.7-3.8,8.5-8.5,8.5c0,0,0,0,0,0h-16.9c-4.7,0-8.5-3.8-8.5-8.4c0,0,0,0,0,0v-16
		c0-4.7,3.8-8.5,8.4-8.5c0,0,0,0,0,0h16.9c4.7,0,8.5,3.8,8.5,8.5v0L129,233.4z M129,197.9c0,4.7-3.8,8.5-8.5,8.5c0,0,0,0,0,0h-16.9
		c-4.7,0-8.5-3.8-8.5-8.4c0,0,0,0,0,0v-16c0-4.7,3.8-8.5,8.4-8.5c0,0,0,0,0,0h16.9c4.7,0,8.5,3.7,8.5,8.4V197.9z M129,162.3
		c0,4.7-3.8,8.5-8.5,8.5c0,0,0,0,0,0h-16.9c-4.7,0-8.5-3.8-8.5-8.4c0,0,0,0,0,0v-16c0-4.7,3.8-8.5,8.4-8.5c0,0,0,0,0,0h16.9
		c4.7,0,8.5,3.8,8.5,8.5v0L129,162.3z M129,127c0,4.7-3.8,8.5-8.5,8.5c0,0,0,0,0,0h-16.9c-4.7,0-8.5-3.8-8.5-8.4c0,0,0,0,0,0v-16
		c0-4.7,3.8-8.5,8.4-8.5c0,0,0,0,0,0h16.9c4.7,0,8.5,3.8,8.5,8.5c0,0,0,0,0,0L129,127z M129,91.7c0,4.7-3.8,8.5-8.5,8.5h-16.9
		c-4.7,0-8.5-3.8-8.5-8.4c0,0,0,0,0,0v-16c0-4.7,3.8-8.5,8.4-8.5c0,0,0,0,0,0h16.9c4.6,0,8.4,3.7,8.5,8.4V91.7z M172.2,268.6
		c0,4.7-3.8,8.5-8.4,8.5c0,0,0,0,0,0h-16.9c-4.7,0-8.5-3.8-8.5-8.4c0,0,0,0,0,0v-16.1c0-4.7,3.8-8.4,8.4-8.4c0,0,0,0,0,0h16.9
		c4.7,0,8.4,3.8,8.4,8.4L172.2,268.6z M172.2,233.4c0,4.7-3.8,8.5-8.4,8.5c0,0,0,0,0,0h-16.9c-4.7,0-8.5-3.8-8.5-8.5v0v-16
		c0-4.7,3.8-8.5,8.5-8.5h0h16.9c4.7,0,8.4,3.8,8.4,8.4c0,0,0,0,0,0L172.2,233.4z M172.2,197.9c0,4.7-3.8,8.5-8.4,8.5c0,0,0,0,0,0
		h-16.9c-4.7,0-8.5-3.8-8.5-8.5v0v-16c0-4.7,3.8-8.5,8.5-8.5h0h16.9c4.7,0,8.4,3.8,8.4,8.4c0,0,0,0,0,0L172.2,197.9z M172.2,162.4
		c0,4.7-3.8,8.5-8.4,8.5c0,0,0,0,0,0h-16.9c-4.7,0-8.5-3.8-8.5-8.5v0v-16c0-4.7,3.8-8.5,8.5-8.5h0h16.9c4.7,0,8.4,3.8,8.4,8.4
		c0,0,0,0,0,0L172.2,162.4z M172.2,127c0,4.7-3.8,8.5-8.4,8.5c0,0,0,0,0,0h-16.9c-4.7,0-8.5-3.8-8.5-8.5c0,0,0,0,0,0v-16
		c0-4.7,3.8-8.5,8.5-8.5l0,0h16.9c4.7,0,8.4,3.8,8.4,8.4c0,0,0,0,0,0L172.2,127z M172.2,91.7c0,4.7-3.8,8.5-8.4,8.5c0,0,0,0,0,0
		h-16.9c-4.7,0-8.5-3.8-8.5-8.5c0,0,0,0,0,0v-16c0-4.7,3.8-8.5,8.5-8.5l0,0h16.9c4.7,0,8.4,3.8,8.4,8.4c0,0,0,0,0,0L172.2,91.7z
		 M215.6,268.6c0,4.7-3.8,8.5-8.4,8.5c0,0,0,0,0,0h-16.9c-4.7,0-8.4-3.8-8.4-8.5l0,0v-16.1c0-4.7,3.8-8.4,8.4-8.4h16.9
		c4.7,0,8.5,3.8,8.5,8.4c0,0,0,0,0,0L215.6,268.6z M215.6,233.4c0,4.7-3.8,8.5-8.5,8.5h0h-16.9c-4.7,0-8.4-3.8-8.4-8.4c0,0,0,0,0,0
		v-16c0-4.7,3.8-8.5,8.4-8.5c0,0,0,0,0,0h16.9c4.7,0,8.5,3.8,8.5,8.5v0L215.6,233.4z M215.6,197.9c0,4.7-3.8,8.5-8.5,8.5h0h-16.9
		c-4.7,0-8.4-3.8-8.4-8.4c0,0,0,0,0,0v-16c0-4.7,3.8-8.5,8.4-8.5c0,0,0,0,0,0h16.9c4.7,0,8.5,3.8,8.5,8.5v0L215.6,197.9z
		 M215.6,162.4c0,4.7-3.8,8.5-8.5,8.5h0h-16.9c-4.7,0-8.4-3.8-8.4-8.4c0,0,0,0,0,0v-16c0-4.7,3.8-8.5,8.4-8.5c0,0,0,0,0,0h16.9
		c4.7,0,8.5,3.8,8.5,8.5v0L215.6,162.4z M215.6,127c0,4.7-3.8,8.5-8.5,8.5h0h-16.9c-4.7,0-8.4-3.8-8.4-8.4c0,0,0,0,0,0v-16
		c0-4.7,3.8-8.5,8.4-8.5c0,0,0,0,0,0h16.9c4.7,0,8.5,3.8,8.5,8.5c0,0,0,0,0,0L215.6,127z M215.6,91.7c0,4.7-3.8,8.5-8.5,8.5l0,0
		h-16.9c-4.7,0-8.4-3.8-8.4-8.4c0,0,0,0,0,0v-16c0-4.7,3.8-8.5,8.4-8.5c0,0,0,0,0,0h16.9c4.7,0,8.5,3.8,8.5,8.5c0,0,0,0,0,0
		L215.6,91.7z M257.1,268.6c0,4.7-3.8,8.5-8.4,8.5c0,0,0,0,0,0h-16.9c-4.7,0-8.4-3.8-8.4-8.5l0,0v-16.1c0-4.7,3.8-8.4,8.4-8.4h16.9
		c4.7,0,8.5,3.8,8.5,8.4c0,0,0,0,0,0L257.1,268.6z M257.1,233.4c0,4.7-3.8,8.5-8.5,8.5h0h-16.9c-4.7,0-8.4-3.8-8.4-8.4c0,0,0,0,0,0
		v-16c0-4.7,3.8-8.5,8.4-8.5c0,0,0,0,0,0h16.9c4.7,0,8.5,3.8,8.5,8.5v0L257.1,233.4z M257.1,197.9c0,4.7-3.8,8.5-8.5,8.5h0h-16.9
		c-4.7,0-8.4-3.8-8.4-8.4c0,0,0,0,0,0v-16c0-4.7,3.8-8.5,8.4-8.5c0,0,0,0,0,0h16.9c4.7,0,8.5,3.8,8.5,8.5v0L257.1,197.9z
		 M257.1,162.4c0,4.7-3.8,8.5-8.5,8.5h0h-16.9c-4.7,0-8.4-3.8-8.4-8.4c0,0,0,0,0,0v-16c0-4.7,3.8-8.5,8.4-8.5c0,0,0,0,0,0h16.9
		c4.7,0,8.5,3.8,8.5,8.5v0L257.1,162.4z M257.1,127c0,4.7-3.8,8.5-8.5,8.5h0h-16.9c-4.7,0-8.4-3.8-8.4-8.4c0,0,0,0,0,0v-16
		c0-4.7,3.8-8.5,8.4-8.5c0,0,0,0,0,0h16.9c4.7,0,8.5,3.8,8.5,8.5c0,0,0,0,0,0L257.1,127z M257.1,91.7c0,4.7-3.8,8.5-8.5,8.5l0,0
		h-16.9c-4.7,0-8.4-3.8-8.4-8.4c0,0,0,0,0,0v-16c0-4.7,3.8-8.5,8.4-8.5c0,0,0,0,0,0h16.9c4.7,0,8.5,3.8,8.5,8.5c0,0,0,0,0,0
		L257.1,91.7z"/>
</g>
</svg>
