<?xml version="1.0" encoding="utf-8"?>
<!-- Generator: Adobe Illustrator 24.1.1, SVG Export Plug-In . SVG Version: 6.00 Build 0)  -->
<svg version="1.1" id="Layer_1" xmlns="http://www.w3.org/2000/svg" xmlns:xlink="http://www.w3.org/1999/xlink" x="0px" y="0px"
	 width="281px" height="269px" viewBox="0 0 281 269" style="enable-background:new 0 0 281 269;" xml:space="preserve">
<style type="text/css">
	.st0{fill:#22EAE0;}
</style>
<g id="graphic-6">
	<path class="st0" d="M206.4,35.4c0.8-1.4,3.9-2,9.9-1.8c12,0.3,7.6-4.5,5.6-3.8s-41.3-12.5-49.2-0.9c-7.9,11.5-15.3,12.2-24.6,20.2
		s-44.6,54.1-46.9,52.2c-2.3-1.9,2.3-19.2,6.8-16s2.7-3.8,5-9.6c2.3-5.8,20.4-14.1,18-16.3s-13.6,2.6-15.1-0.3
		c-1.5-2.9,18-10.9,18-13.1s-13.6-1.9-32.8,4.5s-40.5,35.2-49,50.3c-4.7,8.3-3.8,2.3-6.8,4.1c-1.6,1.4-1.6,7.9-3.7,13.5
		c-3.9,10.6,0.2,8.6,9.3-4.8s42.1-38.7,23.4,4.8s-2.3,6.7,41.3-21.5s57.8-19.9,39.9-8.6s-21.8,23.4-21.8,23.4s5.3,17.5,49.3-28.9
		c1-1.6,4.8-28.4,15.3-28.4s18.8-6.4,12.2-12.2C207.1,39,205.6,36.8,206.4,35.4z"/>
	<path class="st0" d="M245.1,106.5c-14,1.5-39,19.2-31.7,7s23.8-37.5-21.8-17.6c19.3-17.6,54.7-25.1,61.7-23
		c5.2,1.5,10.5,2.6,15.8,3.4c0,0,4.3,4.5-3.6,4.8c-7.9,0.3-24.2,13.8-21.9,16.7s9.8-6.3,9.9-1C253.7,100.4,248.2,106.2,245.1,106.5z
		"/>
	<path class="st0" d="M21.4,180.7c17.1-25.6,25-31.3,21.3-14s-0.9,28.7,13.8,14.3s33.7-33.9,37.9-35.3c6.5-2.2-16.8,32.3-21.9,38.7
		s-23.6,20-47.2,57.3c-26.1,41.1-12.5-31.7,3.5-54.4c10.5-15-0.3-10-1.8-5.3S4.3,206.3,21.4,180.7z"/>
	<path class="st0" d="M88.5,194.6c-0.8,1.7,0.8,12.5,15.1,6.2s2.9,4.4,19.9,3c17-1.5,26.7-26.1,30.2-30.3s26.1-19.6,4.6,7.7
		s-19.3,46.6-14.1,37.1c5.2-9.5,21.5-26.1,21.5-26.1s-2.9,1.2-14.7,26.7c-11.8,25.5,42.4-24.6,49.9-26.1c7.5-1.5,20.9,4.2,27.5-0.6
		c6.6-4.8,30.4-19.9,7.3-18.4c-23.2,1.5-30.9,13.9-45.8,12.7c-14.9-1.2,13.9-28.5,10.8-31.6c-3.1-3.1-29,12-35.2,6.7
		c-6.2-5.3,8.7-15.7,18.1-23.4c9.5-7.7-15.9-9.2-39.7,6.5s-26.8,19.4-39.3,30.3C97.4,181.5,90.4,190.6,88.5,194.6z"/>
	<path class="st0" d="M35.1,112.8c6.7,9.3-15.3,44.4-8.3,40.9s28.7-32.1,32.3-39.8c7.5-16,9.7,3.4,3,22.3s-12.2,33,0.8,20.5
		s36.1-45.2,61.6-50.6c25.5-5.4-19.1,18.6-37,36.5S57,180.1,51.3,168.2c-5.7-11.9,10.4-39.4,8.7-43.2c-1.6-3.8-44.2,57-46,48.8
		C12.3,165.7,28.4,103.5,35.1,112.8z"/>
	<path class="st0" d="M85.7,172.7c0,0,47.3-59.5,106.5-71.8c25.5-5.4,18.7,1.8,9.9,19.7c-8.8,17.9-4,12.2,7.7,7.2
		s32.8-17.5,32.3-9.3s5.1,6.6-15.4,26.4s-13.4,18.3,6.8,12.6c20.2-5.7,30.3-17.7,31.2-12.6c0.9,5.1-59.9,35.5-62.2,27.2
		c-2.3-8.3,25.1-35.7,28.1-41.5c3.1-5.7-43.2,27.8-49,23.1s26.8-43.8,21.9-47.6s-34.8-4.2-106.2,61.3
		C84.5,179.2,83.3,179.5,85.7,172.7z"/>
</g>
</svg>
