<svg xmlns="http://www.w3.org/2000/svg" xmlns:xlink="http://www.w3.org/1999/xlink" viewBox="0 0 1281.19 318.38"><defs><style>.cls-1{fill:url(#linear-gradient);}.cls-2{fill:url(#linear-gradient-2);}.cls-3{fill:url(#linear-gradient-3);}.cls-4{fill:url(#linear-gradient-4);}.cls-5{fill:url(#linear-gradient-5);}.cls-6{fill:url(#linear-gradient-6);}.cls-7{fill:url(#linear-gradient-7);}.cls-8{fill:url(#linear-gradient-8);}.cls-9{fill:url(#linear-gradient-9);}.cls-10{fill:url(#linear-gradient-10);}.cls-11{font-size:100px;fill:#231f20;font-family:Righteous-Regular, Righteous;}.cls-12{letter-spacing:-0.04em;}.cls-13{letter-spacing:-0.02em;}.cls-14{letter-spacing:-0.01em;}</style><linearGradient id="linear-gradient" x1="231.58" y1="151.99" x2="102.89" y2="23.3" gradientUnits="userSpaceOnUse"><stop offset="0.03" stop-color="#fff200"/><stop offset="0.11" stop-color="#fddd0d"/><stop offset="0.27" stop-color="#f9a72e"/><stop offset="0.51" stop-color="#f15163"/><stop offset="0.61" stop-color="#ee2a7b"/><stop offset="0.79" stop-color="#c72984"/><stop offset="1" stop-color="#92278f"/></linearGradient><linearGradient id="linear-gradient-2" x1="225.21" y1="306.64" x2="109.26" y2="190.68" xlink:href="#linear-gradient"/><linearGradient id="linear-gradient-3" x1="243.36" y1="230.76" x2="91.11" y2="78.51" xlink:href="#linear-gradient"/><linearGradient id="linear-gradient-4" x1="237.62" y1="178.25" x2="96.85" y2="37.48" xlink:href="#linear-gradient"/><linearGradient id="linear-gradient-5" x1="222.87" y1="124.24" x2="111.6" y2="12.97" xlink:href="#linear-gradient"/><linearGradient id="linear-gradient-6" x1="212.89" y1="95.3" x2="121.57" y2="3.98" xlink:href="#linear-gradient"/><linearGradient id="linear-gradient-7" x1="196.16" y1="321.8" x2="138.31" y2="263.94" xlink:href="#linear-gradient"/><linearGradient id="linear-gradient-8" x1="243.79" y1="259.03" x2="90.68" y2="105.92" xlink:href="#linear-gradient"/><linearGradient id="linear-gradient-9" x1="238.45" y1="285.66" x2="96.01" y2="143.22" xlink:href="#linear-gradient"/><linearGradient id="linear-gradient-10" x1="242.03" y1="206.14" x2="92.44" y2="56.56" xlink:href="#linear-gradient"/></defs><title>Sun</title><g id="Layer_26" data-name="Layer 26"><path class="cls-1" d="M292.91,90.66a144.79,144.79,0,0,0-11.84-17.87H53.4A144.86,144.86,0,0,0,41.55,90.66Z"/><path class="cls-2" d="M282.21,247.68H52.26a144.84,144.84,0,0,0,19.62,21.19H262.59A144.84,144.84,0,0,0,282.21,247.68Z"/><path class="cls-3" d="M311.23,161a145.68,145.68,0,0,0-.82-15.43H24.06A145.67,145.67,0,0,0,23.23,161c0,.65,0,1.29,0,1.93h288C311.22,162.27,311.23,161.63,311.23,161Z"/><path class="cls-4" d="M303,112.87a142.7,142.7,0,0,0-7.6-17.61H39.08a142.7,142.7,0,0,0-7.6,17.61Z"/><path class="cls-5" d="M278.07,69a146.54,146.54,0,0,0-16.63-17H73A145.74,145.74,0,0,0,56.4,69Z"/><path class="cls-6" d="M258.55,49.64a144,144,0,0,0-182.64,0Z"/><path class="cls-7" d="M109.38,292.87a144.25,144.25,0,0,0,115.71,0Z"/><path class="cls-8" d="M307,195.85a142.53,142.53,0,0,0,3.77-23h-287a142.53,142.53,0,0,0,3.77,23Z"/><path class="cls-9" d="M293,231.09a143.87,143.87,0,0,0,10.31-23H31.13a143.82,143.82,0,0,0,10.3,23Z"/><path class="cls-10" d="M309.51,138.66a142.21,142.21,0,0,0-4.27-18.89h-276A142.21,142.21,0,0,0,25,138.66Z"/><text class="cls-11" transform="translate(97.26 195.91)">90’s <tspan class="cls-12" x="230.71" y="0">V</tspan><tspan x="286.43" y="0">aporwa</tspan><tspan class="cls-13" x="643.9" y="0">v</tspan><tspan x="695.61" y="0">e </tspan><tspan class="cls-14" x="776.07" y="0">Ic</tspan><tspan x="853.71" y="0">on Set</tspan></text></g></svg>