<?xml version="1.0" encoding="utf-8"?>
<!-- Generator: Adobe Illustrator 24.1.1, SVG Export Plug-In . SVG Version: 6.00 Build 0)  -->
<svg version="1.1" id="Layer_1" xmlns="http://www.w3.org/2000/svg" xmlns:xlink="http://www.w3.org/1999/xlink" x="0px" y="0px"
	 width="281px" height="269px" viewBox="0 0 281 269" style="enable-background:new 0 0 281 269;" xml:space="preserve">
<style type="text/css">
	.st0{fill:#22EAE0;}
</style>
<g id="graphic-10">
	<path class="st0" d="M36.5,209.7c3.2,4.8,6.7,9.4,10.5,13.7h187c3.8-4.3,7.3-8.9,10.5-13.7H36.5z"/>
	<path class="st0" d="M22.6,181.1c1.6,4.7,3.4,9.3,5.5,13.7h224.8c2.1-4.5,3.9-9,5.5-13.7H22.6z"/>
	<path class="st0" d="M62.4,238.3c6.6,5.3,13.6,9.9,21.1,13.7h113.9c7.5-3.9,14.6-8.5,21.1-13.7H62.4z"/>
	<path class="st0" d="M16.6,152.5c0.4,4.6,1.1,9.2,2,13.7h243.9c0.9-4.5,1.6-9.1,2-13.7H16.6z"/>
	<path class="st0" d="M264.8,137.7c-2-68.7-59.4-122.7-128-120.6C71,19,18.1,71.9,16.2,137.7H264.8z"/>
</g>
</svg>
