<svg xmlns="http://www.w3.org/2000/svg" viewBox="0 0 396.26 362.81"><defs><style>.cls-1{fill:#63c7cb;}</style></defs><title>trumpet</title><g id="trumpet"><path id="Body" class="cls-1" d="M385.69,100.82c-.44-6-5.56-17.29-8.77-23.25A305,305,0,0,0,360.19,51.3c-4.27-5.67-14.56-14.82-18.28-16.79s-7.49-1.93-7.48,2.84,8.3,13.46-5.9,32.65-48,41.85-48,41.85l-76.33,53.82-129,88.64a17.12,17.12,0,0,0-7.5,11.55S31,290,27.17,292.74a9,9,0,0,0-5.36.17c-1.93.57-3.72,3-5.24,2.82-1.83-.88-4.94-.75-5.88,1.58s1.09,6.1,3.19,9.2a32.91,32.91,0,0,0,6.2,6.64c1.41,1.14,4.65-1.69,5-3.07s-.14-2.22,3.27-4.64a8.6,8.6,0,0,0,3.34-6.66l33.66-22.59s-1.6,8.17-.09,13.41a33.17,33.17,0,0,0,9.49,15.31,30.28,30.28,0,0,0,18.89,8c6.11.62,12.78-1.34,16-3.46,2.46-1.6,19.16-12.31,23.93-15.84a18,18,0,0,0,8.33-3.4L219,238s80.94-54.29,84.63-57.53c5.83-5.14,9.72-11.42,10.44-16.05s.92-13.81-.58-18.42A43.35,43.35,0,0,0,305,130.75c-4.69-5.73-9.36-6.24-9.36-6.24s17.55-11.37,32.16-17.78,20.35-7.65,33.59-7.8,15.5,7.31,19.4,8.31S386.13,106.84,385.69,100.82Zm-82.75,42.74.15.23a19.89,19.89,0,0,1-5.58,27.58L104.78,299.25a19.89,19.89,0,0,1-27.58-5.58l-.16-.23a19.91,19.91,0,0,1,5.58-27.59L275.35,138A19.9,19.9,0,0,1,302.94,143.56Z"/><g id="keys-2" data-name="keys"><rect id="keyTub1" class="cls-1" x="161.51" y="194.65" width="14.87" height="93.62" rx="3.72" transform="translate(-105.22 133.38) rotate(-33.5)"/><rect id="keyTub2" class="cls-1" x="176.89" y="184.21" width="14.87" height="93.62" rx="3.72" transform="translate(-96.9 140.13) rotate(-33.5)"/><rect id="keyTub3" class="cls-1" x="191.87" y="174.03" width="14.87" height="93.62" rx="3.72" transform="translate(-88.79 146.71) rotate(-33.5)"/></g><g id="fingerKeys"><path id="right" class="cls-1" d="M136.85,196.54c-.8.12-3.14,3.08-4.86.45-1.17-1.8.23-2.4,4-5.07s5.64-4.11,7-2.18-1.87,3.59-2.74,4.18c1.15,1.85,6,8.86,6,8.86l-3.48,2.16S137.27,197.16,136.85,196.54Z"/><path id="middle" class="cls-1" d="M152.56,185.86c-.8.12-3.14,3.08-4.86.46-1.17-1.8.23-2.4,4-5.07s5.64-4.11,7-2.18-1.88,3.59-2.74,4.18c1.15,1.85,6,8.86,6,8.86l-3.48,2.16S153,186.49,152.56,185.86Z"/><path id="left" class="cls-1" d="M167.69,175.58c-.8.12-3.14,3.08-4.86.46-1.17-1.8.23-2.4,4-5.07s5.64-4.11,7-2.18-1.87,3.59-2.74,4.18c1.15,1.85,6,8.86,6,8.86L173.61,184S168.11,176.21,167.69,175.58Z"/></g></g></svg>