<?xml version="1.0" encoding="utf-8"?>
<!-- Generator: Adobe Illustrator 24.0.2, SVG Export Plug-In . SVG Version: 6.00 Build 0)  -->
<svg version="1.1" id="Layer_1" xmlns="http://www.w3.org/2000/svg" xmlns:xlink="http://www.w3.org/1999/xlink" x="0px" y="0px"
	 viewBox="0 0 396.3 362.8" style="enable-background:new 0 0 396.3 362.8;" xml:space="preserve">
<style type="text/css">
	.st0{fill:url(#Body_1_);}
	.st1{fill:url(#keyTub1_1_);}
	.st2{fill:url(#keyTub2_1_);}
	.st3{fill:url(#keyTub3_1_);}
	.st4{fill:url(#right_1_);}
	.st5{fill:url(#middle_1_);}
	.st6{fill:url(#left_1_);}
</style>
<title>trumpet</title>
<g id="trumpet">
	<linearGradient id="Body_1_" gradientUnits="userSpaceOnUse" x1="10.4538" y1="173.3491" x2="385.7663" y2="173.3491">
		<stop  offset="0" style="stop-color:#B2D235"/>
		<stop  offset="0.15" style="stop-color:#B2D235"/>
		<stop  offset="0.3001" style="stop-color:#B2D235"/>
		<stop  offset="0.43" style="stop-color:#75C26D"/>
		<stop  offset="0.57" style="stop-color:#66BF6D"/>
		<stop  offset="0.7" style="stop-color:#5CB3AD"/>
		<stop  offset="0.84" style="stop-color:#5CB3AD"/>
		<stop  offset="0.9398" style="stop-color:#00AEEF"/>
		<stop  offset="1" style="stop-color:#0083CA"/>
	</linearGradient>
	<path id="Body" class="st0" d="M385.7,100.8c-0.4-6-5.6-17.3-8.8-23.3c-5.1-9-10.7-17.8-16.7-26.3c-4.3-5.7-14.6-14.8-18.3-16.8
		s-7.5-1.9-7.5,2.8s8.3,13.5-5.9,32.7s-48,41.8-48,41.8l-76.3,53.8l-129,88.6c-4,2.6-6.7,6.8-7.5,11.5c0,0-36.7,24.1-40.5,26.9
		c-1.8-0.5-3.6-0.4-5.4,0.2c-1.9,0.6-3.7,3-5.2,2.8c-1.8-0.9-4.9-0.8-5.9,1.6s1.1,6.1,3.2,9.2c1.7,2.5,3.8,4.7,6.2,6.6
		c1.4,1.1,4.6-1.7,5-3.1s-0.1-2.2,3.3-4.6c2.1-1.6,3.3-4,3.3-6.7l33.7-22.6c0,0-1.6,8.2-0.1,13.4c1.7,5.9,5,11.2,9.5,15.3
		c5.2,4.8,11.9,7.6,18.9,8c6.1,0.6,12.8-1.3,16-3.5c2.5-1.6,19.2-12.3,23.9-15.8c3-0.4,5.9-1.6,8.3-3.4L219,238
		c0,0,80.9-54.3,84.6-57.5c5.8-5.1,9.7-11.4,10.4-16.1s0.9-13.8-0.6-18.4c-1.8-5.6-4.7-10.8-8.5-15.3c-4.7-5.7-9.4-6.2-9.4-6.2
		s17.5-11.4,32.2-17.8s20.4-7.7,33.6-7.8s15.5,7.3,19.4,8.3S386.1,106.8,385.7,100.8z M302.9,143.6l0.1,0.2
		c6.1,9.2,3.6,21.5-5.6,27.6c0,0,0,0,0,0L104.8,299.3c-9.2,6.1-21.5,3.6-27.6-5.6c0,0,0,0,0,0l-0.2-0.2c-6.1-9.2-3.6-21.5,5.6-27.6
		L275.4,138C284.5,131.9,296.9,134.4,302.9,143.6C302.9,143.6,302.9,143.6,302.9,143.6z"/>
	<g id="keys-2">
		<linearGradient id="keyTub1_1_" gradientUnits="userSpaceOnUse" x1="138.3303" y1="241.4831" x2="199.5328" y2="241.4831">
			<stop  offset="0" style="stop-color:#B2D235"/>
			<stop  offset="0.15" style="stop-color:#B2D235"/>
			<stop  offset="0.3001" style="stop-color:#B2D235"/>
			<stop  offset="0.43" style="stop-color:#75C26D"/>
			<stop  offset="0.57" style="stop-color:#66BF6D"/>
			<stop  offset="0.7" style="stop-color:#5CB3AD"/>
			<stop  offset="0.84" style="stop-color:#5CB3AD"/>
			<stop  offset="0.9398" style="stop-color:#00AEEF"/>
			<stop  offset="1" style="stop-color:#0083CA"/>
		</linearGradient>
		<path id="keyTub1" class="st1" d="M140,204.5l6.2-4.1c1.7-1.1,4-0.7,5.2,1l47.6,71.9c1.1,1.7,0.7,4-1,5.2l-6.2,4.1
			c-1.7,1.1-4,0.7-5.2-1l-47.6-71.9C137.8,207.9,138.3,205.6,140,204.5z"/>
		<linearGradient id="keyTub2_1_" gradientUnits="userSpaceOnUse" x1="153.7132" y1="231.0385" x2="214.9158" y2="231.0385">
			<stop  offset="0" style="stop-color:#B2D235"/>
			<stop  offset="0.15" style="stop-color:#B2D235"/>
			<stop  offset="0.3001" style="stop-color:#B2D235"/>
			<stop  offset="0.43" style="stop-color:#75C26D"/>
			<stop  offset="0.57" style="stop-color:#66BF6D"/>
			<stop  offset="0.7" style="stop-color:#5CB3AD"/>
			<stop  offset="0.84" style="stop-color:#5CB3AD"/>
			<stop  offset="0.9398" style="stop-color:#00AEEF"/>
			<stop  offset="1" style="stop-color:#0083CA"/>
		</linearGradient>
		<path id="keyTub2" class="st2" d="M155.4,194.1l6.2-4.1c1.7-1.1,4-0.7,5.2,1l47.6,71.9c1.1,1.7,0.7,4-1,5.2l-6.2,4.1
			c-1.7,1.1-4,0.7-5.2-1l-47.6-71.9C153.2,197.5,153.7,195.2,155.4,194.1z"/>
		<linearGradient id="keyTub3_1_" gradientUnits="userSpaceOnUse" x1="168.6961" y1="220.8616" x2="229.8986" y2="220.8616">
			<stop  offset="0" style="stop-color:#B2D235"/>
			<stop  offset="0.15" style="stop-color:#B2D235"/>
			<stop  offset="0.3001" style="stop-color:#B2D235"/>
			<stop  offset="0.43" style="stop-color:#75C26D"/>
			<stop  offset="0.57" style="stop-color:#66BF6D"/>
			<stop  offset="0.7" style="stop-color:#5CB3AD"/>
			<stop  offset="0.84" style="stop-color:#5CB3AD"/>
			<stop  offset="0.9398" style="stop-color:#00AEEF"/>
			<stop  offset="1" style="stop-color:#0083CA"/>
		</linearGradient>
		<path id="keyTub3" class="st3" d="M170.4,183.9l6.2-4.1c1.7-1.1,4-0.7,5.2,1l47.6,71.9c1.1,1.7,0.7,4-1,5.2l-6.2,4.1
			c-1.7,1.1-4,0.7-5.2-1L169.3,189C168.2,187.3,168.7,185,170.4,183.9z"/>
	</g>
	<g id="fingerKeys">
		<linearGradient id="right_1_" gradientUnits="userSpaceOnUse" x1="131.5881" y1="196.8961" x2="146.25" y2="196.8961">
			<stop  offset="0" style="stop-color:#B2D235"/>
			<stop  offset="0.15" style="stop-color:#B2D235"/>
			<stop  offset="0.3001" style="stop-color:#B2D235"/>
			<stop  offset="0.43" style="stop-color:#75C26D"/>
			<stop  offset="0.57" style="stop-color:#66BF6D"/>
			<stop  offset="0.7" style="stop-color:#5CB3AD"/>
			<stop  offset="0.84" style="stop-color:#5CB3AD"/>
			<stop  offset="0.9398" style="stop-color:#00AEEF"/>
			<stop  offset="1" style="stop-color:#0083CA"/>
		</linearGradient>
		<path id="right" class="st4" d="M136.9,196.5c-0.8,0.1-3.1,3.1-4.9,0.4c-1.2-1.8,0.2-2.4,4-5.1s5.6-4.1,7-2.2s-1.9,3.6-2.7,4.2
			c1.1,1.9,6,8.9,6,8.9l-3.5,2.2C142.8,204.9,137.3,197.2,136.9,196.5z"/>
		<linearGradient id="middle_1_" gradientUnits="userSpaceOnUse" x1="147.2981" y1="186.2262" x2="161.96" y2="186.2262">
			<stop  offset="0" style="stop-color:#B2D235"/>
			<stop  offset="0.15" style="stop-color:#B2D235"/>
			<stop  offset="0.3001" style="stop-color:#B2D235"/>
			<stop  offset="0.43" style="stop-color:#75C26D"/>
			<stop  offset="0.57" style="stop-color:#66BF6D"/>
			<stop  offset="0.7" style="stop-color:#5CB3AD"/>
			<stop  offset="0.84" style="stop-color:#5CB3AD"/>
			<stop  offset="0.9398" style="stop-color:#00AEEF"/>
			<stop  offset="1" style="stop-color:#0083CA"/>
		</linearGradient>
		<path id="middle" class="st5" d="M152.6,185.9c-0.8,0.1-3.1,3.1-4.9,0.5c-1.2-1.8,0.2-2.4,4-5.1s5.6-4.1,7-2.2s-1.9,3.6-2.7,4.2
			c1.1,1.9,6,8.9,6,8.9l-3.5,2.2C158.5,194.3,153,186.5,152.6,185.9z"/>
		<linearGradient id="left_1_" gradientUnits="userSpaceOnUse" x1="162.4281" y1="175.9512" x2="177.09" y2="175.9512">
			<stop  offset="0" style="stop-color:#B2D235"/>
			<stop  offset="0.15" style="stop-color:#B2D235"/>
			<stop  offset="0.3001" style="stop-color:#B2D235"/>
			<stop  offset="0.43" style="stop-color:#75C26D"/>
			<stop  offset="0.57" style="stop-color:#66BF6D"/>
			<stop  offset="0.7" style="stop-color:#5CB3AD"/>
			<stop  offset="0.84" style="stop-color:#5CB3AD"/>
			<stop  offset="0.9398" style="stop-color:#00AEEF"/>
			<stop  offset="1" style="stop-color:#0083CA"/>
		</linearGradient>
		<path id="left" class="st6" d="M167.7,175.6c-0.8,0.1-3.1,3.1-4.9,0.5c-1.2-1.8,0.2-2.4,4-5.1s5.6-4.1,7-2.2s-1.9,3.6-2.7,4.2
			c1.1,1.9,6,8.9,6,8.9l-3.5,2.2C173.6,184,168.1,176.2,167.7,175.6z"/>
	</g>
</g>
</svg>
