<svg id="vaporW" xmlns="http://www.w3.org/2000/svg" viewBox="0 0 818.41 87.13"><defs><style>.cls-1{opacity:0.7;}.cls-2{fill:aqua;}.cls-3{opacity:0.38;}.cls-4{fill:#ff7be3;}.cls-5{fill:#ffc0f2;}</style></defs><title>vaporTitle</title><g class="cls-1"><path class="cls-2" d="M87.3,16.69,66.92,76H51.39L31,16.69H46.45l12.9,40.17,12.9-40.17Z"/><path class="cls-2" d="M83.41,76l20-59.28h16.25L139.7,76H124.38l-3.71-12.1H102L98.34,76Zm34-22.85-6-19.55-6,19.55Z"/><path class="cls-2" d="M188.21,35.4a23.55,23.55,0,0,1-1.32,7.89,16.6,16.6,0,0,1-3.78,6.25,25.56,25.56,0,0,1-3.33,2.86,19.35,19.35,0,0,1-4,2.23A24.86,24.86,0,0,1,171,56.07a29.73,29.73,0,0,1-5.76.51h-7.8V76H142.58V16.69h23a36.35,36.35,0,0,1,8.86.94,21.38,21.38,0,0,1,6.75,3,14.9,14.9,0,0,1,5.17,6A19.85,19.85,0,0,1,188.21,35.4Zm-15.29.36a7.65,7.65,0,0,0-1.2-4.32A6.28,6.28,0,0,0,168.86,29a12.18,12.18,0,0,0-4.05-1.06c-1.28-.09-3-.14-5.23-.14h-2.11V45.52h1c1.41,0,2.74,0,4,0a22.79,22.79,0,0,0,3.26-.28,10.55,10.55,0,0,0,2.53-.78,6.46,6.46,0,0,0,2.05-1.29,7.85,7.85,0,0,0,2-3.07A13.78,13.78,0,0,0,172.92,35.76Z"/><path class="cls-2" d="M247.14,46.35q0,14.37-7.69,22.62t-21.06,8.24q-13.41,0-21.06-8.34t-7.64-22.52q0-14.3,7.64-22.59t21.06-8.3q13.38,0,21.06,8.26T247.14,46.35Zm-15.37,0a32.2,32.2,0,0,0-1.1-9,18.64,18.64,0,0,0-2.92-6.12,11.43,11.43,0,0,0-4.32-3.48,12.39,12.39,0,0,0-5-1.05,12.24,12.24,0,0,0-5,1,11.93,11.93,0,0,0-4.3,3.48,18,18,0,0,0-3,6.14,32,32,0,0,0-1.14,9.11,32.08,32.08,0,0,0,1.08,9.06,18.45,18.45,0,0,0,3,6A11.14,11.14,0,0,0,213.42,65a12.47,12.47,0,0,0,5,1,12.21,12.21,0,0,0,5.1-1.13,11.17,11.17,0,0,0,4.26-3.53,19.47,19.47,0,0,0,2.94-6A32.12,32.12,0,0,0,231.77,46.31Z"/><path class="cls-2" d="M307.74,76H289.59L273.06,54.24h-5.33V76H252.92V16.69h23.85a52.63,52.63,0,0,1,8.6.62,18.28,18.28,0,0,1,6.76,2.57A15.46,15.46,0,0,1,297.19,25,15.26,15.26,0,0,1,299.06,33c0,4.53-1,8.22-3.06,11a21.57,21.57,0,0,1-8.21,6.75Zm-24-41.12a8.13,8.13,0,0,0-.85-3.85,5.63,5.63,0,0,0-2.85-2.48,10.28,10.28,0,0,0-3.11-.76c-1.14-.11-2.56-.16-4.25-.16h-5v16H272a31.4,31.4,0,0,0,5.27-.38A7.86,7.86,0,0,0,281,41.58a7.17,7.17,0,0,0,2.13-2.67A10.12,10.12,0,0,0,283.77,34.85Z"/><path class="cls-2" d="M385.58,16.69,370.57,76H354.25l-9.51-36.66L335.5,76H319.18l-15-59.28h15.44l8.17,39.78,10-39.78H352.5l9.43,39.78,8.6-39.78Z"/><path class="cls-2" d="M383.52,76l20-59.28h16.24l20,59.28H424.49l-3.7-12.1H402.15L398.45,76Zm34-22.85-6-19.55-6.05,19.55Z"/><path class="cls-2" d="M487.33,16.69,466.94,76H451.42L431,16.69h15.45l12.9,40.17,12.9-40.17Z"/><path class="cls-2" d="M489.8,76V16.69h40.1V28H504.62V38.39h23.29V49.7H504.62v15H529.9V76Z"/><path class="cls-2" d="M571.36,24.89H556.63V14h14.73ZM571,76H557V31.26H571Z"/><path class="cls-2" d="M605,77.13q-13.34,0-21.18-8.06T576,46.39q0-14.08,7.86-22.47T605,15.54a45.25,45.25,0,0,1,6.37.4,41.24,41.24,0,0,1,5.42,1.11,39,39,0,0,1,4.41,1.63c1.6.69,2.88,1.29,3.87,1.79V34.61h-1.52c-.71-.64-1.62-1.4-2.7-2.29a34.36,34.36,0,0,0-3.71-2.61,24.83,24.83,0,0,0-4.55-2.17,15.2,15.2,0,0,0-5.2-.89,16.52,16.52,0,0,0-5.91,1,14.24,14.24,0,0,0-5.12,3.52,16.87,16.87,0,0,0-3.64,6.14,26.54,26.54,0,0,0-1.41,9.11,25.7,25.7,0,0,0,1.47,9.3,16.81,16.81,0,0,0,3.86,6.07A14.1,14.1,0,0,0,601.81,65a17.1,17.1,0,0,0,5.67,1,16,16,0,0,0,5.61-1,22.5,22.5,0,0,0,4.5-2.16,30.65,30.65,0,0,0,3.51-2.51c1-.85,1.88-1.61,2.62-2.27h1.36V72c-1.09.51-2.35,1.08-3.79,1.73a34.41,34.41,0,0,1-4.41,1.66,49.06,49.06,0,0,1-5.22,1.27A39.9,39.9,0,0,1,605,77.13Z"/><path class="cls-2" d="M684.8,46.35q0,14.37-7.68,22.62t-21.06,8.24q-13.41,0-21.06-8.34t-7.65-22.52q0-14.3,7.65-22.59t21.06-8.3q13.38,0,21.06,8.26T684.8,46.35Zm-15.36,0a32.2,32.2,0,0,0-1.1-9,18.64,18.64,0,0,0-2.92-6.12,11.43,11.43,0,0,0-4.32-3.48,12.83,12.83,0,0,0-10-.08,12,12,0,0,0-4.3,3.48,18,18,0,0,0-3,6.14,32,32,0,0,0-1.14,9.11,32.08,32.08,0,0,0,1.08,9.06,18.44,18.44,0,0,0,2.94,6A11.21,11.21,0,0,0,651.08,65a12.52,12.52,0,0,0,5,1,12.21,12.21,0,0,0,5.1-1.13,11.17,11.17,0,0,0,4.26-3.53,19.47,19.47,0,0,0,2.94-6A32.12,32.12,0,0,0,669.44,46.31Z"/><path class="cls-2" d="M741.39,76H727.05L704.2,34.65V76H690.59V16.69h18.27l18.91,34v-34h13.62Z"/><path class="cls-2" d="M768.71,77.05a48.57,48.57,0,0,1-12-1.32,60.72,60.72,0,0,1-9.57-3.26V58.38h1.35a33.5,33.5,0,0,0,9.84,5.81,29.5,29.5,0,0,0,10.43,2,25.85,25.85,0,0,0,3.36-.28,11.53,11.53,0,0,0,3.37-.88,7.35,7.35,0,0,0,2.62-1.89,4.63,4.63,0,0,0,1.08-3.2,4.43,4.43,0,0,0-1.75-3.62,11.1,11.1,0,0,0-4.18-2q-3-.8-6.47-1.52a50.42,50.42,0,0,1-6.43-1.75q-6.9-2.43-9.88-6.53a17,17,0,0,1-3-10.27,16,16,0,0,1,7-13.48q7-5.14,17.6-5.15a52.7,52.7,0,0,1,10.53,1.07,46.39,46.39,0,0,1,9.38,2.91V33.13h-1.32a29.57,29.57,0,0,0-8.06-4.77,25.54,25.54,0,0,0-9.77-1.95,19.66,19.66,0,0,0-3.51.28,13.19,13.19,0,0,0-3.26,1.07,6.75,6.75,0,0,0-2.41,1.89,4.33,4.33,0,0,0-1,2.81,4.41,4.41,0,0,0,1.61,3.6q1.6,1.34,6.23,2.41l5.75,1.31a53.18,53.18,0,0,1,5.91,1.76q6.18,2.22,9.18,6t3,9.93a17.09,17.09,0,0,1-6.95,14.21Q780.54,77.06,768.71,77.05Z"/></g><g class="cls-3"><path class="cls-2" d="M80.31,11.13,59.93,70.41H44.4L24,11.13H39.46L52.36,51.3l12.9-40.17Z"/><path class="cls-2" d="M76.42,70.41l20-59.28h16.25l20,59.28H117.39l-3.71-12.1H95.05l-3.7,12.1Zm34-22.85-6-19.55L98.32,47.56Z"/><path class="cls-2" d="M181.21,29.84a23.48,23.48,0,0,1-1.31,7.88A16.53,16.53,0,0,1,176.12,44a25.63,25.63,0,0,1-3.33,2.87,19.35,19.35,0,0,1-4,2.23A24.86,24.86,0,0,1,164,50.5a28.93,28.93,0,0,1-5.76.52h-7.8V70.41H135.59V11.13h23a36.89,36.89,0,0,1,8.86.93,21.63,21.63,0,0,1,6.75,3,14.93,14.93,0,0,1,5.17,6A19.9,19.9,0,0,1,181.21,29.84Zm-15.28.36a7.65,7.65,0,0,0-1.2-4.32,6.25,6.25,0,0,0-2.86-2.49,12.68,12.68,0,0,0-4.05-1.06c-1.28-.09-3-.13-5.23-.13h-2.11V40h1c1.41,0,2.74,0,4,0a21.43,21.43,0,0,0,3.26-.28,11,11,0,0,0,2.53-.77,6.65,6.65,0,0,0,2.05-1.3,7.82,7.82,0,0,0,2-3.06A13.82,13.82,0,0,0,165.93,30.2Z"/><path class="cls-2" d="M240.15,40.79q0,14.37-7.69,22.61T211.4,71.64q-13.41,0-21.06-8.34T182.7,40.79q0-14.29,7.64-22.6t21.06-8.3q13.38,0,21.06,8.27T240.15,40.79Zm-15.37,0a32.28,32.28,0,0,0-1.1-9,18.59,18.59,0,0,0-2.92-6.11,11.33,11.33,0,0,0-4.32-3.48,12.72,12.72,0,0,0-10-.08,11.9,11.9,0,0,0-4.29,3.48,18,18,0,0,0-3,6.13,32.16,32.16,0,0,0-1.14,9.12,32.18,32.18,0,0,0,1.08,9.06,18.45,18.45,0,0,0,3,6,11.15,11.15,0,0,0,4.33,3.52,12.57,12.57,0,0,0,5,1.06,12.06,12.06,0,0,0,5.1-1.14,11.23,11.23,0,0,0,4.26-3.52,19.69,19.69,0,0,0,2.94-6A32.22,32.22,0,0,0,224.78,40.75Z"/><path class="cls-2" d="M300.75,70.41H282.6L266.07,48.67h-5.33V70.41H245.93V11.13h23.85a51.54,51.54,0,0,1,8.6.62,18.26,18.26,0,0,1,6.76,2.56,15.58,15.58,0,0,1,5.06,5.16,15.23,15.23,0,0,1,1.87,7.94q0,6.81-3.06,11.05a21.57,21.57,0,0,1-8.21,6.75Zm-24-41.13a8.12,8.12,0,0,0-.85-3.84A5.69,5.69,0,0,0,273.08,23,10,10,0,0,0,270,22.2c-1.14-.11-2.56-.16-4.26-.16h-5V38H265a30.38,30.38,0,0,0,5.27-.38A7.86,7.86,0,0,0,274,36a7,7,0,0,0,2.13-2.67A10.05,10.05,0,0,0,276.78,29.28Z"/><path class="cls-2" d="M378.59,11.13l-15,59.28H347.26l-9.51-36.67-9.24,36.67H312.19l-15-59.28h15.44l8.17,39.77,9.95-39.77h14.77l9.43,39.77,8.6-39.77Z"/><path class="cls-2" d="M376.53,70.41l20-59.28H412.8l20,59.28H417.5l-3.7-12.1H395.16l-3.7,12.1Zm34-22.85-6-19.55-6.05,19.55Z"/><path class="cls-2" d="M480.34,11.13,460,70.41H444.43L424,11.13h15.45l12.9,40.17,12.9-40.17Z"/><path class="cls-2" d="M482.81,70.41V11.13h40.1v11.3H497.63v10.4h23.29v11.3H497.63v15h25.28V70.41Z"/><path class="cls-2" d="M564.37,19.33H549.64V8.46h14.73ZM564,70.41H550V25.7H564Z"/><path class="cls-2" d="M598,71.56q-13.34,0-21.18-8.06T569,40.83q0-14.1,7.86-22.48T598,10a46.81,46.81,0,0,1,6.37.4,42.93,42.93,0,0,1,5.42,1.12,37.11,37.11,0,0,1,4.41,1.63c1.6.69,2.88,1.29,3.87,1.79V29h-1.52c-.71-.63-1.62-1.4-2.7-2.29a35.81,35.81,0,0,0-3.71-2.6A24.2,24.2,0,0,0,605.61,22a15.21,15.21,0,0,0-5.2-.9,16.52,16.52,0,0,0-5.91,1,14.12,14.12,0,0,0-5.12,3.52,16.82,16.82,0,0,0-3.64,6.13,26.6,26.6,0,0,0-1.41,9.12,25.6,25.6,0,0,0,1.47,9.29,16.86,16.86,0,0,0,3.86,6.08,14.08,14.08,0,0,0,5.16,3.22,17.12,17.12,0,0,0,5.67,1,16.23,16.23,0,0,0,5.61-1,22,22,0,0,0,4.5-2.17,29.47,29.47,0,0,0,3.51-2.51c1-.85,1.88-1.6,2.62-2.27h1.36V66.47L614.3,68.2a33.94,33.94,0,0,1-4.42,1.65,48.51,48.51,0,0,1-5.21,1.28A40.08,40.08,0,0,1,598,71.56Z"/><path class="cls-2" d="M677.81,40.79q0,14.37-7.68,22.61t-21.06,8.24q-13.41,0-21.06-8.34t-7.65-22.51q0-14.29,7.65-22.6t21.06-8.3q13.38,0,21.06,8.27T677.81,40.79Zm-15.36,0a32.28,32.28,0,0,0-1.1-9,18.59,18.59,0,0,0-2.92-6.11,11.33,11.33,0,0,0-4.32-3.48,12.72,12.72,0,0,0-10-.08,12,12,0,0,0-4.3,3.48,18,18,0,0,0-3,6.13,32.16,32.16,0,0,0-1.14,9.12,32.18,32.18,0,0,0,1.08,9.06,18.44,18.44,0,0,0,2.94,6,11.18,11.18,0,0,0,4.34,3.52,12.53,12.53,0,0,0,5,1.06,12.06,12.06,0,0,0,5.1-1.14,11.23,11.23,0,0,0,4.26-3.52,19.69,19.69,0,0,0,2.94-6A32.22,32.22,0,0,0,662.45,40.75Z"/><path class="cls-2" d="M734.4,70.41H720.06L697.21,29.08V70.41H683.6V11.13h18.27l18.91,34v-34H734.4Z"/><path class="cls-2" d="M761.72,71.48a48.6,48.6,0,0,1-12-1.31,61.75,61.75,0,0,1-9.57-3.26V52.81h1.35a33.4,33.4,0,0,0,9.84,5.82,29.5,29.5,0,0,0,10.43,2,27.77,27.77,0,0,0,3.36-.28,11.85,11.85,0,0,0,3.37-.88,7.35,7.35,0,0,0,2.62-1.89,4.65,4.65,0,0,0,1.08-3.21,4.44,4.44,0,0,0-1.75-3.62,11.25,11.25,0,0,0-4.18-2q-3-.8-6.47-1.51a52.13,52.13,0,0,1-6.43-1.75q-6.9-2.43-9.88-6.53a17,17,0,0,1-3-10.27,16,16,0,0,1,7-13.48q7-5.16,17.6-5.16a52,52,0,0,1,10.53,1.08,45.77,45.77,0,0,1,9.38,2.9V27.57h-1.32a29.59,29.59,0,0,0-8.06-4.78,25.54,25.54,0,0,0-9.77-1.95,20.63,20.63,0,0,0-3.51.28,13.67,13.67,0,0,0-3.26,1.08,6.54,6.54,0,0,0-2.41,1.89,4.31,4.31,0,0,0-1,2.8,4.42,4.42,0,0,0,1.61,3.61q1.6,1.34,6.23,2.41c2,.45,3.91.88,5.75,1.31A53,53,0,0,1,775.25,36q6.18,2.23,9.18,6t3,9.94a17.09,17.09,0,0,1-7,14.21Q773.55,71.48,761.72,71.48Z"/></g><path class="cls-4" d="M83.92,13.79,63.54,73.07H48L27.63,13.79H43.08L56,54l12.9-40.17Z"/><path class="cls-4" d="M80,73.07l20-59.28H116.3l20,59.28H121L117.3,61H98.66L95,73.07Zm34-22.85-6-19.55-6,19.55Z"/><path class="cls-4" d="M184.83,32.5a23.84,23.84,0,0,1-1.31,7.89,16.62,16.62,0,0,1-3.79,6.25,25.47,25.47,0,0,1-3.32,2.86,19.61,19.61,0,0,1-4,2.23,25.71,25.71,0,0,1-4.76,1.44,29.63,29.63,0,0,1-5.75.51h-7.81V73.07H139.2V13.79h23a36.35,36.35,0,0,1,8.86.94,21.38,21.38,0,0,1,6.75,3,14.92,14.92,0,0,1,5.18,6A19.86,19.86,0,0,1,184.83,32.5Zm-15.29.36a7.73,7.73,0,0,0-1.19-4.32,6.38,6.38,0,0,0-2.87-2.49,12.34,12.34,0,0,0-4-1.05c-1.29-.09-3-.14-5.24-.14h-2.11V42.62h1c1.4,0,2.73,0,4,0a22.66,22.66,0,0,0,3.26-.28,11,11,0,0,0,2.53-.78,6.52,6.52,0,0,0,2-1.29A7.74,7.74,0,0,0,169,37.16,13.78,13.78,0,0,0,169.54,32.86Z"/><path class="cls-4" d="M243.76,43.45q0,14.37-7.68,22.62T215,74.31Q201.59,74.31,194,66t-7.64-22.52q0-14.3,7.64-22.59T215,12.56q13.36,0,21.06,8.26T243.76,43.45Zm-15.37,0a32.23,32.23,0,0,0-1.09-9,18.65,18.65,0,0,0-2.93-6.12,11.19,11.19,0,0,0-4.32-3.48,12.69,12.69,0,0,0-10-.08,11.93,11.93,0,0,0-4.3,3.48,18.25,18.25,0,0,0-3,6.13,32.55,32.55,0,0,0-1.13,9.12,32.49,32.49,0,0,0,1.07,9.06,18.45,18.45,0,0,0,2.95,6A11,11,0,0,0,210,62.06a12.37,12.37,0,0,0,5,1.06A12,12,0,0,0,220.15,62a11,11,0,0,0,4.26-3.52,19.27,19.27,0,0,0,3-6A32.22,32.22,0,0,0,228.39,43.41Z"/><path class="cls-4" d="M304.36,73.07H286.21L269.69,51.33h-5.34V73.07H249.54V13.79h23.85a52.54,52.54,0,0,1,8.6.62A18.32,18.32,0,0,1,288.76,17a15.43,15.43,0,0,1,5.05,5.15,15.25,15.25,0,0,1,1.88,7.94q0,6.81-3.07,11a21.61,21.61,0,0,1-8.2,6.75ZM280.4,32a8.13,8.13,0,0,0-.86-3.85,5.63,5.63,0,0,0-2.85-2.48,10.22,10.22,0,0,0-3.1-.76c-1.14-.11-2.56-.16-4.26-.16h-5v16h4.26a31.61,31.61,0,0,0,5.28-.38,7.88,7.88,0,0,0,3.68-1.62A6.88,6.88,0,0,0,279.7,36,10.11,10.11,0,0,0,280.4,32Z"/><path class="cls-4" d="M382.21,13.79l-15,59.28H350.87L341.36,36.4l-9.24,36.67H315.8l-15-59.28h15.45l8.16,39.77,10-39.77h14.77l9.44,39.77,8.6-39.77Z"/><path class="cls-4" d="M380.15,73.07l20-59.28h16.24l20,59.28H421.11L417.41,61H398.78l-3.7,12.1Zm34-22.85-6.06-19.55-6,19.55Z"/><path class="cls-4" d="M484,13.79,463.57,73.07H448L427.66,13.79H443.1L456,54l12.9-40.17Z"/><path class="cls-4" d="M486.43,73.07V13.79h40.09V25.1H501.24V35.49h23.29V46.8H501.24v15h25.28v11.3Z"/><path class="cls-4" d="M568,22H553.25V11.12H568Zm-.39,51.08H553.65V28.36h13.94Z"/><path class="cls-4" d="M601.6,74.23q-13.35,0-21.19-8.06t-7.84-22.68q0-14.08,7.86-22.47t21.2-8.38A46.81,46.81,0,0,1,608,13a42.93,42.93,0,0,1,5.42,1.12,39.06,39.06,0,0,1,4.42,1.63c1.59.69,2.88,1.29,3.86,1.79V31.71h-1.51c-.72-.64-1.62-1.4-2.71-2.29a34.19,34.19,0,0,0-3.7-2.61,24.62,24.62,0,0,0-4.56-2.17,15.17,15.17,0,0,0-5.2-.9,16.52,16.52,0,0,0-5.91,1A14.13,14.13,0,0,0,593,28.28a16.92,16.92,0,0,0-3.65,6.13,26.64,26.64,0,0,0-1.41,9.12,25.7,25.7,0,0,0,1.47,9.3,16.81,16.81,0,0,0,3.86,6.07,14,14,0,0,0,5.16,3.22,17,17,0,0,0,5.67,1,16.24,16.24,0,0,0,5.62-1,22.49,22.49,0,0,0,4.5-2.17,30.13,30.13,0,0,0,3.5-2.5c1-.85,1.88-1.61,2.63-2.27h1.35V69.13c-1.09.51-2.35,1.08-3.78,1.73a36.74,36.74,0,0,1-4.42,1.66,49.06,49.06,0,0,1-5.22,1.27A39.77,39.77,0,0,1,601.6,74.23Z"/><path class="cls-4" d="M681.43,43.45q0,14.37-7.68,22.62t-21.07,8.24q-13.41,0-21.06-8.34T624,43.45q0-14.3,7.64-22.59t21.06-8.3q13.38,0,21.07,8.26T681.43,43.45Zm-15.37,0a32.23,32.23,0,0,0-1.09-9A18.65,18.65,0,0,0,662,28.28a11.19,11.19,0,0,0-4.32-3.48,12.4,12.4,0,0,0-5-1.06,12.25,12.25,0,0,0-5,1,11.93,11.93,0,0,0-4.3,3.48,18.25,18.25,0,0,0-3,6.13,32.18,32.18,0,0,0-1.13,9.12,32.12,32.12,0,0,0,1.07,9.06,18.45,18.45,0,0,0,3,6,11,11,0,0,0,4.34,3.52,12.35,12.35,0,0,0,5,1.06,12,12,0,0,0,5.1-1.14,11.06,11.06,0,0,0,4.26-3.52,19.49,19.49,0,0,0,2.95-6A32.22,32.22,0,0,0,666.06,43.41Z"/><path class="cls-4" d="M738,73.07H723.68L700.83,31.75V73.07H687.21V13.79h18.27l18.92,34v-34H738Z"/><path class="cls-4" d="M765.33,74.15a48.43,48.43,0,0,1-12-1.32,60.49,60.49,0,0,1-9.58-3.26V55.48h1.36A33.45,33.45,0,0,0,755,61.29a29.5,29.5,0,0,0,10.43,2,26.12,26.12,0,0,0,3.37-.28,11.77,11.77,0,0,0,3.36-.88,7.48,7.48,0,0,0,2.63-1.89,4.67,4.67,0,0,0,1.07-3.2,4.42,4.42,0,0,0-1.75-3.63,11.4,11.4,0,0,0-4.18-2c-2-.53-4.17-1-6.47-1.51A52.13,52.13,0,0,1,757,48.15q-6.88-2.43-9.87-6.53a17,17,0,0,1-3-10.27,16,16,0,0,1,7.05-13.48q7-5.15,17.6-5.15a52,52,0,0,1,10.53,1.07,46.29,46.29,0,0,1,9.37,2.91V30.23h-1.31a29.72,29.72,0,0,0-8.06-4.77,25.59,25.59,0,0,0-9.78-1.95,20.49,20.49,0,0,0-3.5.27,13.59,13.59,0,0,0-3.27,1.08,6.43,6.43,0,0,0-2.4,1.89,4.34,4.34,0,0,0-1,2.81,4.44,4.44,0,0,0,1.61,3.6c1.08.89,3.15,1.69,6.23,2.41L773,36.88a56.63,56.63,0,0,1,5.91,1.75q6.17,2.23,9.17,6c2,2.5,3,5.82,3,9.93a17.06,17.06,0,0,1-6.95,14.21Q777.16,74.16,765.33,74.15Z"/><g class="cls-3"><path class="cls-5" d="M80.31,11.13,59.93,70.41H44.4L24,11.13H39.46L52.36,51.3l12.9-40.17Z"/><path class="cls-5" d="M76.42,70.41l20-59.28h16.25l20,59.28H117.39l-3.71-12.1H95.05l-3.7,12.1Zm34-22.85-6-19.55L98.32,47.56Z"/><path class="cls-5" d="M181.21,29.84a23.48,23.48,0,0,1-1.31,7.88A16.53,16.53,0,0,1,176.12,44a25.63,25.63,0,0,1-3.33,2.87,19.35,19.35,0,0,1-4,2.23A24.86,24.86,0,0,1,164,50.5a28.93,28.93,0,0,1-5.76.52h-7.8V70.41H135.59V11.13h23a36.89,36.89,0,0,1,8.86.93,21.63,21.63,0,0,1,6.75,3,14.93,14.93,0,0,1,5.17,6A19.9,19.9,0,0,1,181.21,29.84Zm-15.28.36a7.65,7.65,0,0,0-1.2-4.32,6.25,6.25,0,0,0-2.86-2.49,12.68,12.68,0,0,0-4.05-1.06c-1.28-.09-3-.13-5.23-.13h-2.11V40h1c1.41,0,2.74,0,4,0a21.43,21.43,0,0,0,3.26-.28,11,11,0,0,0,2.53-.77,6.65,6.65,0,0,0,2.05-1.3,7.82,7.82,0,0,0,2-3.06A13.82,13.82,0,0,0,165.93,30.2Z"/><path class="cls-5" d="M240.15,40.79q0,14.37-7.69,22.61T211.4,71.64q-13.41,0-21.06-8.34T182.7,40.79q0-14.29,7.64-22.6t21.06-8.3q13.38,0,21.06,8.27T240.15,40.79Zm-15.37,0a32.28,32.28,0,0,0-1.1-9,18.59,18.59,0,0,0-2.92-6.11,11.33,11.33,0,0,0-4.32-3.48,12.72,12.72,0,0,0-10-.08,11.9,11.9,0,0,0-4.29,3.48,18,18,0,0,0-3,6.13,32.16,32.16,0,0,0-1.14,9.12,32.18,32.18,0,0,0,1.08,9.06,18.45,18.45,0,0,0,3,6,11.15,11.15,0,0,0,4.33,3.52,12.57,12.57,0,0,0,5,1.06,12.06,12.06,0,0,0,5.1-1.14,11.23,11.23,0,0,0,4.26-3.52,19.69,19.69,0,0,0,2.94-6A32.22,32.22,0,0,0,224.78,40.75Z"/><path class="cls-5" d="M300.75,70.41H282.6L266.07,48.67h-5.33V70.41H245.93V11.13h23.85a51.54,51.54,0,0,1,8.6.62,18.26,18.26,0,0,1,6.76,2.56,15.58,15.58,0,0,1,5.06,5.16,15.23,15.23,0,0,1,1.87,7.94q0,6.81-3.06,11.05a21.57,21.57,0,0,1-8.21,6.75Zm-24-41.13a8.12,8.12,0,0,0-.85-3.84A5.69,5.69,0,0,0,273.08,23,10,10,0,0,0,270,22.2c-1.14-.11-2.56-.16-4.26-.16h-5V38H265a30.38,30.38,0,0,0,5.27-.38A7.86,7.86,0,0,0,274,36a7,7,0,0,0,2.13-2.67A10.05,10.05,0,0,0,276.78,29.28Z"/><path class="cls-5" d="M378.59,11.13l-15,59.28H347.26l-9.51-36.67-9.24,36.67H312.19l-15-59.28h15.44l8.17,39.77,9.95-39.77h14.77l9.43,39.77,8.6-39.77Z"/><path class="cls-5" d="M376.53,70.41l20-59.28H412.8l20,59.28H417.5l-3.7-12.1H395.16l-3.7,12.1Zm34-22.85-6-19.55-6.05,19.55Z"/><path class="cls-5" d="M480.34,11.13,460,70.41H444.43L424,11.13h15.45l12.9,40.17,12.9-40.17Z"/><path class="cls-5" d="M482.81,70.41V11.13h40.1v11.3H497.63v10.4h23.29v11.3H497.63v15h25.28V70.41Z"/><path class="cls-5" d="M564.37,19.33H549.64V8.46h14.73ZM564,70.41H550V25.7H564Z"/><path class="cls-5" d="M598,71.56q-13.34,0-21.18-8.06T569,40.83q0-14.1,7.86-22.48T598,10a46.81,46.81,0,0,1,6.37.4,42.93,42.93,0,0,1,5.42,1.12,37.11,37.11,0,0,1,4.41,1.63c1.6.69,2.88,1.29,3.87,1.79V29h-1.52c-.71-.63-1.62-1.4-2.7-2.29a35.81,35.81,0,0,0-3.71-2.6A24.2,24.2,0,0,0,605.61,22a15.21,15.21,0,0,0-5.2-.9,16.52,16.52,0,0,0-5.91,1,14.12,14.12,0,0,0-5.12,3.52,16.82,16.82,0,0,0-3.64,6.13,26.6,26.6,0,0,0-1.41,9.12,25.6,25.6,0,0,0,1.47,9.29,16.86,16.86,0,0,0,3.86,6.08,14.08,14.08,0,0,0,5.16,3.22,17.12,17.12,0,0,0,5.67,1,16.23,16.23,0,0,0,5.61-1,22,22,0,0,0,4.5-2.17,29.47,29.47,0,0,0,3.51-2.51c1-.85,1.88-1.6,2.62-2.27h1.36V66.47L614.3,68.2a33.94,33.94,0,0,1-4.42,1.65,48.51,48.51,0,0,1-5.21,1.28A40.08,40.08,0,0,1,598,71.56Z"/><path class="cls-5" d="M677.81,40.79q0,14.37-7.68,22.61t-21.06,8.24q-13.41,0-21.06-8.34t-7.65-22.51q0-14.29,7.65-22.6t21.06-8.3q13.38,0,21.06,8.27T677.81,40.79Zm-15.36,0a32.28,32.28,0,0,0-1.1-9,18.59,18.59,0,0,0-2.92-6.11,11.33,11.33,0,0,0-4.32-3.48,12.72,12.72,0,0,0-10-.08,12,12,0,0,0-4.3,3.48,18,18,0,0,0-3,6.13,32.16,32.16,0,0,0-1.14,9.12,32.18,32.18,0,0,0,1.08,9.06,18.44,18.44,0,0,0,2.94,6,11.18,11.18,0,0,0,4.34,3.52,12.53,12.53,0,0,0,5,1.06,12.06,12.06,0,0,0,5.1-1.14,11.23,11.23,0,0,0,4.26-3.52,19.69,19.69,0,0,0,2.94-6A32.22,32.22,0,0,0,662.45,40.75Z"/><path class="cls-5" d="M734.4,70.41H720.06L697.21,29.08V70.41H683.6V11.13h18.27l18.91,34v-34H734.4Z"/><path class="cls-5" d="M761.72,71.48a48.6,48.6,0,0,1-12-1.31,61.75,61.75,0,0,1-9.57-3.26V52.81h1.35a33.4,33.4,0,0,0,9.84,5.82,29.5,29.5,0,0,0,10.43,2,27.77,27.77,0,0,0,3.36-.28,11.85,11.85,0,0,0,3.37-.88,7.35,7.35,0,0,0,2.62-1.89,4.65,4.65,0,0,0,1.08-3.21,4.44,4.44,0,0,0-1.75-3.62,11.25,11.25,0,0,0-4.18-2q-3-.8-6.47-1.51a52.13,52.13,0,0,1-6.43-1.75q-6.9-2.43-9.88-6.53a17,17,0,0,1-3-10.27,16,16,0,0,1,7-13.48q7-5.16,17.6-5.16a52,52,0,0,1,10.53,1.08,45.77,45.77,0,0,1,9.38,2.9V27.57h-1.32a29.59,29.59,0,0,0-8.06-4.78,25.54,25.54,0,0,0-9.77-1.95,20.63,20.63,0,0,0-3.51.28,13.67,13.67,0,0,0-3.26,1.08,6.54,6.54,0,0,0-2.41,1.89,4.31,4.31,0,0,0-1,2.8,4.42,4.42,0,0,0,1.61,3.61q1.6,1.34,6.23,2.41c2,.45,3.91.88,5.75,1.31A53,53,0,0,1,775.25,36q6.18,2.23,9.18,6t3,9.94a17.09,17.09,0,0,1-7,14.21Q773.55,71.48,761.72,71.48Z"/></g></svg>