<svg id="vaporW" xmlns="http://www.w3.org/2000/svg" viewBox="0 0 818.41 87.13"><defs><style>.cls-1{opacity:0.5;}.cls-2{fill:#ff0;}.cls-3{fill:#ff0006;}.cls-4{fill:aqua;}</style></defs><title>vaporTitle</title><g class="cls-1"><path class="cls-2" d="M4.26,66.69l20-59.28H40.53l20,59.28H45.23l-3.7-12.1H22.9l-3.71,12.1Zm34-22.85-6-19.55L26.16,43.84Z"/><path class="cls-2" d="M85.53,67.89q-12.66,0-19.41-6.06T59.37,44.6q0-11,6.29-17.48t17.6-6.53q10.27,0,15.45,5.53T103.88,42v5H73.35a12.73,12.73,0,0,0,1.31,5.2,9.14,9.14,0,0,0,3,3.32,11.78,11.78,0,0,0,4.18,1.78,24.25,24.25,0,0,0,5.21.53,21.88,21.88,0,0,0,4.78-.53,22.59,22.59,0,0,0,4.3-1.42,28.46,28.46,0,0,0,3.17-1.63c1-.58,1.75-1.1,2.37-1.55h1.47v11.5L100,65.44a29,29,0,0,1-3.88,1.17,40.79,40.79,0,0,1-4.68.94A43.91,43.91,0,0,1,85.53,67.89Zm4.62-29.31c-.08-2.94-.76-5.19-2.05-6.72s-3.26-2.31-5.91-2.31A8.32,8.32,0,0,0,75.84,32a10.14,10.14,0,0,0-2.53,6.61Z"/><path class="cls-2" d="M121.65,67.93a39.13,39.13,0,0,1-9.34-1.08,35,35,0,0,1-7.26-2.51V52.56h1.15c.67.5,1.42,1.06,2.27,1.67A19.61,19.61,0,0,0,112,56.14a25.64,25.64,0,0,0,4.4,1.57,20.32,20.32,0,0,0,5.31.66,13.75,13.75,0,0,0,5.2-.91,3.08,3.08,0,0,0,2.24-2.91,2.77,2.77,0,0,0-1-2.35,11.56,11.56,0,0,0-4-1.51c-1.06-.27-2.4-.55-4-.86a36.68,36.68,0,0,1-4.3-1,16.14,16.14,0,0,1-7.91-4.84,12.82,12.82,0,0,1-2.64-8.42,12.17,12.17,0,0,1,1.37-5.64,14.41,14.41,0,0,1,4-4.71,20.79,20.79,0,0,1,6.59-3.23,30.64,30.64,0,0,1,8.86-1.19,37.65,37.65,0,0,1,8.64.93,33.42,33.42,0,0,1,6.65,2.25V35.24h-1.12A24.32,24.32,0,0,0,138,33.75a31,31,0,0,0-3-1.62,22.24,22.24,0,0,0-3.92-1.31,19.39,19.39,0,0,0-4.44-.52,11.45,11.45,0,0,0-5.12,1c-1.39.69-2.09,1.6-2.09,2.74a3,3,0,0,0,1,2.39,12.19,12.19,0,0,0,4.5,1.72c1.19.29,2.56.57,4.12.85a31.78,31.78,0,0,1,4.47,1.14,15.23,15.23,0,0,1,7.31,4.55,12.14,12.14,0,0,1,2.49,8,12.9,12.9,0,0,1-1.47,6,13.56,13.56,0,0,1-4.19,4.8A21.89,21.89,0,0,1,131,66.77,32.88,32.88,0,0,1,121.65,67.93Z"/><path class="cls-2" d="M164.1,67.57q-8.52,0-12.4-3.51T147.82,52.6V31.7h-5.34V22h5.34V9.2h13.93V22h13.42V31.7H161.75V47.54c0,1.57,0,2.93,0,4.1a8.46,8.46,0,0,0,.64,3.15,4.43,4.43,0,0,0,2,2.21,8.41,8.41,0,0,0,4.12.81,12.09,12.09,0,0,0,2.93-.48,11.4,11.4,0,0,0,2.52-.87h1.2v9.83a39.57,39.57,0,0,1-4.82.94A49.58,49.58,0,0,1,164.1,67.57Z"/><path class="cls-2" d="M219.73,66.69h-14V44.52c0-1.81-.07-3.61-.22-5.4a12.06,12.06,0,0,0-.81-4A4.43,4.43,0,0,0,202.61,33a8.35,8.35,0,0,0-3.63-.66,10.2,10.2,0,0,0-3.46.64,16.23,16.23,0,0,0-3.74,2V66.69H177.84V4.74h13.94V26.92a33.89,33.89,0,0,1,6.67-4.54,15.72,15.72,0,0,1,7.18-1.63q6.85,0,10.47,4.32t3.63,12.52Z"/><path class="cls-2" d="M249.91,67.89q-12.66,0-19.41-6.06T223.76,44.6q0-11,6.29-17.48t17.59-6.53q10.28,0,15.45,5.53T268.27,42v5H237.73a12.73,12.73,0,0,0,1.31,5.2,9.14,9.14,0,0,0,3,3.32,11.86,11.86,0,0,0,4.18,1.78,24.28,24.28,0,0,0,5.22.53,21.73,21.73,0,0,0,4.77-.53,22.59,22.59,0,0,0,4.3-1.42,27.61,27.61,0,0,0,3.17-1.63c1-.58,1.76-1.1,2.37-1.55h1.47v11.5q-1.71.67-3.12,1.26a29.71,29.71,0,0,1-3.89,1.17,41,41,0,0,1-4.67.94A44.18,44.18,0,0,1,249.91,67.89Zm4.62-29.31c-.08-2.94-.76-5.19-2.05-6.72s-3.26-2.31-5.91-2.31A8.33,8.33,0,0,0,240.22,32a10.14,10.14,0,0,0-2.53,6.61Z"/><path class="cls-2" d="M289.54,67.57q-8.52,0-12.41-3.51T273.25,52.6V31.7h-5.33V22h5.33V9.2h13.94V22H300.6V31.7H287.19V47.54c0,1.57,0,2.93,0,4.1a8.46,8.46,0,0,0,.63,3.15,4.48,4.48,0,0,0,2,2.21,8.48,8.48,0,0,0,4.13.81,12,12,0,0,0,2.92-.48,11.53,11.53,0,0,0,2.53-.87h1.19v9.83a39.4,39.4,0,0,1-4.81.94A49.69,49.69,0,0,1,289.54,67.57Z"/><path class="cls-2" d="M317.61,15.61H302.88V4.74h14.73Zm-.39,51.08H303.28V22h13.94Z"/><path class="cls-2" d="M346.81,67.89a34.86,34.86,0,0,1-10.14-1.4,21.82,21.82,0,0,1-8-4.3,19.59,19.59,0,0,1-5.21-7.3,26.34,26.34,0,0,1-1.88-10.37,26.46,26.46,0,0,1,2-10.91,20.61,20.61,0,0,1,5.5-7.41A21.72,21.72,0,0,1,337,22.08a33.4,33.4,0,0,1,16.82-.48,33.5,33.5,0,0,1,7.45,2.73V36.27h-1.79c-.56-.53-1.24-1.11-2.05-1.75a21,21,0,0,0-2.65-1.75,17.06,17.06,0,0,0-3.43-1.41,14.49,14.49,0,0,0-4.26-.58,9.91,9.91,0,0,0-8.26,3.72q-2.93,3.72-2.92,10,0,6.72,3.12,10a10.91,10.91,0,0,0,8.3,3.3,16.41,16.41,0,0,0,4.62-.59,15.87,15.87,0,0,0,3.43-1.44,15.58,15.58,0,0,0,2.38-1.73c.67-.6,1.24-1.13,1.72-1.61h1.79V64.42l-2.77,1.2a23.78,23.78,0,0,1-3.2,1.11c-1.36.37-2.62.66-3.81.86A29.11,29.11,0,0,1,346.81,67.89Z"/><path class="cls-2" d="M416.06,66.69H384.13V56.34h8.52V17.76h-8.52V7.41h31.93V17.76h-8.52V56.34h8.52Z"/><path class="cls-2" d="M464,66.69H450V44.52c0-1.81-.08-3.61-.22-5.4a12.28,12.28,0,0,0-.82-4A4.43,4.43,0,0,0,446.88,33a8.33,8.33,0,0,0-3.62-.66,10.25,10.25,0,0,0-3.47.64,16.43,16.43,0,0,0-3.74,2V66.69H422.12V22h13.93v4.94a34.19,34.19,0,0,1,6.67-4.54,15.74,15.74,0,0,1,7.19-1.63q6.84,0,10.47,4.32T464,37.59Z"/><path class="cls-2" d="M488.42,67.57q-8.52,0-12.41-3.51T472.13,52.6V31.7H466.8V22h5.33V9.2h13.94V22h13.41V31.7H486.07V47.54c0,1.57,0,2.93,0,4.1a8.26,8.26,0,0,0,.63,3.15,4.43,4.43,0,0,0,2,2.21,8.46,8.46,0,0,0,4.12.81,12,12,0,0,0,2.93-.48,11.53,11.53,0,0,0,2.53-.87h1.19v9.83a39.78,39.78,0,0,1-4.81.94A49.69,49.69,0,0,1,488.42,67.57Z"/><path class="cls-2" d="M525.05,67.89q-12.66,0-19.41-6.06T498.9,44.6q0-11,6.29-17.48t17.59-6.53q10.28,0,15.45,5.53T543.41,42v5H512.87a12.73,12.73,0,0,0,1.31,5.2,9.14,9.14,0,0,0,3,3.32,11.78,11.78,0,0,0,4.18,1.78,24.28,24.28,0,0,0,5.22.53,21.79,21.79,0,0,0,4.77-.53,22.59,22.59,0,0,0,4.3-1.42,28.46,28.46,0,0,0,3.17-1.63c1-.58,1.76-1.1,2.37-1.55h1.47v11.5l-3.13,1.26a29,29,0,0,1-3.88,1.17,40.79,40.79,0,0,1-4.68.94A43.91,43.91,0,0,1,525.05,67.89Zm4.62-29.31c-.08-2.94-.76-5.19-2-6.72s-3.26-2.31-5.91-2.31A8.32,8.32,0,0,0,515.36,32a10.14,10.14,0,0,0-2.53,6.61Z"/><path class="cls-2" d="M577.57,35.16h-1.15a9.8,9.8,0,0,0-2.31-.42c-1-.09-2.12-.14-3.34-.14a18.18,18.18,0,0,0-4.6.64,44.09,44.09,0,0,0-4.68,1.51V66.69H547.56V22h13.93v6.41c.64-.58,1.52-1.32,2.65-2.21a25.53,25.53,0,0,1,3.08-2.13,17.21,17.21,0,0,1,3.53-1.57,12.16,12.16,0,0,1,3.8-.66c.45,0,1,0,1.51,0s1.06.07,1.51.12Z"/><path class="cls-2" d="M623.73,43.72q0,10.71-5.44,17.28a16.75,16.75,0,0,1-13.4,6.57,20.11,20.11,0,0,1-5.81-.76,25.93,25.93,0,0,1-5.25-2.35V83.09H579.89V22h13.94v4.66a32.08,32.08,0,0,1,6.25-4.26,15.9,15.9,0,0,1,7.36-1.63,13.76,13.76,0,0,1,12,6.17Q623.73,33.09,623.73,43.72ZM609.47,44q0-6.53-2-9.48t-6.27-2.94a12.25,12.25,0,0,0-3.72.59A15,15,0,0,0,593.83,34v22.5a10.12,10.12,0,0,0,2.45.68,22.14,22.14,0,0,0,3.16.19c3.4,0,5.92-1.1,7.56-3.32S609.47,48.46,609.47,44Z"/><path class="cls-2" d="M658.21,35.16h-1.15a9.8,9.8,0,0,0-2.31-.42c-1-.09-2.12-.14-3.34-.14a18.18,18.18,0,0,0-4.6.64,44.09,44.09,0,0,0-4.68,1.51V66.69H628.19V22h13.94v6.41c.64-.58,1.52-1.32,2.65-2.21a24.77,24.77,0,0,1,3.08-2.13,17,17,0,0,1,3.53-1.57,12.16,12.16,0,0,1,3.8-.66c.45,0,.95,0,1.51,0s1.06.07,1.51.12Z"/><path class="cls-2" d="M683.42,67.89q-12.66,0-19.41-6.06T657.27,44.6q0-11,6.29-17.48t17.59-6.53q10.27,0,15.45,5.53T701.78,42v5H671.24a12.73,12.73,0,0,0,1.31,5.2,9.14,9.14,0,0,0,3,3.32,11.86,11.86,0,0,0,4.18,1.78,24.28,24.28,0,0,0,5.22.53,21.73,21.73,0,0,0,4.77-.53,22.59,22.59,0,0,0,4.3-1.42,27.61,27.61,0,0,0,3.17-1.63c1-.58,1.76-1.1,2.37-1.55H701v11.5q-1.71.67-3.12,1.26A29.71,29.71,0,0,1,694,66.61a41,41,0,0,1-4.67.94A44.18,44.18,0,0,1,683.42,67.89ZM688,38.58c-.08-2.94-.76-5.19-2-6.72s-3.26-2.31-5.91-2.31A8.32,8.32,0,0,0,673.73,32a10.14,10.14,0,0,0-2.53,6.61Z"/><path class="cls-2" d="M723.05,67.57q-8.52,0-12.41-3.51T706.76,52.6V31.7h-5.33V22h5.33V9.2H720.7V22h13.41V31.7H720.7V47.54c0,1.57,0,2.93,0,4.1a8.46,8.46,0,0,0,.63,3.15,4.48,4.48,0,0,0,2,2.21,8.48,8.48,0,0,0,4.13.81,12,12,0,0,0,2.92-.48,11.53,11.53,0,0,0,2.53-.87h1.19v9.83a39.4,39.4,0,0,1-4.81.94A49.69,49.69,0,0,1,723.05,67.57Z"/><path class="cls-2" d="M779.71,44.36q0,11-6,17.37t-17.06,6.35q-10.95,0-17-6.35t-6.07-17.37q0-11.16,6.07-17.46t17-6.31q11,0,17,6.35T779.71,44.36Zm-14.29.08a27.92,27.92,0,0,0-.66-6.63A12.19,12.19,0,0,0,763,33.57a6.75,6.75,0,0,0-2.79-2.33,9,9,0,0,0-3.54-.66,9.35,9.35,0,0,0-3.39.58,6.51,6.51,0,0,0-2.78,2.21,11.73,11.73,0,0,0-1.91,4.26,27,27,0,0,0-.72,6.81,25.91,25.91,0,0,0,.68,6.62,12.54,12.54,0,0,0,1.75,4A6.63,6.63,0,0,0,753,57.38a9.47,9.47,0,0,0,3.71.71,9,9,0,0,0,3.4-.71,6.34,6.34,0,0,0,2.77-2.15,12.65,12.65,0,0,0,1.87-4.13A27.41,27.41,0,0,0,765.42,44.44Z"/><path class="cls-2" d="M814.12,35.16H813a9.8,9.8,0,0,0-2.31-.42c-1-.09-2.12-.14-3.34-.14a18.24,18.24,0,0,0-4.6.64A44.09,44.09,0,0,0,798,36.75V66.69H784.1V22H798v6.41c.64-.58,1.52-1.32,2.65-2.21a25.57,25.57,0,0,1,3.09-2.13,16.88,16.88,0,0,1,3.52-1.57,12.21,12.21,0,0,1,3.8-.66c.45,0,1,0,1.51,0s1.07.07,1.52.12Z"/></g><g class="cls-1"><path class="cls-3" d="M2.26,68.69l20-59.28H38.53l20,59.28H43.23l-3.7-12.1H20.9l-3.71,12.1Zm34-22.85-6-19.55L24.16,45.84Z"/><path class="cls-3" d="M83.53,69.89q-12.66,0-19.41-6.06T57.37,46.6q0-11,6.29-17.48t17.6-6.53q10.27,0,15.45,5.53T101.88,44v5H71.35a12.73,12.73,0,0,0,1.31,5.2,9.14,9.14,0,0,0,3,3.32,11.78,11.78,0,0,0,4.18,1.78,24.25,24.25,0,0,0,5.21.53,21.88,21.88,0,0,0,4.78-.53,22.59,22.59,0,0,0,4.3-1.42,28.46,28.46,0,0,0,3.17-1.63c1-.58,1.75-1.1,2.37-1.55h1.47v11.5L98,67.44a29,29,0,0,1-3.88,1.17,40.79,40.79,0,0,1-4.68.94A43.91,43.91,0,0,1,83.53,69.89Zm4.62-29.31c-.08-2.94-.76-5.19-2.05-6.72s-3.26-2.31-5.91-2.31A8.32,8.32,0,0,0,73.84,34a10.14,10.14,0,0,0-2.53,6.61Z"/><path class="cls-3" d="M119.65,69.93a39.13,39.13,0,0,1-9.34-1.08,35,35,0,0,1-7.26-2.51V54.56h1.15c.67.5,1.42,1.06,2.27,1.67A19.61,19.61,0,0,0,110,58.14a25.64,25.64,0,0,0,4.4,1.57,20.32,20.32,0,0,0,5.31.66,13.75,13.75,0,0,0,5.2-.91,3.08,3.08,0,0,0,2.24-2.91,2.77,2.77,0,0,0-1-2.35,11.56,11.56,0,0,0-4-1.51c-1.06-.27-2.4-.55-4-.86a36.68,36.68,0,0,1-4.3-1,16.14,16.14,0,0,1-7.91-4.84,12.82,12.82,0,0,1-2.64-8.42,12.17,12.17,0,0,1,1.37-5.64,14.41,14.41,0,0,1,4-4.71,20.79,20.79,0,0,1,6.59-3.23,30.64,30.64,0,0,1,8.86-1.19,37.65,37.65,0,0,1,8.64.93,33.42,33.42,0,0,1,6.65,2.25V37.24h-1.12A24.32,24.32,0,0,0,136,35.75a31,31,0,0,0-3-1.62,22.24,22.24,0,0,0-3.92-1.31,19.39,19.39,0,0,0-4.44-.52,11.45,11.45,0,0,0-5.12,1c-1.39.69-2.09,1.6-2.09,2.74a3,3,0,0,0,1,2.39,12.19,12.19,0,0,0,4.5,1.72c1.19.29,2.56.57,4.12.85a31.78,31.78,0,0,1,4.47,1.14,15.23,15.23,0,0,1,7.31,4.55,12.14,12.14,0,0,1,2.49,8,12.9,12.9,0,0,1-1.47,6,13.56,13.56,0,0,1-4.19,4.8A21.89,21.89,0,0,1,129,68.77,32.88,32.88,0,0,1,119.65,69.93Z"/><path class="cls-3" d="M162.1,69.57q-8.52,0-12.4-3.51T145.82,54.6V33.7h-5.34V24h5.34V11.2h13.93V24h13.42V33.7H159.75V49.54c0,1.57,0,2.93,0,4.1a8.46,8.46,0,0,0,.64,3.15,4.43,4.43,0,0,0,2,2.21,8.41,8.41,0,0,0,4.12.81,12.09,12.09,0,0,0,2.93-.48,11.4,11.4,0,0,0,2.52-.87h1.2v9.83a39.57,39.57,0,0,1-4.82.94A49.58,49.58,0,0,1,162.1,69.57Z"/><path class="cls-3" d="M217.73,68.69h-14V46.52c0-1.81-.07-3.61-.22-5.4a12.06,12.06,0,0,0-.81-4A4.43,4.43,0,0,0,200.61,35a8.35,8.35,0,0,0-3.63-.66,10.2,10.2,0,0,0-3.46.64,16.23,16.23,0,0,0-3.74,2V68.69H175.84V6.74h13.94V28.92a33.89,33.89,0,0,1,6.67-4.54,15.72,15.72,0,0,1,7.18-1.63q6.85,0,10.47,4.32t3.63,12.52Z"/><path class="cls-3" d="M247.91,69.89q-12.66,0-19.41-6.06T221.76,46.6q0-11,6.29-17.48t17.59-6.53q10.28,0,15.45,5.53T266.27,44v5H235.73a12.73,12.73,0,0,0,1.31,5.2,9.14,9.14,0,0,0,3,3.32,11.86,11.86,0,0,0,4.18,1.78,24.28,24.28,0,0,0,5.22.53,21.73,21.73,0,0,0,4.77-.53,22.59,22.59,0,0,0,4.3-1.42,27.61,27.61,0,0,0,3.17-1.63c1-.58,1.76-1.1,2.37-1.55h1.47v11.5q-1.71.67-3.12,1.26a29.71,29.71,0,0,1-3.89,1.17,41,41,0,0,1-4.67.94A44.18,44.18,0,0,1,247.91,69.89Zm4.62-29.31c-.08-2.94-.76-5.19-2.05-6.72s-3.26-2.31-5.91-2.31A8.33,8.33,0,0,0,238.22,34a10.14,10.14,0,0,0-2.53,6.61Z"/><path class="cls-3" d="M287.54,69.57q-8.52,0-12.41-3.51T271.25,54.6V33.7h-5.33V24h5.33V11.2h13.94V24H298.6V33.7H285.19V49.54c0,1.57,0,2.93,0,4.1a8.46,8.46,0,0,0,.63,3.15,4.48,4.48,0,0,0,2,2.21,8.48,8.48,0,0,0,4.13.81,12,12,0,0,0,2.92-.48,11.53,11.53,0,0,0,2.53-.87h1.19v9.83a39.4,39.4,0,0,1-4.81.94A49.69,49.69,0,0,1,287.54,69.57Z"/><path class="cls-3" d="M315.61,17.61H300.88V6.74h14.73Zm-.39,51.08H301.28V24h13.94Z"/><path class="cls-3" d="M344.81,69.89a34.86,34.86,0,0,1-10.14-1.4,21.82,21.82,0,0,1-8-4.3,19.59,19.59,0,0,1-5.21-7.3,26.34,26.34,0,0,1-1.88-10.37,26.46,26.46,0,0,1,2-10.91,20.61,20.61,0,0,1,5.5-7.41A21.72,21.72,0,0,1,335,24.08a33.4,33.4,0,0,1,16.82-.48,33.5,33.5,0,0,1,7.45,2.73V38.27h-1.79c-.56-.53-1.24-1.11-2.05-1.75a21,21,0,0,0-2.65-1.75,17.06,17.06,0,0,0-3.43-1.41,14.49,14.49,0,0,0-4.26-.58,9.91,9.91,0,0,0-8.26,3.72q-2.93,3.72-2.92,10,0,6.72,3.12,10a10.91,10.91,0,0,0,8.3,3.3,16.41,16.41,0,0,0,4.62-.59,15.87,15.87,0,0,0,3.43-1.44,15.58,15.58,0,0,0,2.38-1.73c.67-.6,1.24-1.13,1.72-1.61h1.79V66.42l-2.77,1.2a23.78,23.78,0,0,1-3.2,1.11c-1.36.37-2.62.66-3.81.86A29.11,29.11,0,0,1,344.81,69.89Z"/><path class="cls-3" d="M414.06,68.69H382.13V58.34h8.52V19.76h-8.52V9.41h31.93V19.76h-8.52V58.34h8.52Z"/><path class="cls-3" d="M462,68.69H448V46.52c0-1.81-.08-3.61-.22-5.4a12.28,12.28,0,0,0-.82-4A4.43,4.43,0,0,0,444.88,35a8.33,8.33,0,0,0-3.62-.66,10.25,10.25,0,0,0-3.47.64,16.43,16.43,0,0,0-3.74,2V68.69H420.12V24h13.93v4.94a34.19,34.19,0,0,1,6.67-4.54,15.74,15.74,0,0,1,7.19-1.63q6.84,0,10.47,4.32T462,39.59Z"/><path class="cls-3" d="M486.42,69.57q-8.52,0-12.41-3.51T470.13,54.6V33.7H464.8V24h5.33V11.2h13.94V24h13.41V33.7H484.07V49.54c0,1.57,0,2.93,0,4.1a8.26,8.26,0,0,0,.63,3.15,4.43,4.43,0,0,0,2,2.21,8.46,8.46,0,0,0,4.12.81,12,12,0,0,0,2.93-.48,11.53,11.53,0,0,0,2.53-.87h1.19v9.83a39.78,39.78,0,0,1-4.81.94A49.69,49.69,0,0,1,486.42,69.57Z"/><path class="cls-3" d="M523.05,69.89q-12.66,0-19.41-6.06T496.9,46.6q0-11,6.29-17.48t17.59-6.53q10.28,0,15.45,5.53T541.41,44v5H510.87a12.73,12.73,0,0,0,1.31,5.2,9.14,9.14,0,0,0,3,3.32,11.78,11.78,0,0,0,4.18,1.78,24.28,24.28,0,0,0,5.22.53,21.79,21.79,0,0,0,4.77-.53,22.59,22.59,0,0,0,4.3-1.42,28.46,28.46,0,0,0,3.17-1.63c1-.58,1.76-1.1,2.37-1.55h1.47v11.5l-3.13,1.26a29,29,0,0,1-3.88,1.17,40.79,40.79,0,0,1-4.68.94A43.91,43.91,0,0,1,523.05,69.89Zm4.62-29.31c-.08-2.94-.76-5.19-2-6.72s-3.26-2.31-5.91-2.31A8.32,8.32,0,0,0,513.36,34a10.14,10.14,0,0,0-2.53,6.61Z"/><path class="cls-3" d="M575.57,37.16h-1.15a9.8,9.8,0,0,0-2.31-.42c-1-.09-2.12-.14-3.34-.14a18.18,18.18,0,0,0-4.6.64,44.09,44.09,0,0,0-4.68,1.51V68.69H545.56V24h13.93v6.41c.64-.58,1.52-1.32,2.65-2.21a25.53,25.53,0,0,1,3.08-2.13,17.21,17.21,0,0,1,3.53-1.57,12.16,12.16,0,0,1,3.8-.66c.45,0,1,0,1.51,0s1.06.07,1.51.12Z"/><path class="cls-3" d="M621.73,45.72q0,10.71-5.44,17.28a16.75,16.75,0,0,1-13.4,6.57,20.11,20.11,0,0,1-5.81-.76,25.93,25.93,0,0,1-5.25-2.35V85.09H577.89V24h13.94v4.66a32.08,32.08,0,0,1,6.25-4.26,15.9,15.9,0,0,1,7.36-1.63,13.76,13.76,0,0,1,12,6.17Q621.73,35.09,621.73,45.72ZM607.47,46q0-6.53-2-9.48t-6.27-2.94a12.25,12.25,0,0,0-3.72.59A15,15,0,0,0,591.83,36v22.5a10.12,10.12,0,0,0,2.45.68,22.14,22.14,0,0,0,3.16.19c3.4,0,5.92-1.1,7.56-3.32S607.47,50.46,607.47,46Z"/><path class="cls-3" d="M656.21,37.16h-1.15a9.8,9.8,0,0,0-2.31-.42c-1-.09-2.12-.14-3.34-.14a18.18,18.18,0,0,0-4.6.64,44.09,44.09,0,0,0-4.68,1.51V68.69H626.19V24h13.94v6.41c.64-.58,1.52-1.32,2.65-2.21a24.77,24.77,0,0,1,3.08-2.13,17,17,0,0,1,3.53-1.57,12.16,12.16,0,0,1,3.8-.66c.45,0,.95,0,1.51,0s1.06.07,1.51.12Z"/><path class="cls-3" d="M681.42,69.89q-12.66,0-19.41-6.06T655.27,46.6q0-11,6.29-17.48t17.59-6.53q10.27,0,15.45,5.53T699.78,44v5H669.24a12.73,12.73,0,0,0,1.31,5.2,9.14,9.14,0,0,0,3,3.32,11.86,11.86,0,0,0,4.18,1.78,24.28,24.28,0,0,0,5.22.53,21.73,21.73,0,0,0,4.77-.53,22.59,22.59,0,0,0,4.3-1.42,27.61,27.61,0,0,0,3.17-1.63c1-.58,1.76-1.1,2.37-1.55H699v11.5q-1.71.67-3.12,1.26A29.71,29.71,0,0,1,692,68.61a41,41,0,0,1-4.67.94A44.18,44.18,0,0,1,681.42,69.89ZM686,40.58c-.08-2.94-.76-5.19-2-6.72s-3.26-2.31-5.91-2.31A8.32,8.32,0,0,0,671.73,34a10.14,10.14,0,0,0-2.53,6.61Z"/><path class="cls-3" d="M721.05,69.57q-8.52,0-12.41-3.51T704.76,54.6V33.7h-5.33V24h5.33V11.2H718.7V24h13.41V33.7H718.7V49.54c0,1.57,0,2.93,0,4.1a8.46,8.46,0,0,0,.63,3.15,4.48,4.48,0,0,0,2,2.21,8.48,8.48,0,0,0,4.13.81,12,12,0,0,0,2.92-.48,11.53,11.53,0,0,0,2.53-.87h1.19v9.83a39.4,39.4,0,0,1-4.81.94A49.69,49.69,0,0,1,721.05,69.57Z"/><path class="cls-3" d="M777.71,46.36q0,11-6,17.37t-17.06,6.35q-10.95,0-17-6.35t-6.07-17.37q0-11.16,6.07-17.46t17-6.31q11,0,17,6.35T777.71,46.36Zm-14.29.08a27.92,27.92,0,0,0-.66-6.63A12.19,12.19,0,0,0,761,35.57a6.75,6.75,0,0,0-2.79-2.33,9,9,0,0,0-3.54-.66,9.35,9.35,0,0,0-3.39.58,6.51,6.51,0,0,0-2.78,2.21,11.73,11.73,0,0,0-1.91,4.26,27,27,0,0,0-.72,6.81,25.91,25.91,0,0,0,.68,6.62,12.54,12.54,0,0,0,1.75,4A6.63,6.63,0,0,0,751,59.38a9.47,9.47,0,0,0,3.71.71,9,9,0,0,0,3.4-.71,6.34,6.34,0,0,0,2.77-2.15,12.65,12.65,0,0,0,1.87-4.13A27.41,27.41,0,0,0,763.42,46.44Z"/><path class="cls-3" d="M812.12,37.16H811a9.8,9.8,0,0,0-2.31-.42c-1-.09-2.12-.14-3.34-.14a18.24,18.24,0,0,0-4.6.64A44.09,44.09,0,0,0,796,38.75V68.69H782.1V24H796v6.41c.64-.58,1.52-1.32,2.65-2.21a25.57,25.57,0,0,1,3.09-2.13,16.88,16.88,0,0,1,3.52-1.57,12.21,12.21,0,0,1,3.8-.66c.45,0,1,0,1.51,0s1.07.07,1.52.12Z"/></g><g class="cls-1"><path class="cls-4" d="M3.26,65.69l20-59.28H39.53l20,59.28H44.23l-3.7-12.1H21.9l-3.71,12.1Zm34-22.85-6-19.55L25.16,42.84Z"/><path class="cls-4" d="M84.53,66.89q-12.66,0-19.41-6.06T58.37,43.6q0-11,6.29-17.48t17.6-6.53q10.27,0,15.45,5.53T102.88,41v5H72.35a12.73,12.73,0,0,0,1.31,5.2,9.14,9.14,0,0,0,3,3.32,11.78,11.78,0,0,0,4.18,1.78,24.25,24.25,0,0,0,5.21.53,21.88,21.88,0,0,0,4.78-.53,22.59,22.59,0,0,0,4.3-1.42,28.46,28.46,0,0,0,3.17-1.63c1-.58,1.75-1.1,2.37-1.55h1.47v11.5L99,64.44a29,29,0,0,1-3.88,1.17,40.79,40.79,0,0,1-4.68.94A43.91,43.91,0,0,1,84.53,66.89Zm4.62-29.31c-.08-2.94-.76-5.19-2.05-6.72s-3.26-2.31-5.91-2.31A8.32,8.32,0,0,0,74.84,31a10.14,10.14,0,0,0-2.53,6.61Z"/><path class="cls-4" d="M120.65,66.93a39.13,39.13,0,0,1-9.34-1.08,35,35,0,0,1-7.26-2.51V51.56h1.15c.67.5,1.42,1.06,2.27,1.67A19.61,19.61,0,0,0,111,55.14a25.64,25.64,0,0,0,4.4,1.57,20.32,20.32,0,0,0,5.31.66,13.75,13.75,0,0,0,5.2-.91,3.08,3.08,0,0,0,2.24-2.91,2.77,2.77,0,0,0-1-2.35,11.56,11.56,0,0,0-4-1.51c-1.06-.27-2.4-.55-4-.86a36.68,36.68,0,0,1-4.3-1,16.14,16.14,0,0,1-7.91-4.84,12.82,12.82,0,0,1-2.64-8.42,12.17,12.17,0,0,1,1.37-5.64,14.41,14.41,0,0,1,4-4.71,20.79,20.79,0,0,1,6.59-3.23,30.64,30.64,0,0,1,8.86-1.19,37.65,37.65,0,0,1,8.64.93,33.42,33.42,0,0,1,6.65,2.25V34.24h-1.12A24.32,24.32,0,0,0,137,32.75a31,31,0,0,0-3-1.62,22.24,22.24,0,0,0-3.92-1.31,19.39,19.39,0,0,0-4.44-.52,11.45,11.45,0,0,0-5.12,1c-1.39.69-2.09,1.6-2.09,2.74a3,3,0,0,0,1,2.39,12.19,12.19,0,0,0,4.5,1.72c1.19.29,2.56.57,4.12.85a31.78,31.78,0,0,1,4.47,1.14,15.23,15.23,0,0,1,7.31,4.55,12.14,12.14,0,0,1,2.49,8,12.9,12.9,0,0,1-1.47,6,13.56,13.56,0,0,1-4.19,4.8A21.89,21.89,0,0,1,130,65.77,32.88,32.88,0,0,1,120.65,66.93Z"/><path class="cls-4" d="M163.1,66.57q-8.52,0-12.4-3.51T146.82,51.6V30.7h-5.34V21h5.34V8.2h13.93V21h13.42V30.7H160.75V46.54c0,1.57,0,2.93,0,4.1a8.46,8.46,0,0,0,.64,3.15,4.43,4.43,0,0,0,2,2.21,8.41,8.41,0,0,0,4.12.81,12.09,12.09,0,0,0,2.93-.48,11.4,11.4,0,0,0,2.52-.87h1.2v9.83a39.57,39.57,0,0,1-4.82.94A49.58,49.58,0,0,1,163.1,66.57Z"/><path class="cls-4" d="M218.73,65.69h-14V43.52c0-1.81-.07-3.61-.22-5.4a12.06,12.06,0,0,0-.81-4A4.43,4.43,0,0,0,201.61,32a8.35,8.35,0,0,0-3.63-.66,10.2,10.2,0,0,0-3.46.64,16.23,16.23,0,0,0-3.74,2V65.69H176.84V3.74h13.94V25.92a33.89,33.89,0,0,1,6.67-4.54,15.72,15.72,0,0,1,7.18-1.63q6.85,0,10.47,4.32t3.63,12.52Z"/><path class="cls-4" d="M248.91,66.89q-12.66,0-19.41-6.06T222.76,43.6q0-11,6.29-17.48t17.59-6.53q10.28,0,15.45,5.53T267.27,41v5H236.73a12.73,12.73,0,0,0,1.31,5.2,9.14,9.14,0,0,0,3,3.32,11.86,11.86,0,0,0,4.18,1.78,24.28,24.28,0,0,0,5.22.53,21.73,21.73,0,0,0,4.77-.53,22.59,22.59,0,0,0,4.3-1.42,27.61,27.61,0,0,0,3.17-1.63c1-.58,1.76-1.1,2.37-1.55h1.47v11.5q-1.71.68-3.12,1.26a29.71,29.71,0,0,1-3.89,1.17,41,41,0,0,1-4.67.94A44.18,44.18,0,0,1,248.91,66.89Zm4.62-29.31c-.08-2.94-.76-5.19-2.05-6.72s-3.26-2.31-5.91-2.31A8.33,8.33,0,0,0,239.22,31a10.14,10.14,0,0,0-2.53,6.61Z"/><path class="cls-4" d="M288.54,66.57q-8.52,0-12.41-3.51T272.25,51.6V30.7h-5.33V21h5.33V8.2h13.94V21H299.6V30.7H286.19V46.54c0,1.57,0,2.93,0,4.1a8.46,8.46,0,0,0,.63,3.15,4.48,4.48,0,0,0,2,2.21,8.48,8.48,0,0,0,4.13.81,12,12,0,0,0,2.92-.48,11.53,11.53,0,0,0,2.53-.87h1.19v9.83a39.4,39.4,0,0,1-4.81.94A49.69,49.69,0,0,1,288.54,66.57Z"/><path class="cls-4" d="M316.61,14.61H301.88V3.74h14.73Zm-.39,51.08H302.28V21h13.94Z"/><path class="cls-4" d="M345.81,66.89a34.86,34.86,0,0,1-10.14-1.4,21.82,21.82,0,0,1-8-4.3,19.59,19.59,0,0,1-5.21-7.3,26.34,26.34,0,0,1-1.88-10.37,26.46,26.46,0,0,1,2-10.91,20.61,20.61,0,0,1,5.5-7.41A21.72,21.72,0,0,1,336,21.08a33.4,33.4,0,0,1,16.82-.48,33.5,33.5,0,0,1,7.45,2.73V35.27h-1.79c-.56-.53-1.24-1.11-2.05-1.75a21,21,0,0,0-2.65-1.75,17.06,17.06,0,0,0-3.43-1.41,14.49,14.49,0,0,0-4.26-.58,9.91,9.91,0,0,0-8.26,3.72q-2.93,3.72-2.92,10,0,6.72,3.12,10a10.91,10.91,0,0,0,8.3,3.3,16.41,16.41,0,0,0,4.62-.59,15.87,15.87,0,0,0,3.43-1.44,15.58,15.58,0,0,0,2.38-1.73c.67-.6,1.24-1.13,1.72-1.61h1.79V63.42l-2.77,1.2a23.78,23.78,0,0,1-3.2,1.11c-1.36.37-2.62.66-3.81.86A29.11,29.11,0,0,1,345.81,66.89Z"/><path class="cls-4" d="M415.06,65.69H383.13V55.34h8.52V16.76h-8.52V6.41h31.93V16.76h-8.52V55.34h8.52Z"/><path class="cls-4" d="M463,65.69H449V43.52c0-1.81-.08-3.61-.22-5.4a12.28,12.28,0,0,0-.82-4A4.43,4.43,0,0,0,445.88,32a8.33,8.33,0,0,0-3.62-.66,10.25,10.25,0,0,0-3.47.64,16.43,16.43,0,0,0-3.74,2V65.69H421.12V21h13.93v4.94a34.19,34.19,0,0,1,6.67-4.54,15.74,15.74,0,0,1,7.19-1.63q6.84,0,10.47,4.32T463,36.59Z"/><path class="cls-4" d="M487.42,66.57q-8.52,0-12.41-3.51T471.13,51.6V30.7H465.8V21h5.33V8.2h13.94V21h13.41V30.7H485.07V46.54c0,1.57,0,2.93,0,4.1a8.26,8.26,0,0,0,.63,3.15,4.43,4.43,0,0,0,2,2.21,8.46,8.46,0,0,0,4.12.81,12,12,0,0,0,2.93-.48,11.53,11.53,0,0,0,2.53-.87h1.19v9.83a39.78,39.78,0,0,1-4.81.94A49.69,49.69,0,0,1,487.42,66.57Z"/><path class="cls-4" d="M524.05,66.89q-12.66,0-19.41-6.06T497.9,43.6q0-11,6.29-17.48t17.59-6.53q10.28,0,15.45,5.53T542.41,41v5H511.87a12.73,12.73,0,0,0,1.31,5.2,9.14,9.14,0,0,0,3,3.32,11.78,11.78,0,0,0,4.18,1.78,24.28,24.28,0,0,0,5.22.53,21.79,21.79,0,0,0,4.77-.53,22.59,22.59,0,0,0,4.3-1.42,28.46,28.46,0,0,0,3.17-1.63c1-.58,1.76-1.1,2.37-1.55h1.47v11.5l-3.13,1.26a29,29,0,0,1-3.88,1.17,40.79,40.79,0,0,1-4.68.94A43.91,43.91,0,0,1,524.05,66.89Zm4.62-29.31c-.08-2.94-.76-5.19-2-6.72s-3.26-2.31-5.91-2.31A8.32,8.32,0,0,0,514.36,31a10.14,10.14,0,0,0-2.53,6.61Z"/><path class="cls-4" d="M576.57,34.16h-1.15a9.8,9.8,0,0,0-2.31-.42c-1-.09-2.12-.14-3.34-.14a18.18,18.18,0,0,0-4.6.64,44.09,44.09,0,0,0-4.68,1.51V65.69H546.56V21h13.93v6.41c.64-.58,1.52-1.32,2.65-2.21a25.53,25.53,0,0,1,3.08-2.13,17.21,17.21,0,0,1,3.53-1.57,12.16,12.16,0,0,1,3.8-.66c.45,0,1,0,1.51,0s1.06.07,1.51.12Z"/><path class="cls-4" d="M622.73,42.72q0,10.71-5.44,17.28a16.75,16.75,0,0,1-13.4,6.57,20.11,20.11,0,0,1-5.81-.76,25.93,25.93,0,0,1-5.25-2.35V82.09H578.89V21h13.94v4.66a32.08,32.08,0,0,1,6.25-4.26,15.9,15.9,0,0,1,7.36-1.63,13.76,13.76,0,0,1,12,6.17Q622.73,32.09,622.73,42.72ZM608.47,43q0-6.53-2-9.48t-6.27-2.94a12.25,12.25,0,0,0-3.72.59A15,15,0,0,0,592.83,33v22.5a10.12,10.12,0,0,0,2.45.68,22.14,22.14,0,0,0,3.16.19c3.4,0,5.92-1.1,7.56-3.32S608.47,47.46,608.47,43Z"/><path class="cls-4" d="M657.21,34.16h-1.15a9.8,9.8,0,0,0-2.31-.42c-1-.09-2.12-.14-3.34-.14a18.18,18.18,0,0,0-4.6.64,44.09,44.09,0,0,0-4.68,1.51V65.69H627.19V21h13.94v6.41c.64-.58,1.52-1.32,2.65-2.21a24.77,24.77,0,0,1,3.08-2.13,17,17,0,0,1,3.53-1.57,12.16,12.16,0,0,1,3.8-.66c.45,0,.95,0,1.51,0s1.06.07,1.51.12Z"/><path class="cls-4" d="M682.42,66.89q-12.66,0-19.41-6.06T656.27,43.6q0-11,6.29-17.48t17.59-6.53q10.27,0,15.45,5.53T700.78,41v5H670.24a12.73,12.73,0,0,0,1.31,5.2,9.14,9.14,0,0,0,3,3.32,11.86,11.86,0,0,0,4.18,1.78,24.28,24.28,0,0,0,5.22.53,21.73,21.73,0,0,0,4.77-.53,22.59,22.59,0,0,0,4.3-1.42,27.61,27.61,0,0,0,3.17-1.63c1-.58,1.76-1.1,2.37-1.55H700v11.5q-1.71.68-3.12,1.26A29.71,29.71,0,0,1,693,65.61a41,41,0,0,1-4.67.94A44.18,44.18,0,0,1,682.42,66.89ZM687,37.58c-.08-2.94-.76-5.19-2-6.72s-3.26-2.31-5.91-2.31A8.32,8.32,0,0,0,672.73,31a10.14,10.14,0,0,0-2.53,6.61Z"/><path class="cls-4" d="M722.05,66.57q-8.52,0-12.41-3.51T705.76,51.6V30.7h-5.33V21h5.33V8.2H719.7V21h13.41V30.7H719.7V46.54c0,1.57,0,2.93,0,4.1a8.46,8.46,0,0,0,.63,3.15,4.48,4.48,0,0,0,2,2.21,8.48,8.48,0,0,0,4.13.81,12,12,0,0,0,2.92-.48,11.53,11.53,0,0,0,2.53-.87h1.19v9.83a39.4,39.4,0,0,1-4.81.94A49.69,49.69,0,0,1,722.05,66.57Z"/><path class="cls-4" d="M778.71,43.36q0,11-6,17.37t-17.06,6.35q-10.95,0-17-6.35t-6.07-17.37q0-11.16,6.07-17.46t17-6.31q11,0,17,6.35T778.71,43.36Zm-14.29.08a27.92,27.92,0,0,0-.66-6.63A12.19,12.19,0,0,0,762,32.57a6.75,6.75,0,0,0-2.79-2.33,9,9,0,0,0-3.54-.66,9.35,9.35,0,0,0-3.39.58,6.51,6.51,0,0,0-2.78,2.21,11.73,11.73,0,0,0-1.91,4.26,27,27,0,0,0-.72,6.81,25.91,25.91,0,0,0,.68,6.62,12.54,12.54,0,0,0,1.75,4A6.63,6.63,0,0,0,752,56.38a9.47,9.47,0,0,0,3.71.71,9,9,0,0,0,3.4-.71,6.34,6.34,0,0,0,2.77-2.15,12.65,12.65,0,0,0,1.87-4.13A27.41,27.41,0,0,0,764.42,43.44Z"/><path class="cls-4" d="M813.12,34.16H812a9.8,9.8,0,0,0-2.31-.42c-1-.09-2.12-.14-3.34-.14a18.24,18.24,0,0,0-4.6.64A44.09,44.09,0,0,0,797,35.75V65.69H783.1V21H797v6.41c.64-.58,1.52-1.32,2.65-2.21a25.57,25.57,0,0,1,3.09-2.13,16.88,16.88,0,0,1,3.52-1.57,12.21,12.21,0,0,1,3.8-.66c.45,0,1,0,1.51,0s1.07.07,1.52.12Z"/></g><g class="cls-1"><path class="cls-4" d="M6.26,68.69l20-59.28H42.53l20,59.28H47.23l-3.7-12.1H24.9l-3.71,12.1Zm34-22.85-6-19.55L28.16,45.84Z"/><path class="cls-4" d="M87.53,69.89q-12.66,0-19.41-6.06T61.37,46.6q0-11,6.29-17.48t17.6-6.53q10.27,0,15.45,5.53T105.88,44v5H75.35a12.73,12.73,0,0,0,1.31,5.2,9.14,9.14,0,0,0,3,3.32,11.78,11.78,0,0,0,4.18,1.78,24.25,24.25,0,0,0,5.21.53,21.88,21.88,0,0,0,4.78-.53,22.59,22.59,0,0,0,4.3-1.42,28.46,28.46,0,0,0,3.17-1.63c1-.58,1.75-1.1,2.37-1.55h1.47v11.5L102,67.44a29,29,0,0,1-3.88,1.17,40.79,40.79,0,0,1-4.68.94A43.91,43.91,0,0,1,87.53,69.89Zm4.62-29.31c-.08-2.94-.76-5.19-2.05-6.72s-3.26-2.31-5.91-2.31A8.32,8.32,0,0,0,77.84,34a10.14,10.14,0,0,0-2.53,6.61Z"/><path class="cls-4" d="M123.65,69.93a39.13,39.13,0,0,1-9.34-1.08,35,35,0,0,1-7.26-2.51V54.56h1.15c.67.5,1.42,1.06,2.27,1.67A19.61,19.61,0,0,0,114,58.14a25.64,25.64,0,0,0,4.4,1.57,20.32,20.32,0,0,0,5.31.66,13.75,13.75,0,0,0,5.2-.91,3.08,3.08,0,0,0,2.24-2.91,2.77,2.77,0,0,0-1-2.35,11.56,11.56,0,0,0-4-1.51c-1.06-.27-2.4-.55-4-.86a36.68,36.68,0,0,1-4.3-1,16.14,16.14,0,0,1-7.91-4.84,12.82,12.82,0,0,1-2.64-8.42,12.17,12.17,0,0,1,1.37-5.64,14.41,14.41,0,0,1,4-4.71,20.79,20.79,0,0,1,6.59-3.23,30.64,30.64,0,0,1,8.86-1.19,37.65,37.65,0,0,1,8.64.93,33.42,33.42,0,0,1,6.65,2.25V37.24h-1.12A24.32,24.32,0,0,0,140,35.75a31,31,0,0,0-3-1.62,22.24,22.24,0,0,0-3.92-1.31,19.39,19.39,0,0,0-4.44-.52,11.45,11.45,0,0,0-5.12,1c-1.39.69-2.09,1.6-2.09,2.74a3,3,0,0,0,1,2.39,12.19,12.19,0,0,0,4.5,1.72c1.19.29,2.56.57,4.12.85a31.78,31.78,0,0,1,4.47,1.14,15.23,15.23,0,0,1,7.31,4.55,12.14,12.14,0,0,1,2.49,8,12.9,12.9,0,0,1-1.47,6,13.56,13.56,0,0,1-4.19,4.8A21.89,21.89,0,0,1,133,68.77,32.88,32.88,0,0,1,123.65,69.93Z"/><path class="cls-4" d="M166.1,69.57q-8.52,0-12.4-3.51T149.82,54.6V33.7h-5.34V24h5.34V11.2h13.93V24h13.42V33.7H163.75V49.54c0,1.57,0,2.93,0,4.1a8.46,8.46,0,0,0,.64,3.15,4.43,4.43,0,0,0,2,2.21,8.41,8.41,0,0,0,4.12.81,12.09,12.09,0,0,0,2.93-.48,11.4,11.4,0,0,0,2.52-.87h1.2v9.83a39.57,39.57,0,0,1-4.82.94A49.58,49.58,0,0,1,166.1,69.57Z"/><path class="cls-4" d="M221.73,68.69h-14V46.52c0-1.81-.07-3.61-.22-5.4a12.06,12.06,0,0,0-.81-4A4.43,4.43,0,0,0,204.61,35a8.35,8.35,0,0,0-3.63-.66,10.2,10.2,0,0,0-3.46.64,16.23,16.23,0,0,0-3.74,2V68.69H179.84V6.74h13.94V28.92a33.89,33.89,0,0,1,6.67-4.54,15.72,15.72,0,0,1,7.18-1.63q6.85,0,10.47,4.32t3.63,12.52Z"/><path class="cls-4" d="M251.91,69.89q-12.66,0-19.41-6.06T225.76,46.6q0-11,6.29-17.48t17.59-6.53q10.28,0,15.45,5.53T270.27,44v5H239.73a12.73,12.73,0,0,0,1.31,5.2,9.14,9.14,0,0,0,3,3.32,11.86,11.86,0,0,0,4.18,1.78,24.28,24.28,0,0,0,5.22.53,21.73,21.73,0,0,0,4.77-.53,22.59,22.59,0,0,0,4.3-1.42,27.61,27.61,0,0,0,3.17-1.63c1-.58,1.76-1.1,2.37-1.55h1.47v11.5q-1.71.67-3.12,1.26a29.71,29.71,0,0,1-3.89,1.17,41,41,0,0,1-4.67.94A44.18,44.18,0,0,1,251.91,69.89Zm4.62-29.31c-.08-2.94-.76-5.19-2-6.72s-3.26-2.31-5.91-2.31A8.33,8.33,0,0,0,242.22,34a10.14,10.14,0,0,0-2.53,6.61Z"/><path class="cls-4" d="M291.54,69.57q-8.52,0-12.41-3.51T275.25,54.6V33.7h-5.33V24h5.33V11.2h13.94V24H302.6V33.7H289.19V49.54c0,1.57,0,2.93,0,4.1a8.46,8.46,0,0,0,.63,3.15,4.48,4.48,0,0,0,2,2.21,8.48,8.48,0,0,0,4.13.81,12,12,0,0,0,2.92-.48,11.53,11.53,0,0,0,2.53-.87h1.19v9.83a39.4,39.4,0,0,1-4.81.94A49.69,49.69,0,0,1,291.54,69.57Z"/><path class="cls-4" d="M319.61,17.61H304.88V6.74h14.73Zm-.39,51.08H305.28V24h13.94Z"/><path class="cls-4" d="M348.81,69.89a34.86,34.86,0,0,1-10.14-1.4,21.82,21.82,0,0,1-8-4.3,19.59,19.59,0,0,1-5.21-7.3,26.34,26.34,0,0,1-1.88-10.37,26.46,26.46,0,0,1,2-10.91,20.61,20.61,0,0,1,5.5-7.41A21.72,21.72,0,0,1,339,24.08a33.4,33.4,0,0,1,16.82-.48,33.5,33.5,0,0,1,7.45,2.73V38.27h-1.79c-.56-.53-1.24-1.11-2.05-1.75a21,21,0,0,0-2.65-1.75,17.06,17.06,0,0,0-3.43-1.41,14.49,14.49,0,0,0-4.26-.58,9.91,9.91,0,0,0-8.26,3.72q-2.93,3.72-2.92,10,0,6.72,3.12,10a10.91,10.91,0,0,0,8.3,3.3,16.41,16.41,0,0,0,4.62-.59,15.87,15.87,0,0,0,3.43-1.44,15.58,15.58,0,0,0,2.38-1.73c.67-.6,1.24-1.13,1.72-1.61h1.79V66.42l-2.77,1.2a23.78,23.78,0,0,1-3.2,1.11c-1.36.37-2.62.66-3.81.86A29.11,29.11,0,0,1,348.81,69.89Z"/><path class="cls-4" d="M418.06,68.69H386.13V58.34h8.52V19.76h-8.52V9.41h31.93V19.76h-8.52V58.34h8.52Z"/><path class="cls-4" d="M466,68.69H452V46.52c0-1.81-.08-3.61-.22-5.4a12.28,12.28,0,0,0-.82-4A4.43,4.43,0,0,0,448.88,35a8.33,8.33,0,0,0-3.62-.66,10.25,10.25,0,0,0-3.47.64,16.43,16.43,0,0,0-3.74,2V68.69H424.12V24h13.93v4.94a34.19,34.19,0,0,1,6.67-4.54,15.74,15.74,0,0,1,7.19-1.63q6.84,0,10.47,4.32T466,39.59Z"/><path class="cls-4" d="M490.42,69.57q-8.52,0-12.41-3.51T474.13,54.6V33.7H468.8V24h5.33V11.2h13.94V24h13.41V33.7H488.07V49.54c0,1.57,0,2.93,0,4.1a8.26,8.26,0,0,0,.63,3.15,4.43,4.43,0,0,0,2,2.21,8.46,8.46,0,0,0,4.12.81,12,12,0,0,0,2.93-.48,11.53,11.53,0,0,0,2.53-.87h1.19v9.83a39.78,39.78,0,0,1-4.81.94A49.69,49.69,0,0,1,490.42,69.57Z"/><path class="cls-4" d="M527.05,69.89q-12.66,0-19.41-6.06T500.9,46.6q0-11,6.29-17.48t17.59-6.53q10.28,0,15.45,5.53T545.41,44v5H514.87a12.73,12.73,0,0,0,1.31,5.2,9.14,9.14,0,0,0,3,3.32,11.78,11.78,0,0,0,4.18,1.78,24.28,24.28,0,0,0,5.22.53,21.79,21.79,0,0,0,4.77-.53,22.59,22.59,0,0,0,4.3-1.42,28.46,28.46,0,0,0,3.17-1.63c1-.58,1.76-1.1,2.37-1.55h1.47v11.5l-3.13,1.26a29,29,0,0,1-3.88,1.17,40.79,40.79,0,0,1-4.68.94A43.91,43.91,0,0,1,527.05,69.89Zm4.62-29.31c-.08-2.94-.76-5.19-2-6.72s-3.26-2.31-5.91-2.31A8.32,8.32,0,0,0,517.36,34a10.14,10.14,0,0,0-2.53,6.61Z"/><path class="cls-4" d="M579.57,37.16h-1.15a9.8,9.8,0,0,0-2.31-.42c-1-.09-2.12-.14-3.34-.14a18.18,18.18,0,0,0-4.6.64,44.09,44.09,0,0,0-4.68,1.51V68.69H549.56V24h13.93v6.41c.64-.58,1.52-1.32,2.65-2.21a25.53,25.53,0,0,1,3.08-2.13,17.21,17.21,0,0,1,3.53-1.57,12.16,12.16,0,0,1,3.8-.66c.45,0,1,0,1.51,0s1.06.07,1.51.12Z"/><path class="cls-4" d="M625.73,45.72q0,10.71-5.44,17.28a16.75,16.75,0,0,1-13.4,6.57,20.11,20.11,0,0,1-5.81-.76,25.93,25.93,0,0,1-5.25-2.35V85.09H581.89V24h13.94v4.66a32.08,32.08,0,0,1,6.25-4.26,15.9,15.9,0,0,1,7.36-1.63,13.76,13.76,0,0,1,12,6.17Q625.73,35.09,625.73,45.72ZM611.47,46q0-6.53-2-9.48t-6.27-2.94a12.25,12.25,0,0,0-3.72.59A15,15,0,0,0,595.83,36v22.5a10.12,10.12,0,0,0,2.45.68,22.14,22.14,0,0,0,3.16.19c3.4,0,5.92-1.1,7.56-3.32S611.47,50.46,611.47,46Z"/><path class="cls-4" d="M660.21,37.16h-1.15a9.8,9.8,0,0,0-2.31-.42c-1-.09-2.12-.14-3.34-.14a18.18,18.18,0,0,0-4.6.64,44.09,44.09,0,0,0-4.68,1.51V68.69H630.19V24h13.94v6.41c.64-.58,1.52-1.32,2.65-2.21a24.77,24.77,0,0,1,3.08-2.13,17,17,0,0,1,3.53-1.57,12.16,12.16,0,0,1,3.8-.66c.45,0,.95,0,1.51,0s1.06.07,1.51.12Z"/><path class="cls-4" d="M685.42,69.89q-12.66,0-19.41-6.06T659.27,46.6q0-11,6.29-17.48t17.59-6.53q10.27,0,15.45,5.53T703.78,44v5H673.24a12.73,12.73,0,0,0,1.31,5.2,9.14,9.14,0,0,0,3,3.32,11.86,11.86,0,0,0,4.18,1.78,24.28,24.28,0,0,0,5.22.53,21.73,21.73,0,0,0,4.77-.53,22.59,22.59,0,0,0,4.3-1.42,27.61,27.61,0,0,0,3.17-1.63c1-.58,1.76-1.1,2.37-1.55H703v11.5q-1.71.67-3.12,1.26A29.71,29.71,0,0,1,696,68.61a41,41,0,0,1-4.67.94A44.18,44.18,0,0,1,685.42,69.89ZM690,40.58c-.08-2.94-.76-5.19-2-6.72s-3.26-2.31-5.91-2.31A8.32,8.32,0,0,0,675.73,34a10.14,10.14,0,0,0-2.53,6.61Z"/><path class="cls-4" d="M725.05,69.57q-8.52,0-12.41-3.51T708.76,54.6V33.7h-5.33V24h5.33V11.2H722.7V24h13.41V33.7H722.7V49.54c0,1.57,0,2.93,0,4.1a8.46,8.46,0,0,0,.63,3.15,4.48,4.48,0,0,0,2,2.21,8.48,8.48,0,0,0,4.13.81,12,12,0,0,0,2.92-.48,11.53,11.53,0,0,0,2.53-.87h1.19v9.83a39.4,39.4,0,0,1-4.81.94A49.69,49.69,0,0,1,725.05,69.57Z"/><path class="cls-4" d="M781.71,46.36q0,11-6,17.37t-17.06,6.35q-10.95,0-17-6.35t-6.07-17.37q0-11.16,6.07-17.46t17-6.31q11,0,17,6.35T781.71,46.36Zm-14.29.08a27.92,27.92,0,0,0-.66-6.63A12.19,12.19,0,0,0,765,35.57a6.75,6.75,0,0,0-2.79-2.33,9,9,0,0,0-3.54-.66,9.35,9.35,0,0,0-3.39.58,6.51,6.51,0,0,0-2.78,2.21,11.73,11.73,0,0,0-1.91,4.26,27,27,0,0,0-.72,6.81,25.91,25.91,0,0,0,.68,6.62,12.54,12.54,0,0,0,1.75,4A6.63,6.63,0,0,0,755,59.38a9.47,9.47,0,0,0,3.71.71,9,9,0,0,0,3.4-.71,6.34,6.34,0,0,0,2.77-2.15,12.65,12.65,0,0,0,1.87-4.13A27.41,27.41,0,0,0,767.42,46.44Z"/><path class="cls-4" d="M816.12,37.16H815a9.8,9.8,0,0,0-2.31-.42c-1-.09-2.12-.14-3.34-.14a18.24,18.24,0,0,0-4.6.64A44.09,44.09,0,0,0,800,38.75V68.69H786.1V24H800v6.41c.64-.58,1.52-1.32,2.65-2.21a25.57,25.57,0,0,1,3.09-2.13,16.88,16.88,0,0,1,3.52-1.57,12.21,12.21,0,0,1,3.8-.66c.45,0,1,0,1.51,0s1.07.07,1.52.12Z"/></g></svg>