<?xml version="1.0" encoding="utf-8"?>
<!-- Generator: Adobe Illustrator 24.0.2, SVG Export Plug-In . SVG Version: 6.00 Build 0)  -->
<svg version="1.1" id="Layer_1" xmlns="http://www.w3.org/2000/svg" xmlns:xlink="http://www.w3.org/1999/xlink" x="0px" y="0px"
	 viewBox="0 0 281 269" style="enable-background:new 0 0 281 269;" xml:space="preserve">
<style type="text/css">
	.st0{fill:url(#SVGID_1_);}
	.st1{fill:url(#SVGID_2_);}
</style>
<g id="graphic-5">
	<linearGradient id="SVGID_1_" gradientUnits="userSpaceOnUse" x1="66.8636" y1="190.9024" x2="214.2081" y2="105.833">
		<stop  offset="0" style="stop-color:#00AAAD"/>
		<stop  offset="0.2096" style="stop-color:#41B1C2"/>
		<stop  offset="0.4078" style="stop-color:#AB4A9C"/>
		<stop  offset="0.6088" style="stop-color:#AB4A9C"/>
		<stop  offset="0.7042" style="stop-color:#CC559F"/>
		<stop  offset="0.7964" style="stop-color:#E65DA2"/>
		<stop  offset="0.8518" style="stop-color:#EF60A3"/>
		<stop  offset="0.9673" style="stop-color:#EF60A3"/>
	</linearGradient>
	<path class="st0" d="M196.6,111c-37.4-0.3-74.9-0.4-112.3,0c-23.5,0.3-40.6,23.2-35.1,46.1c4.2,17.3,18.9,28.9,37.6,29
		c17.9,0.1,89.5,0,107.3,0c0.3,0,0.6,0,0.9,0c21.7-0.5,37.8-16.6,37.8-37.8C232.9,128.1,216.9,111.1,196.6,111z M80.7,154.7
		c3.8,2.1,4.1,4.6,4,8.2c-0.2,7-0.6,7.3-7,4.5c-8.1-3.7-12.5-10.1-12.6-18.9c0-8.8,4.3-15,12.1-18.8c6.4-3.1,7.3-2.5,7.3,5.3
		c0.4,2.6,0,5.1-3.8,7.1C76.2,144.4,76.1,152.2,80.7,154.7z M179.6,165.7c0,2.9-0.8,3.5-3.5,3.5c-11.8-0.1-58.8-0.2-70.4,0
		c-3,0-4.2-0.5-4.1-3.9c0.2-11.3,0.2-22.7,0-34.1c0-3.1,0.9-3.7,3.8-3.7c23.5,0.1,46.9,0.1,70.4,0c2.7,0,3.9,0.4,3.9,3.7
		C179.4,142.7,179.4,154.2,179.6,165.7L179.6,165.7z M204.2,167c-6.6,3.5-7.7,2.8-7.7-5.3c-0.5-2.5,0-4.8,3.6-6.7
		c4.8-2.5,5.1-10.4,0.4-13c-4-2.1-4.1-4.7-4-8.3c0.1-6.6,1.1-7.2,7.2-4.3c7.8,3.7,12.2,10,12.3,18.5
		C216.1,156.6,211.8,163.1,204.2,167L204.2,167z"/>
	<linearGradient id="SVGID_2_" gradientUnits="userSpaceOnUse" x1="9.0771" y1="210.427" x2="271.9229" y2="58.6729">
		<stop  offset="0" style="stop-color:#00AAAD"/>
		<stop  offset="0.2096" style="stop-color:#41B1C2"/>
		<stop  offset="0.4078" style="stop-color:#AB4A9C"/>
		<stop  offset="0.6088" style="stop-color:#AB4A9C"/>
		<stop  offset="0.7042" style="stop-color:#CC559F"/>
		<stop  offset="0.7964" style="stop-color:#E65DA2"/>
		<stop  offset="0.8518" style="stop-color:#EF60A3"/>
		<stop  offset="0.9673" style="stop-color:#EF60A3"/>
	</linearGradient>
	<path class="st1" d="M13.1,52.7v163.7c0,2,1.6,3.7,3.7,3.7h247.4c2,0,3.7-1.6,3.7-3.7V52.7c0-2-1.6-3.7-3.7-3.7H16.8
		C14.8,49,13.1,50.6,13.1,52.7z M247.2,202.9H33.8c-2,0-3.7-1.6-3.7-3.7V97.6c0-2,1.6-3.7,3.7-3.7h213.4c2,0,3.7,1.6,3.7,3.7v101.7
		C250.8,201.3,249.2,202.9,247.2,202.9z M247.2,77h-213c-2,0-3.7-1.6-3.7-3.7v-3.7c0-2,1.6-3.7,3.7-3.7h213c2,0,3.7,1.6,3.7,3.7v3.7
		C250.8,75.4,249.2,77,247.2,77L247.2,77z"/>
</g>
</svg>
