<svg xmlns="http://www.w3.org/2000/svg" viewBox="0 0 396.26 362.81"><defs><style>.cls-1{fill:#7c52a1;}</style></defs><title>violin</title><g id="violin"><path class="cls-1" d="M346.1,225.25A119.9,119.9,0,0,0,332.85,217c-3.89-2.25-9-3.59-11.81-4.85a8.87,8.87,0,0,1-4.41-5.21c-.53-1.3-.34-5.5-.34-5.5l-5.05-1.71a50.52,50.52,0,0,1-4.16,4.77,13.8,13.8,0,0,1-8,4.25c-3.33.54-6-.62-10.51-2.48s-10.41-6.07-13.17-8.16-7.53-7.18-10.32-10.31a52.54,52.54,0,0,1-7.1-9.88,11.44,11.44,0,0,1,1.31-11.22,8,8,0,0,1,6.14-3.61l-1.86-4.5s-.95.26-3.95-.36-5.27-4-6.92-6.35-3-6.35-4.45-9.59a63.88,63.88,0,0,0-8.46-12.53,84,84,0,0,0-12.27-11.29,42.25,42.25,0,0,0-12.83-5.39c-2.51-.53-9.64-2.21-16.29-2-5.66.15-11.62,2.29-17.11,4.59s-15.59,9.07-15.59,9.07L101.26,59.44c-.73-4.08-3.55-6.79-5.88-9.93s-22-20.83-22-20.83-1.22-1.12-2.11-2-.27-1.6-.21-3-1.41-2.27-2.2-3.14-.26-.94.54-1.94S70.5,16.89,70,15s-3.38-4.43-4.27-5.27-4.52,3.07-4.52,3.07l-2.26-2c-1-.87-2.86,1-4,1.92-1.41-1.46-3.3-4.25-4.53-4.57l-.27,0a3.84,3.84,0,0,0-.39.28,3.21,3.21,0,0,0-.41.34c-.37.3-.85.7-1.66,1.45s-4.4,3-4.73,3.29c-.05.06-.47.43-.5.49a.54.54,0,0,0-.16.25v.26c.21,1.25,2.74,3.4,4.07,4.94-1,1-3.06,2.71-2.28,3.78s1.75,2.43,1.75,2.43S41.68,29,42.43,30s3,4.1,4.85,4.74,2.57.43,3.64-.28,1.19-1.22,2-.36,1.54,2.42,2.92,2.48,2.13-.49,2.94.48,1.83,2.29,1.83,2.29S76.38,60.49,79.3,63.11s5.35,5.68,9.34,6.78l59.07,70.19s-4.55,7.64-7.34,12.89-5.48,11-6.15,16.62c-.79,6.6.22,13.85.52,16.4a42.13,42.13,0,0,0,4.18,13.27A84.46,84.46,0,0,0,149,212.52a63.77,63.77,0,0,0,11.7,9.58c3.09,1.79,7,3.46,9.13,5.32s5.35,4.42,5.7,7.47,0,4,0,4l4.31,2.27a8,8,0,0,1,4.17-5.77,11.4,11.4,0,0,1,11.29-.28,52.75,52.75,0,0,1,9.18,8c2.86,3.07,7.48,8.28,9.31,11.23s5.47,9.25,6.92,13.87,2.34,7.42,1.5,10.69a13.78,13.78,0,0,1-5,7.57,49.06,49.06,0,0,1-5.14,3.69l1.25,5.2s4.2.19,5.44.84a8.85,8.85,0,0,1,4.78,4.87c1,2.91,1.86,8.13,3.75,12.21a119,119,0,0,0,7,13.95c3.54,5.61,7.73,9.63,10.39,12.48S255,347.58,257.78,349a61.9,61.9,0,0,0,13.47,4.86,80.51,80.51,0,0,0,16,1.22,60.79,60.79,0,0,0,26.58-9.46A160.29,160.29,0,0,0,328.37,335l8.17-7.09,0,0,.41-.38.42-.37,0,0c1.68-1.61,5.54-5.31,7.82-7.48a163.71,163.71,0,0,0,12-13.49,71.83,71.83,0,0,0,7.76-12.81A72.63,72.63,0,0,0,369,280.56a81,81,0,0,0,.26-16.06,62,62,0,0,0-3.6-13.86c-1.18-2.88-5.53-11-8.12-13.9S351.36,229.28,346.1,225.25Zm-116.6,8.69a2.37,2.37,0,0,1-1.09,2.67c-1.14.84-2,.2-2.64-.56a3.41,3.41,0,0,1-.75-2.19c-.08-.81-.5-.77-1.83-1a3.52,3.52,0,0,0-3.09.68c-.85.78-.2,3,.36,4.91a31.24,31.24,0,0,0,4.34,8.43c1.83,2.18,12.13,12.86,14.24,15.37a28.82,28.82,0,0,1,5.37,10.57c1.5,4.88.18,7.71-.16,8.5s-2.35,3.74-4,4.24a10.61,10.61,0,0,1-4.54.22,10.16,10.16,0,0,1-4.39-1.67,3.76,3.76,0,0,1-1.77-2.43,3.66,3.66,0,0,1,1-3.21,3.05,3.05,0,0,1,2.88-1.39,3.68,3.68,0,0,1,2.75,2c.48.92-.6,3.39-.31,3.71a37.14,37.14,0,0,0,4.5,1.57,6.66,6.66,0,0,0,1.3-2.72c.65-2.13-.6-7-1.39-9.94s-3.87-5.3-9-10.78a76.14,76.14,0,0,1-8.9-11.93,49.92,49.92,0,0,1-3-5.33,32.84,32.84,0,0,1-1.72-7.33,5.8,5.8,0,0,1,1.51-3.85,5.63,5.63,0,0,1,3.17-1.7c1.46-.24,4.14-.2,5.27.72A4.69,4.69,0,0,1,229.5,233.94Zm72.44-14.12a10.14,10.14,0,0,1,1.26,4.51,10.64,10.64,0,0,1-.64,4.5c-.65,1.56-3.77,3.3-4.58,3.56s-3.77,1.32-8.48-.62a28.84,28.84,0,0,1-10-6.32c-2.31-2.34-12.08-13.55-14-15.6a26.86,26.86,0,0,0-8-5.1c-1.81-.73-4-1.59-4.85-.81a3.49,3.49,0,0,0-1,3c.05,1.35,0,1.76.78,1.91a3.4,3.4,0,0,1,2.11.95c.69.72,1.26,1.63.31,2.69a2.36,2.36,0,0,1-2.75.83,4.67,4.67,0,0,1-2.17-2.11c-.82-1.22-.61-3.89-.24-5.32a5.65,5.65,0,0,1,2-3,5.8,5.8,0,0,1,4-1.15,33.09,33.09,0,0,1,7.14,2.39,50.45,50.45,0,0,1,5,3.52,76.64,76.64,0,0,1,11.06,10c5,5.61,7,8.89,9.89,9.95s7.59,2.76,9.78,2.3a6.45,6.45,0,0,0,2.82-1,36.75,36.75,0,0,0-1.14-4.62c-.3-.32-2.86.53-3.73,0a3.68,3.68,0,0,1-1.76-2.92,3,3,0,0,1,1.64-2.74,3.65,3.65,0,0,1,3.29-.68A3.72,3.72,0,0,1,301.94,219.82Z"/><g id="keys"><path id="r_key1" class="cls-1" d="M72.09,29.49l6.81-6.21a4.29,4.29,0,0,1-.52-3.75,11.65,11.65,0,0,1,4.56-4.75,5.09,5.09,0,0,1,5.43-.34,6.68,6.68,0,0,1,3.46,4.34,7,7,0,0,1-1.2,5.15,11.76,11.76,0,0,1-5,3.87c-1.38.44-2.57-.29-3.79-.76-.82.69-6.66,6-6.66,6Z"/><path id="r_key2" class="cls-1" d="M85.62,41.24l6.8-6.2a4.31,4.31,0,0,1-.51-3.75,11.68,11.68,0,0,1,4.56-4.76,5.07,5.07,0,0,1,5.43-.33,6.66,6.66,0,0,1,3.46,4.33,7,7,0,0,1-1.21,5.15,11.7,11.7,0,0,1-5,3.88c-1.38.44-2.57-.3-3.79-.77-.83.69-6.66,6-6.66,6Z"/><path id="r_key1-2" data-name="r_key1" class="cls-1" d="M83.74,62.19,76.93,68.4a4.31,4.31,0,0,1,.52,3.74,11.58,11.58,0,0,1-4.57,4.76,5.09,5.09,0,0,1-5.43.34A6.71,6.71,0,0,1,64,72.9a6.93,6.93,0,0,1,1.2-5.15,11.69,11.69,0,0,1,5-3.87c1.38-.45,2.57.29,3.79.76.82-.69,6.66-6,6.66-6Z"/><path id="r_key2-2" data-name="r_key2" class="cls-1" d="M70.21,50.44l-6.81,6.2a4.3,4.3,0,0,1,.52,3.75,11.68,11.68,0,0,1-4.56,4.76,5.09,5.09,0,0,1-5.43.33,6.66,6.66,0,0,1-3.46-4.33A7,7,0,0,1,51.67,56a11.79,11.79,0,0,1,5-3.88c1.38-.44,2.57.29,3.79.76.82-.68,6.66-6,6.66-6Z"/></g></g></svg>