<?xml version="1.0" encoding="utf-8"?>
<!-- Generator: Adobe Illustrator 24.0.2, SVG Export Plug-In . SVG Version: 6.00 Build 0)  -->
<svg version="1.1" id="Layer_1" xmlns="http://www.w3.org/2000/svg" xmlns:xlink="http://www.w3.org/1999/xlink" x="0px" y="0px"
	 viewBox="0 0 281 269" style="enable-background:new 0 0 281 269;" xml:space="preserve">
<style type="text/css">
	.st0{fill:url(#SVGID_1_);}
	.st1{fill:url(#SVGID_2_);}
	.st2{fill:url(#SVGID_3_);}
</style>
<g id="graphic-11">
	<linearGradient id="SVGID_1_" gradientUnits="userSpaceOnUse" x1="11.6857" y1="134.4459" x2="269.2238" y2="134.4459">
		<stop  offset="0" style="stop-color:#F8F423"/>
		<stop  offset="0.15" style="stop-color:#F8F025"/>
		<stop  offset="0.29" style="stop-color:#F8E52C"/>
		<stop  offset="0.43" style="stop-color:#F8D236"/>
		<stop  offset="0.57" style="stop-color:#F8B746"/>
		<stop  offset="0.7" style="stop-color:#F89559"/>
		<stop  offset="0.84" style="stop-color:#F76B71"/>
		<stop  offset="0.97" style="stop-color:#F73A8D"/>
		<stop  offset="1" style="stop-color:#F72C95"/>
	</linearGradient>
	<path class="st0" d="M47.6,124.9c-7.6,4.3-15.2,8.8-22.8,12.9c-4.9,2.7-9.7,2.4-12.2-4.6c-2.3-6.6-0.1-11.5,4.8-15.2
		c29-22.5,56.8-17.4,83.8,5.9c31.1,26.9,47.2,27.3,78.4,0.3c26.3-22.8,53.3-28.2,81.9-7.5c5.4,3.9,9.9,8,6.6,16.7
		c-3.5,9.2-9.5,6.5-14.3,2.7c-23.3-18.3-44.8-11.9-65.5,7.1c-32,29.5-63.9,29.6-95.9,0C83.8,135,73.8,130,63.9,125
		C58.8,122.5,52.8,122.5,47.6,124.9z"/>
	<linearGradient id="SVGID_2_" gradientUnits="userSpaceOnUse" x1="11.4704" y1="211.1261" x2="269.3354" y2="211.1261">
		<stop  offset="0" style="stop-color:#F8F423"/>
		<stop  offset="0.15" style="stop-color:#F8F025"/>
		<stop  offset="0.29" style="stop-color:#F8E52C"/>
		<stop  offset="0.43" style="stop-color:#F8D236"/>
		<stop  offset="0.57" style="stop-color:#F8B746"/>
		<stop  offset="0.7" style="stop-color:#F89559"/>
		<stop  offset="0.84" style="stop-color:#F76B71"/>
		<stop  offset="0.97" style="stop-color:#F73A8D"/>
		<stop  offset="1" style="stop-color:#F72C95"/>
	</linearGradient>
	<path class="st1" d="M44.2,181.7c23-4.1,42.9,5.3,61.2,22.3c23.4,21.8,47,21.2,70.6-0.3c6.5-6.2,13.8-11.5,21.7-15.8
		c22.3-11.5,44.2-10.2,65.2,5.9c4.9,3.8,8.5,8.7,5.1,16.2c-2.9,6.6-8.3,6.7-12.6,3.3c-25.4-20.4-48.1-11.4-70.7,8.9
		C154.5,249.5,124,248,94,220.6c-21.3-19.5-43.5-27.2-67.6-7.9c-4.8,3.8-10.5,4.5-13.6-2.6c-3.5-8.1,0.4-13.4,6-17
		C27.1,187.9,35.4,183,44.2,181.7z"/>
	<linearGradient id="SVGID_3_" gradientUnits="userSpaceOnUse" x1="11.6793" y1="57.8165" x2="269.3724" y2="57.8165">
		<stop  offset="0" style="stop-color:#F8F423"/>
		<stop  offset="0.15" style="stop-color:#F8F025"/>
		<stop  offset="0.29" style="stop-color:#F8E52C"/>
		<stop  offset="0.43" style="stop-color:#F8D236"/>
		<stop  offset="0.57" style="stop-color:#F8B746"/>
		<stop  offset="0.7" style="stop-color:#F89559"/>
		<stop  offset="0.84" style="stop-color:#F76B71"/>
		<stop  offset="0.97" style="stop-color:#F73A8D"/>
		<stop  offset="1" style="stop-color:#F72C95"/>
	</linearGradient>
	<path class="st2" d="M130.9,87.8c-13.5-1.6-25.2-9.2-35.9-19C72.8,48.7,50.2,40.4,25.5,61c-5.3,4.5-10.3,2.9-12.9-4.4
		c-2.7-7.6,0.9-12.2,6.1-15.8C46,21.3,72.5,24.2,98.4,45.4c4.7,3.9,9.3,7.8,14,11.5c20.2,15.8,40.3,14.3,59.3-2.8
		C186.3,41,202,31.7,219.4,27.9s32.6,5,46.9,16.3c3.8,3,3.8,8.8,1.5,13.8c-2,4.6-5.3,5.9-9.2,4.8c-1.2-0.4-2.3-1.1-3.2-1.9
		c-24.8-20.5-47.5-12.3-69.6,8c-10.1,9.2-19.1,15.3-31.5,18.6C146.6,88.9,138.7,89,130.9,87.8z"/>
</g>
</svg>
